<?xml version="1.0" standalone="no"?>
<!DOCTYPE svg PUBLIC "-//W3C//DTD SVG 1.1//EN" "http://www.w3.org/Graphics/SVG/1.1/DTD/svg11.dtd" >
<svg>
<metadata>
Created by FontForge 20120731 at Thu Aug 29 18:51:40 2019
 By www
Copyright (c) 2016 by Schizotype. All rights reserved.
</metadata>
<defs>
<font id="CinemaScript" horiz-adv-x="400" >
  <font-face 
    font-family="CinemaScript"
    font-weight="400"
    font-stretch="normal"
    units-per-em="1000"
    panose-1="0 0 0 0 0 0 0 0 0 0"
    ascent="664"
    descent="-336"
    x-height="328"
    cap-height="683"
    bbox="-379 -343 1333 898"
    underline-thickness="50"
    underline-position="-50"
    unicode-range="U+000D-FB06"
  />
<missing-glyph horiz-adv-x="726" 
d="M714 349q0 -59 -27.5 -122t-75 -117.5t-120.5 -89.5t-156 -35q-78 0 -138 25t-94 66.5t-51 89t-17 97.5q0 87 36 163.5t89.5 124.5t111.5 75.5t106 27.5q26 0 63 -30q35 -1 71 -10t73 -30t65 -51.5t46 -78t18 -105.5zM418 562l-2 8q-122 -22 -206 -121t-84 -217
q0 -96 57.5 -146t131.5 -50q69 0 128.5 32.5t96.5 84t57.5 111t20.5 115.5q0 50 -15.5 88.5t-39 59t-46 30.5t-42.5 10q-37 0 -57 -5zM498 489q24 0 41 -14.5t17 -34.5q0 -29 -24.5 -54.5t-52.5 -25.5q-19 0 -36 14t-17 38q0 32 21 54.5t51 22.5zM349 482q23 0 37 -14
t14 -35q0 -30 -20 -53t-47 -23q-21 0 -38.5 12t-17.5 35q0 32 21 55t51 23zM192 164q-20 0 -33.5 8.5t-13.5 21.5q0 39 52.5 70t142.5 31q80 0 141 -32q68 -37 68 -58q0 -16 -15 -16q-5 0 -11 3q-84 38 -156 38q-52 0 -89 -10.5t-50.5 -22.5t-22.5 -22.5t-13 -10.5z" />
    <glyph glyph-name="fi" unicode="fi" horiz-adv-x="495" 
d="M295 86q0 46 15 100q-48 -50 -99 -74q34 -61 55 -126t21 -113q0 -17 -4.5 -43.5t-15.5 -59t-33.5 -55.5t-52.5 -23q-62 0 -110.5 50.5t-48.5 98.5q0 115 26 279q-24 16 -37.5 36.5t-13.5 34.5q0 21 19 40t40 19q5 0 13 -2q50 269 83 355q14 38 33 38q26 0 60 -27t34 -45
q0 -3 -1 -5t-4 -6t-6 -10q-7 -14 -23.5 -59t-42.5 -131t-45 -169q1 -2 6 -7t7 -8q88 21 142 102q5 8 14.5 24.5t15 23t11.5 6.5q26 0 55 -22.5t29 -40.5q0 -4 -2.5 -10t-6.5 -13.5t-6 -10.5q-33 -64 -33 -149q0 -12 5.5 -21t12.5 -9q23 0 62.5 43t68.5 102q17 -14 17 -36
q0 -26 -53.5 -98.5t-99.5 -72.5q-39 0 -73 26.5t-34 67.5zM196 -81q0 92 -43 175q-5 -1 -16 -1q-23 -115 -23 -222q0 -33 9 -63.5t22 -30.5q16 0 33.5 45.5t17.5 96.5zM408 504q27 0 57 -16t30 -35q0 -33 -32 -60.5t-65 -27.5q-24 0 -45 14t-21 42q0 31 24.5 57t51.5 26z
" />
    <glyph glyph-name="f_e" unicode="fe" horiz-adv-x="560" 
d="M413 -8q-48 0 -83 25.5t-46 73.5h-19q-24 0 -44 2q66 -124 66 -220q0 -17 -4.5 -43.5t-15.5 -59t-33.5 -55.5t-52.5 -23q-62 0 -110.5 50.5t-48.5 98.5q0 113 27 288q-52 25 -52 62q0 21 19 40t40 19q5 0 13 -2q50 269 83 355q14 38 33 38q26 0 60 -27t34 -45q0 -3 -1 -5
t-4 -6t-6 -10q-7 -14 -23.5 -59t-42.5 -131t-45 -169l21 -26q45 -15 101 -19q5 63 51 124.5t90 61.5t83 -30t39 -63q0 -45 -44.5 -83t-128.5 -54q17 -47 58 -47t93.5 43t82.5 103q17 -14 17 -36q0 -10 -17 -36.5t-43.5 -57t-66.5 -54t-80 -23.5zM196 -81q0 78 -29 180
q-20 2 -28 4q-25 -130 -25 -232q0 -33 9 -63.5t22 -30.5q16 0 33.5 45.5t17.5 96.5zM447 271q-19 0 -47 -43.5t-35 -80.5q51 11 75 42t24 58q0 24 -17 24z" />
    <glyph glyph-name="f_g" unicode="fg" horiz-adv-x="629" 
d="M268 548q-7 -14 -23.5 -60t-43 -132.5t-45.5 -169.5q24 -30 47 -74q45 4 77 36q9 69 52 125.5t86 56.5q22 0 48 -20t46 -48q12 25 23 25q15 0 37 -20.5t22 -35.5q0 -158 -21 -283q39 -23 39 -61q0 -13 -12 -13q-6 0 -17.5 2t-23.5 3q-45 -188 -143 -188q-39 0 -85.5 46.5
t-46.5 103.5q0 37 60 78t147 46q9 55 12 113q-50 -86 -95 -86q-41 0 -78 30t-48 71q-25 -22 -54 -32q47 -110 47 -193q0 -17 -4.5 -42.5t-15 -58t-33 -54.5t-52.5 -22q-52 0 -100 51.5t-48 98.5q0 104 26 277q-51 48 -51 73q0 21 19 40t40 19q5 0 13 -2q50 269 83 355
q14 38 33 38q26 0 60 -27t34 -45q0 -3 -1 -5t-4 -6t-6 -10zM188 -70q0 45 -28 125q-13 1 -28 8q-18 -106 -18 -192q0 -33 9 -63.5t22 -30.5q15 0 29 50t14 103zM380 57q27 0 64 44.5t49 97.5q-7 21 -26.5 37t-28.5 16q-8 0 -25.5 -22.5t-33.5 -60.5t-16 -71q0 -41 17 -41z
M393 -235q48 0 80 113q-51 -7 -87.5 -26t-36.5 -33q0 -21 16 -37.5t28 -16.5z" />
    <glyph glyph-name="f_j" unicode="fj" horiz-adv-x="492" 
d="M301 -215q0 36 28 217.5t32 237.5q-22 -32 -64 -70t-88 -59q66 -122 66 -224q0 -21 -3 -46.5t-11 -62.5t-29 -61.5t-51 -24.5q-62 0 -110.5 50.5t-48.5 98.5q0 115 26 279q-24 16 -37.5 36.5t-13.5 34.5q0 21 19 40t40 19q9 0 13 -1q50 269 83 354q14 38 33 38
q26 0 60 -27t34 -45q0 -3 -1 -5t-4 -6t-6 -10q-7 -14 -23.5 -59t-42.5 -131t-45 -169l11 -13q105 28 185 137q11 17 26 17q20 0 49 -20t29 -48q0 -40 -23.5 -210t-23.5 -210q0 -36 1.5 -60.5t4 -33t4 -14.5t1.5 -10q0 -15 -21 -15q-14 0 -34.5 5.5t-42.5 24t-22 46.5z
M196 -81q0 74 -45 175q-5 -1 -14 -1q-23 -115 -23 -222q0 -33 9 -63.5t22 -30.5q16 0 33.5 45.5t17.5 96.5zM441 504q28 0 58 -16t30 -35q0 -33 -32.5 -60.5t-65.5 -27.5q-24 0 -45 14t-21 42q0 31 24.5 57t51.5 26z" />
    <glyph glyph-name="f_p" unicode="fp" horiz-adv-x="671" 
d="M297 -215q0 35 26.5 205t31.5 229q-24 -35 -62.5 -70.5t-80.5 -52.5q63 -129 63 -228q0 -17 -4.5 -42.5t-15 -58t-33 -54.5t-52.5 -22q-52 0 -100 51.5t-48 98.5q0 104 26 281q-23 17 -37 37t-14 32q0 21 19 40t40 19q5 0 13 -2q50 269 83 355q14 38 33 38q26 0 60 -27
t34 -45q0 -3 -1 -5t-4 -6t-6 -10q-7 -14 -23.5 -60t-43 -132.5t-45.5 -169.5q6 -7 16 -21q47 11 94.5 51t70.5 86q14 28 30 28q18 0 49 -21.5t31 -43.5q0 -11 -3 -27q49 92 108 92q40 0 71.5 -35.5t31.5 -84.5q0 -76 -49.5 -147t-91.5 -71q-47 0 -89 48q-19 -82 -19 -158
q0 -54 3 -90t5.5 -50.5t2.5 -17.5q0 -15 -21 -15q-14 0 -34.5 5.5t-42.5 24t-22 46.5zM188 -70q0 57 -39 154q-9 0 -14 1q-21 -118 -21 -214q0 -33 9 -63.5t22 -30.5q15 0 29 50t14 103zM548 256q-67 -30 -108 -159q28 -32 56 -32q26 0 46 50.5t20 96.5q0 44 -14 44z" />
    <glyph glyph-name="f_r" unicode="fr" horiz-adv-x="525" 
d="M437 54q23 0 62 42.5t69 102.5q17 -14 17 -36q0 -15 -22 -54t-65.5 -78t-87.5 -39q-27 0 -52 22t-25 51q0 25 12 71q-18 4 -40 15q-35 -45 -79 -67q61 -120 61 -211q0 -17 -4.5 -43.5t-15.5 -59t-33.5 -55.5t-52.5 -23q-62 0 -110.5 50.5t-48.5 98.5q0 107 23 263
q-48 35 -48 87q0 25 17 42t42 17q5 0 13 -2q50 269 83 355q14 38 33 38q26 0 60 -27t34 -45q0 -3 -1 -5t-4 -6t-6 -10q-7 -14 -23.5 -59t-42.5 -131t-45 -169q16 -19 36 -47q42 4 74 41q-17 24 -17 53q0 26 23 72t41 46q17 0 29.5 -20t12.5 -39q0 -16 -23 -82l32 -8
q27 69 45 69q14 0 43.5 -23.5t29.5 -36.5q0 -17 -23 -38q-36 -68 -36 -108q0 -14 13 -14zM196 -81q0 60 -22 151h-14q-18 0 -27 1q-19 -108 -19 -200q0 -33 9 -63.5t22 -30.5q16 0 33.5 45.5t17.5 96.5z" />
    <glyph glyph-name="f_y" unicode="fy" horiz-adv-x="635" 
d="M357 330q26 0 55 -22t29 -40q0 -4 -14 -35q-13 -25 -22.5 -67.5t-9.5 -76.5t16 -34q41 0 93 72q0 93 13 141q6 24 13 32t20 8q25 0 46.5 -22.5t21.5 -41.5q0 -17 -11 -41q-3 -4 -14 -29q-4 -127 -20 -225q39 -24 39 -62q0 -13 -12 -13q-6 0 -19 2t-23 3
q-45 -188 -142 -188q-37 0 -84.5 46.5t-47.5 103.5q0 36 61 77.5t146 46.5q7 39 11 99q-53 -72 -114 -72q-40 0 -65.5 26t-25.5 80v8q-31 -31 -69 -45q47 -110 47 -193q0 -17 -4.5 -42.5t-15 -58t-33 -54.5t-52.5 -22q-52 0 -100 51.5t-48 98.5q0 104 26 277q-51 48 -51 73
q0 21 19 40t40 19q5 0 13 -2q50 269 83 355q14 38 33 38q26 0 60 -27t34 -45q0 -3 -1 -5t-4 -6t-6 -10q-7 -14 -23.5 -60t-43 -132.5t-45.5 -169.5q24 -30 47 -74q60 4 99 63q5 42 16 79t21.5 56.5t17.5 19.5zM188 -70q0 45 -28 125q-13 1 -28 8q-18 -106 -18 -192
q0 -33 9 -63.5t22 -30.5q15 0 29 50t14 103zM393 -235q46 0 79 112q-49 -7 -86 -26t-37 -32q0 -17 15 -35.5t29 -18.5z" />
    <glyph glyph-name="o_e" unicode="oe" horiz-adv-x="632" 
d="M149 330q35 0 60.5 -22t29.5 -42q16 -1 47 -26t31 -50q0 -16 -3 -31q19 -8 38 -10q6 63 51.5 122t88.5 59q44 0 83 -30t39 -63q0 -49 -45 -87.5t-128 -49.5q17 -47 58 -47t93.5 43t82.5 103q17 -14 17 -36q0 -10 -17 -36.5t-43.5 -57t-66.5 -54t-80 -23.5q-50 0 -86 27.5
t-45 78.5q-35 5 -56 14q-22 -50 -63 -85t-86 -35q-53 0 -97.5 37t-44.5 96q0 80 50 142.5t92 62.5zM141 45q28 0 54 35t37 76q-21 26 -21 50t5 36q-1 1 -4 4.5t-6 5t-8 1.5q-37 0 -70.5 -48t-33.5 -98q0 -62 47 -62zM519 271q-19 0 -45.5 -41.5t-35.5 -78.5q52 11 75 41
t23 55q0 24 -17 24z" />
    <glyph glyph-name="o_i" unicode="oi" horiz-adv-x="555" 
d="M149 330q35 0 60.5 -22t29.5 -42q8 -1 25.5 -11t31.5 -24q49 12 85 71q17 28 32 28q26 0 54 -23t28 -41q0 -4 -13 -33q-33 -64 -33 -149q0 -12 5.5 -21t12.5 -9q23 0 62.5 43t68.5 102q17 -14 17 -36q0 -26 -53.5 -98.5t-99.5 -72.5q-40 0 -71.5 22.5t-31.5 63.5
q0 71 13 138q-28 -35 -57 -51q-10 -64 -59.5 -118.5t-106.5 -54.5q-53 0 -97.5 37t-44.5 96q0 80 50 142.5t92 62.5zM203 208q0 25 9 37q-6 8 -14 8q-37 0 -70.5 -48t-33.5 -98q0 -62 47 -62q28 0 54 35.5t37 76.5q-29 17 -29 51zM468 504q27 0 57 -16t30 -35
q0 -33 -32 -60.5t-65 -27.5q-24 0 -45 14t-21 42q0 31 24.5 57t51.5 26z" />
    <glyph glyph-name="o_l" unicode="ol" horiz-adv-x="567" 
d="M489 58q18 0 55 41.5t66 99.5q17 -14 17 -36q0 -26 -53.5 -98.5t-99.5 -72.5q-48 0 -78.5 46t-30.5 90q0 28 5 60q-32 -23 -57 -31q-13 -63 -61 -114t-103 -51q-53 0 -97.5 37t-44.5 96q0 80 50 142.5t92 62.5q35 0 60.5 -22t29.5 -42q10 -1 32.5 -15t34.5 -32
q46 20 77 53q22 132 52 239t53 107q28 0 62 -28.5t34 -63.5q0 -46 -31 -127.5t-73 -143.5q-16 -74 -16 -143q0 -21 7 -37.5t18 -16.5zM203 224q0 17 5 25q-4 4 -10 4q-37 0 -70.5 -48t-33.5 -98q0 -62 47 -62q27 0 53 34.5t38 75.5q-29 26 -29 69z" />
    <glyph glyph-name="o_m" unicode="om" horiz-adv-x="877" 
d="M149 330q35 0 60.5 -22t29.5 -42q19 -2 46 -25q52 22 98 75q12 14 26 14q18 0 49.5 -21.5t31.5 -43.5q0 -27 -19 -124q84 189 109 189q23 0 50 -18t27 -32q0 -8 -11.5 -52.5t-23.5 -84.5l-11 -40l4 -1q96 198 119 198q27 0 56.5 -19.5t29.5 -36.5q0 -8 -25.5 -70.5
t-25.5 -91.5q0 -33 15 -33q23 0 65 45.5t71 104.5q17 -14 17 -36q0 -26 -53.5 -98.5t-99.5 -72.5q-36 0 -63 25.5t-27 62.5q0 26 8 59.5t16 54.5l9 20l-5 3q-25 -47 -49 -106t-36.5 -89t-20.5 -30q-29 0 -60.5 27.5t-31.5 49.5q0 13 8 49t16 66l9 29l-3 1q-35 -51 -93 -179
q-20 -43 -29 -43q-25 0 -47 27t-22 57q0 21 24 100.5t24 95.5q-54 -60 -94 -90q-4 -68 -55.5 -129t-112.5 -61q-53 0 -97.5 37t-44.5 96q0 80 50 142.5t92 62.5zM141 45q27 0 53.5 35t37.5 76q-29 16 -29 52q0 25 9 37q-6 8 -14 8q-37 0 -70.5 -48t-33.5 -98q0 -62 47 -62z
" />
    <glyph glyph-name="o_n" unicode="on" horiz-adv-x="738" 
d="M149 330q35 0 60.5 -22t29.5 -42q19 -2 46 -25q52 22 98 75q12 14 26 14q18 0 49.5 -21.5t31.5 -43.5t-16 -108q108 173 126 173q26 0 53 -23t27 -41q0 -8 -24 -80.5t-24 -101.5q0 -12 5.5 -21t12.5 -9q23 0 62 42.5t69 102.5q17 -14 17 -36q0 -26 -54 -98.5t-99 -72.5
q-37 0 -73 22.5t-36 51.5q0 23 14 68.5t28 79.5l14 34l-5 3q-43 -61 -76.5 -129t-49 -99t-29.5 -31q-25 0 -47 27t-22 57q0 21 24 100.5t24 95.5q-54 -60 -94 -90q-4 -68 -55.5 -129t-112.5 -61q-53 0 -97.5 37t-44.5 96q0 80 50 142.5t92 62.5zM203 208q0 25 9 37
q-6 8 -14 8q-37 0 -70.5 -48t-33.5 -98q0 -62 47 -62q27 0 53.5 35t37.5 76q-29 16 -29 52z" />
    <glyph glyph-name="o_r" unicode="or" horiz-adv-x="632" 
d="M544 54q23 0 62 42.5t69 102.5q17 -14 17 -36q0 -15 -22 -54t-65.5 -78t-87.5 -39q-27 0 -52 22t-25 51q0 25 12 71q-14 3 -40 16q-16 -21 -42.5 -35.5t-53.5 -14.5q-10 0 -21 3q-23 -48 -63 -80.5t-83 -32.5q-53 0 -97.5 37t-44.5 96q0 80 50 142.5t92 62.5
q35 0 60.5 -22t29.5 -42q16 -1 47 -26t31 -50q0 -15 -3 -30h7q25 0 51 26q-15 21 -15 50q0 26 23 72t41 46q17 0 29.5 -20t12.5 -39q0 -32 -18 -84l27 -6q27 69 45 69q14 0 43.5 -23.5t29.5 -36.5q0 -10 -23 -38q-36 -68 -36 -108q0 -14 13 -14zM203 208q0 27 8 38
q-5 7 -13 7q-37 0 -70.5 -48t-33.5 -98q0 -62 47 -62q26 0 51.5 31.5t37.5 70.5q-27 30 -27 61z" />
    <glyph glyph-name="o_t" unicode="ot" horiz-adv-x="572" 
d="M149 330q28 0 58 -14t49 -35q20 12 133 48q18 102 45 177q14 38 33 38q26 0 58.5 -23.5t32.5 -41.5q0 -7 -10 -21q-23 -31 -43 -94q30 9 42 9q21 0 36 -23t15 -39q0 -11 -17 -14q-4 0 -14 -1l-11 -1q-5 -1 -32.5 -3.5t-40.5 -4.5q-24 -99 -24 -191q0 -21 8 -31.5
t17 -10.5q23 0 62 42.5t69 102.5q17 -14 17 -36q0 -26 -53.5 -98.5t-99.5 -72.5q-38 0 -74.5 31t-36.5 75q0 85 11 170q-39 -8 -68 -18q6 -24 6 -60q0 -68 -52.5 -133t-115.5 -65q-53 0 -97.5 37t-44.5 96q0 80 50 142.5t92 62.5zM237 188q0 13 -1 19q-6 -1 -17 -1
q-22 0 -22 6q0 1 2.5 7.5t2.5 14.5l-4 19q-33 0 -68.5 -52t-35.5 -94q0 -62 47 -62q34 0 65 51.5t31 91.5z" />
    <glyph glyph-name="o_t_t" unicode="ott" horiz-adv-x="802" 
d="M697 544q26 0 58.5 -23.5t32.5 -41.5q0 -7 -10 -21q-20 -29 -41 -88q30 3 40 3q21 0 36 -23t15 -39q0 -10 -5.5 -12.5t-29.5 -2.5q-28 0 -78 -2q-26 -102 -26 -198q0 -21 8 -31.5t17 -10.5q23 0 62 42.5t69 102.5q17 -14 17 -36q0 -26 -53.5 -98.5t-99.5 -72.5
q-37 0 -73 29t-38 71q-66 -100 -119 -100q-38 0 -74.5 31t-36.5 75q0 75 10 160l-66 -13q5 -27 5 -55q0 -68 -52.5 -133t-115.5 -65q-53 0 -97.5 37t-44.5 96q0 80 50 142.5t92 62.5q28 0 58 -14t49 -35q1 1 9 5q43 16 122 34q20 117 47 186q14 38 33 38q26 0 58.5 -23.5
t32.5 -41.5q0 -7 -10 -21q-25 -35 -51 -117q59 9 128 18q16 85 39 147q14 38 33 38zM484 54q20 0 53.5 34t62.5 84q5 63 12 117q-74 -6 -132 -15q-21 -89 -21 -178q0 -21 8 -31.5t17 -10.5zM237 188q0 13 -1 19q-6 -1 -17 -1q-22 0 -22 6q0 1 2.5 7.5t2.5 14.5l-4 19
q-33 0 -68.5 -52t-35.5 -94q0 -62 47 -62q34 0 65 51.5t31 91.5z" />
    <glyph glyph-name="o_u" unicode="ou" horiz-adv-x="732" 
d="M149 330q35 0 60.5 -22t29.5 -42q8 -1 25.5 -11t31.5 -24q46 12 87 66q2 2 7 9t7 9.5t6 7t7.5 6t6.5 1.5q26 0 55 -22t29 -40q0 -4 -14 -35q-12 -23 -22 -66t-10 -78q0 -34 16 -34q30 0 71 47q1 64 25 147q17 59 39 59q25 0 47 -22.5t22 -41.5t-12 -41l-17 -30
q-11 -44 -11 -87q0 -39 11 -39q22 0 60.5 45.5t69.5 106.5q16 -14 16 -36q0 -26 -53.5 -98.5t-98.5 -72.5q-27 0 -52 16.5t-38 42.5q-46 -59 -102 -59q-40 0 -65.5 26t-25.5 80q0 56 10 113q-27 -33 -52 -46q-10 -64 -59.5 -118.5t-106.5 -54.5q-53 0 -97.5 37t-44.5 96
q0 80 50 142.5t92 62.5zM203 208q0 25 9 37q-6 8 -14 8q-37 0 -70.5 -48t-33.5 -98q0 -62 47 -62q28 0 54 35.5t37 76.5q-29 17 -29 51z" />
    <glyph glyph-name="o_v" unicode="ov" horiz-adv-x="694" 
d="M406 329q37 0 62 -17.5t25 -33.5q0 -1 -9 -9t-18 -28t-9 -50q0 -50 8.5 -93.5t22.5 -43.5q25 0 61 76t36 119q0 34 -11 52t-11 19q0 11 11 19.5t25 8.5q27 0 55.5 -19.5t28.5 -41.5q0 -46 -25.5 -101.5t-58.5 -96.5t-63.5 -69t-42.5 -28q-136 0 -136 194v12
q-23 -22 -42 -33q-10 -64 -59.5 -118.5t-106.5 -54.5q-53 0 -97.5 37t-44.5 96q0 80 50 142.5t92 62.5q35 0 60.5 -22t29.5 -42q8 -1 25.5 -11t31.5 -24q44 11 76 58q16 40 34 40zM203 208q0 25 9 37q-6 8 -14 8q-37 0 -70.5 -48t-33.5 -98q0 -62 47 -62q28 0 54 35.5
t37 76.5q-29 17 -29 51z" />
    <glyph glyph-name="o_v_e" unicode="ove" horiz-adv-x="984" 
d="M837 -8q-53 0 -89.5 29.5t-43.5 85.5q-39 8 -72 29q-35 -56 -79 -100t-60 -44q-136 0 -136 194v12q-23 -22 -42 -33q-10 -64 -59.5 -118.5t-106.5 -54.5q-53 0 -97.5 37t-44.5 96q0 80 50 142.5t92 62.5q35 0 60.5 -22t29.5 -42q8 -1 25.5 -11t31.5 -24q44 11 76 58
q16 40 34 40q37 0 62 -17.5t25 -33.5q0 -1 -9 -9t-18 -28t-9 -50q0 -50 8.5 -93.5t22.5 -43.5q19 0 44 44.5t41 97.5q-12 33 -12 78q0 26 9.5 50t28.5 24q27 0 55.5 -19.5t28.5 -41.5q0 -42 -24 -97q18 -21 46 -31q10 61 54 116t85 55q44 0 83 -30t39 -63q0 -50 -43.5 -86.5
t-130.5 -45.5q15 -52 59 -52q41 0 93.5 43t82.5 103q17 -14 17 -36q0 -10 -17 -36.5t-43.5 -57t-66.5 -54t-80 -23.5zM203 208q0 25 9 37q-6 8 -14 8q-37 0 -70.5 -48t-33.5 -98q0 -62 47 -62q28 0 54 35.5t37 76.5q-29 17 -29 51zM871 271q-18 0 -44.5 -39.5t-35.5 -76.5
q30 5 51 16.5t30 26.5t12.5 26.5t3.5 22.5q0 24 -17 24z" />
    <glyph glyph-name="o_w" unicode="ow" horiz-adv-x="860" 
d="M481 54q25 0 59 50q-6 32 -6 78q0 62 17.5 104.5t36.5 42.5q25 0 50.5 -23t25.5 -45q0 -42 -30 -99q1 -36 7.5 -61t14.5 -25q26 0 60 67t34 112q0 30 -9.5 47t-9.5 18q0 11 11 19.5t25 8.5q26 0 54 -19t28 -41q0 -58 -39.5 -129.5t-90.5 -119t-85 -47.5q-53 0 -79 61
q-59 -61 -93 -61q-31 0 -53.5 19t-33.5 50.5t-15.5 61.5t-4.5 62v11q-21 -20 -40 -31q-10 -64 -59.5 -118.5t-106.5 -54.5q-53 0 -97.5 37t-44.5 96q0 80 50 142.5t92 62.5q35 0 60.5 -22t29.5 -42q8 -1 25.5 -11t31.5 -24q51 12 78 63q19 35 35 35q37 0 58.5 -14t21.5 -29
q0 -2 -8.5 -15t-17.5 -42t-9 -68q0 -44 7 -75.5t20 -31.5zM203 208q0 25 9 37q-6 8 -14 8q-37 0 -70.5 -48t-33.5 -98q0 -62 47 -62q28 0 54 35.5t37 76.5q-29 17 -29 51z" />
    <glyph glyph-name="o_w_e" unicode="owe" horiz-adv-x="1145" 
d="M998 -8q-53 0 -89.5 29.5t-43.5 85.5q-42 9 -73 30q-36 -60 -81.5 -102.5t-76.5 -42.5q-53 0 -79 61q-59 -61 -93 -61q-31 0 -53.5 19t-33.5 50.5t-15.5 61.5t-4.5 62v11q-21 -20 -40 -31q-10 -64 -59.5 -118.5t-106.5 -54.5q-53 0 -97.5 37t-44.5 96q0 80 50 142.5
t92 62.5q35 0 60.5 -22t29.5 -42q8 -1 25.5 -11t31.5 -24q51 12 78 63q19 35 35 35q37 0 58.5 -14t21.5 -29q0 -2 -8.5 -15t-17.5 -42t-9 -68q0 -44 7 -75.5t20 -31.5q25 0 59 50q-6 32 -6 78q0 62 17.5 104.5t36.5 42.5q25 0 50.5 -23t25.5 -45q0 -42 -30 -99
q1 -36 7.5 -61t14.5 -25q18 0 41 34.5t39 79.5q-14 32 -14 84q0 26 9.5 49.5t28.5 23.5q26 0 54 -18.5t28 -40.5q0 -43 -23 -97q19 -23 47 -32q10 61 54 116t85 55q44 0 83 -30t39 -63q0 -50 -43.5 -86.5t-130.5 -45.5q15 -52 59 -52q41 0 93.5 43t82.5 103q17 -14 17 -36
q0 -10 -17 -36.5t-43.5 -57t-66.5 -54t-80 -23.5zM203 208q0 25 9 37q-6 8 -14 8q-37 0 -70.5 -48t-33.5 -98q0 -62 47 -62q28 0 54 35.5t37 76.5q-29 17 -29 51zM1032 271q-18 0 -44.5 -39.5t-35.5 -76.5q30 5 51 16.5t30 26.5t12.5 26.5t3.5 22.5q0 24 -17 24z" />
    <glyph glyph-name="o_w_h" unicode="owh" horiz-adv-x="1238" 
d="M949 114l4 -2q117 218 136 218q26 0 58.5 -23t32.5 -41q0 -8 -24 -80.5t-24 -101.5q0 -12 5.5 -21t12.5 -9q23 0 62 42.5t69 102.5q17 -14 17 -36q0 -26 -54 -98.5t-99 -72.5q-40 0 -74.5 23t-34.5 60q0 29 14 72.5t28 72.5l14 28l-5 3q-43 -61 -76.5 -129t-49 -99
t-29.5 -31q-25 0 -49.5 30.5t-24.5 54.5q0 44 32 219q-23 -16 -49 -28q-10 -87 -83.5 -181.5t-123.5 -94.5q-53 0 -79 61q-59 -61 -93 -61q-31 0 -53.5 19t-33.5 50.5t-15.5 61.5t-4.5 62v11q-21 -20 -40 -31q-10 -64 -59.5 -118.5t-106.5 -54.5q-53 0 -97.5 37t-44.5 96
q0 80 50 142.5t92 62.5q35 0 60.5 -22t29.5 -42q8 -1 25.5 -11t31.5 -24q51 12 78 63q19 35 35 35q37 0 58.5 -14t21.5 -29q0 -2 -8.5 -15t-17.5 -42t-9 -68q0 -44 7 -75.5t20 -31.5q25 0 59 50q-6 32 -6 78q0 62 17.5 104.5t36.5 42.5q25 0 50.5 -23t25.5 -45
q0 -42 -30 -99q1 -36 7.5 -61t14.5 -25q26 0 60 67t34 112q-17 7 -31 21.5t-14 22.5q0 19 16.5 33.5t38.5 14.5q37 0 66 -29q41 23 80 62q26 130 47 189q1 2 3 8t3 8t3 7t3.5 7.5t3.5 6t4 5t4.5 3.5t5.5 3t6 1q29 0 62 -28t33 -56q0 -45 -58 -123q-58 -182 -77 -297z
M203 208q0 25 9 37q-6 8 -14 8q-37 0 -70.5 -48t-33.5 -98q0 -62 47 -62q28 0 54 35.5t37 76.5q-29 17 -29 51z" />
    <glyph glyph-name="o_x" unicode="ox" horiz-adv-x="657" 
d="M344 -36q-8 -8 -16 -8q-15 0 -15 13q0 5 10 23q27 47 81 119q-31 50 -46 109q-21 -33 -43 -49q-8 -66 -57.5 -122.5t-108.5 -56.5q-53 0 -97.5 37t-44.5 96q0 80 50 142.5t92 62.5q35 0 60.5 -22t29.5 -42q23 -3 55 -33q47 20 55 76q2 11 5.5 14.5t16.5 3.5
q28 0 55 -14.5t27 -26.5q0 -7 1 -17q5 -42 16 -74q99 122 122 133q4 2 11 2q16 0 41.5 -17.5t25.5 -32.5q0 -3 -3 -5.5t-12 -8t-18 -12.5q-66 -53 -138 -123q19 -34 39 -55.5t31 -21.5q23 0 62.5 43t68.5 102q17 -14 17 -36q0 -15 -22 -54t-65 -78t-87 -39q-49 0 -108 74
q-55 -59 -91 -102zM205 209q0 20 9 35q-9 9 -16 9q-37 0 -70.5 -48t-33.5 -98q0 -62 47 -62q28 0 54 35.5t37 76.5q-27 17 -27 52z" />
    <glyph glyph-name="t_t" unicode="tt" horiz-adv-x="470" 
d="M0 268q-16 0 -16 10q0 20 20 28q22 8 51 14q20 117 47 186q14 38 33 38q26 0 58.5 -23.5t32.5 -41.5q0 -7 -10 -21q-26 -36 -51 -118q56 9 127 18q20 98 40 148q14 38 33 38q26 0 58.5 -23.5t32.5 -41.5q0 -7 -10 -21q-20 -29 -41 -88q30 3 40 3q21 0 36 -23t15 -39
q0 -10 -5.5 -12.5t-29.5 -2.5q-53 0 -78 -1q-26 -104 -26 -199q0 -21 8 -31.5t17 -10.5q23 0 62 42.5t69 102.5q17 -14 17 -36q0 -26 -53.5 -98.5t-99.5 -72.5q-37 0 -73 29t-38 71q-66 -100 -119 -100q-38 0 -74.5 31t-36.5 75q0 80 12 176q-39 -6 -48 -6zM152 54
q20 0 53.5 34t62.5 84q5 69 13 120q-65 -2 -131 -8q-23 -101 -23 -188q0 -21 8 -31.5t17 -10.5z" />
    <glyph glyph-name="t_z" unicode="t&#x7a;" horiz-adv-x="530" 
d="M521 247q0 -17 -47 -67.5t-118 -109.5l2 -3q50 15 111 15q18 0 34 -24.5t16 -48.5q0 -23 -10 -23q-3 0 -12.5 4.5t-18.5 6.5q-40 9 -109 9q-30 0 -54.5 -7t-25.5 -7q-16 0 -32 22t-16 35q0 15 25 33t78 58.5t100 96.5l-3 3q-26 -14 -73.5 -24.5t-86.5 -12.5
q-8 -65 -50.5 -138t-83.5 -73q-38 0 -74.5 31t-36.5 75q0 81 12 175q-40 -5 -48 -5q-16 0 -16 10q0 17 20 28l53 21q18 105 45 179q14 38 33 38q26 0 58.5 -23.5t32.5 -41.5q0 -7 -10 -21q-18 -24 -43 -93q30 8 42 8q21 0 36 -23t15 -39q0 -11 -17 -14q-4 0 -14 -1l-11 -1
l-73 -8q-24 -99 -24 -191q0 -21 8 -31.5t17 -10.5q25 0 58.5 57.5t33.5 132.5q0 2 -0.5 10.5t-0.5 13.5q0 9 7.5 15.5t18.5 6.5q53 0 93.5 8.5t61 17t22.5 8.5q24 0 49.5 -29t25.5 -48z" />
    <glyph glyph-name="v_e" unicode="ve" horiz-adv-x="662" 
d="M515 -8q-53 0 -89.5 29.5t-43.5 85.5q-39 8 -72 29q-35 -56 -79 -100t-60 -44q-136 0 -136 194q0 62 15.5 102.5t33.5 40.5q37 0 62 -17.5t25 -33.5q0 -1 -9 -9t-18 -28t-9 -50q0 -50 8.5 -93.5t22.5 -43.5q19 0 44 44.5t41 97.5q-12 33 -12 78q0 26 9.5 50t28.5 24
q27 0 55.5 -19.5t28.5 -41.5q0 -42 -24 -97q18 -21 46 -31q10 61 54 116t85 55q44 0 83 -30t39 -63q0 -50 -43.5 -86.5t-130.5 -45.5q15 -52 59 -52q41 0 93.5 43t82.5 103q17 -14 17 -36q0 -10 -17 -36.5t-43.5 -57t-66.5 -54t-80 -23.5zM549 271q-18 0 -44.5 -39.5
t-35.5 -76.5q30 5 51 16.5t30 26.5t12.5 26.5t3.5 22.5q0 24 -17 24z" />
    <glyph glyph-name="w_e" unicode="we" horiz-adv-x="823" 
d="M676 -8q-53 0 -89.5 29.5t-43.5 85.5q-42 9 -73 30q-36 -60 -81.5 -102.5t-76.5 -42.5q-53 0 -79 61q-59 -61 -93 -61q-31 0 -53.5 19t-33.5 50.5t-15.5 61.5t-4.5 62q0 60 17.5 102t36.5 42q37 0 58.5 -14t21.5 -29q0 -2 -8.5 -15t-17.5 -42t-9 -68q0 -44 7 -75.5
t20 -31.5q25 0 59 50q-6 32 -6 78q0 62 17.5 104.5t36.5 42.5q25 0 50.5 -23t25.5 -45q0 -42 -30 -99q1 -36 7.5 -61t14.5 -25q18 0 41 34.5t39 79.5q-14 32 -14 84q0 26 9.5 49.5t28.5 23.5q26 0 54 -18.5t28 -40.5q0 -43 -23 -97q19 -23 47 -32q10 61 54 116t85 55
q44 0 83 -30t39 -63q0 -50 -43.5 -86.5t-130.5 -45.5q15 -52 59 -52q41 0 93.5 43t82.5 103q17 -14 17 -36q0 -10 -17 -36.5t-43.5 -57t-66.5 -54t-80 -23.5zM710 271q-18 0 -44.5 -39.5t-35.5 -76.5q30 5 51 16.5t30 26.5t12.5 26.5t3.5 22.5q0 24 -17 24z" />
    <glyph glyph-name="w_h" unicode="wh" horiz-adv-x="916" 
d="M627 114l4 -2q117 218 136 218q26 0 58.5 -23t32.5 -41q0 -8 -24 -80.5t-24 -101.5q0 -12 5.5 -21t12.5 -9q23 0 62 42.5t69 102.5q17 -14 17 -36q0 -26 -54 -98.5t-99 -72.5q-40 0 -74.5 23t-34.5 60q0 29 14 72.5t28 72.5l14 28l-5 3q-43 -61 -76.5 -129t-49 -99
t-29.5 -31q-25 0 -49.5 30.5t-24.5 54.5q0 44 32 219q-23 -16 -49 -28q-10 -87 -83.5 -181.5t-123.5 -94.5q-53 0 -79 61q-59 -61 -93 -61q-31 0 -53.5 19t-33.5 50.5t-15.5 61.5t-4.5 62q0 60 17.5 102t36.5 42q37 0 58.5 -14t21.5 -29q0 -2 -8.5 -15t-17.5 -42t-9 -68
q0 -44 7 -75.5t20 -31.5q25 0 59 50q-6 32 -6 78q0 62 17.5 104.5t36.5 42.5q25 0 50.5 -23t25.5 -45q0 -42 -30 -99q1 -36 7.5 -61t14.5 -25q26 0 60 67t34 112q-17 7 -31 21.5t-14 22.5q0 19 16.5 33.5t38.5 14.5q37 0 66 -29q41 23 80 62q26 130 47 189q1 2 3 8t3 8t3 7
t3.5 7.5t3.5 6t4 5t4.5 3.5t5.5 3t6 1q29 0 62 -28t33 -56q0 -45 -58 -123q-58 -182 -77 -297z" />
    <glyph glyph-name="A_i" unicode="Ai" horiz-adv-x="916" 
d="M774 330q26 0 55 -22.5t29 -40.5q0 -4 -2.5 -10t-6.5 -13.5t-6 -10.5q-33 -64 -33 -149q0 -12 5.5 -21t12.5 -9q23 0 62.5 43t68.5 102q17 -14 17 -36q0 -26 -53.5 -98.5t-99.5 -72.5q-39 0 -71.5 25.5t-32.5 67.5q0 76 19 163q-46 -1 -136 -7q0 -2 0.5 -5.5t0.5 -4.5
q0 -6 1 -19q8 -152 26 -181q20 -33 34 -39q7 -3 7 -11q0 -9 -10 -16t-22 -7q-23 0 -59 13.5t-70.5 48t-34.5 80.5q0 22 -0.5 65.5t-0.5 63.5q-20 -2 -42.5 -5t-48.5 -6t-40 -5q-122 -272 -263 -272q-34 0 -53.5 12.5t-19.5 26.5q3 0 10 2t29 14t46 33t62 65t77 103
q-123 -19 -133 -19q-42 0 -42 26q0 14 213 53q63 109 105 223t49 156q8 37 15 43t23 6q26 0 64 -21.5t49 -45.5q7 -16 11 -37.5t6.5 -54.5t3.5 -59t2 -76t2 -80q138 19 175 19zM829 504q27 0 57 -16t30 -35q0 -33 -32 -60.5t-65 -27.5q-24 0 -45 14t-21 42q0 31 24.5 57
t51.5 26zM455 557q-30 -137 -86 -282q64 11 104 17q-5 216 -18 265z" />
    <glyph glyph-name="A_m" unicode="Am" horiz-adv-x="1218" 
d="M750 330q18 0 49.5 -21.5t31.5 -43.5q0 -10 -4.5 -32t-11.5 -52t-10 -43l5 -1q84 193 111 193q23 0 50 -18t27 -32q0 -8 -11.5 -52.5t-22.5 -84.5l-12 -40l4 -1q96 198 119 198q27 0 56.5 -19.5t29.5 -36.5q0 -8 -25.5 -70.5t-25.5 -91.5q0 -33 15 -33q23 0 65 45.5
t71 104.5q17 -14 17 -36q0 -26 -53.5 -98.5t-99.5 -72.5q-36 0 -63 25.5t-27 62.5q0 26 8.5 59.5t16.5 54.5l8 20l-5 3q-25 -47 -49 -106t-36.5 -89t-20.5 -30q-29 0 -60.5 27.5t-31.5 49.5q0 13 8.5 49t16.5 66l8 29l-3 1q-35 -51 -93 -179q-20 -43 -29 -43q-25 0 -47 27
t-22 57q0 20 16.5 90.5t18.5 85.5q-62 -1 -137 -8q0 -9 1 -13q0 -6 1 -19q8 -152 26 -181q20 -33 34 -39q7 -3 7 -11q0 -9 -10 -16t-22 -7q-23 0 -59 13.5t-70.5 48t-34.5 80.5q0 23 -0.5 67t-0.5 65q-6 -1 -56.5 -7t-74.5 -10q-122 -274 -263 -274q-34 0 -53.5 12.5
t-19.5 26.5q3 0 10 2t29 14.5t46.5 33t62.5 65t77 103.5q-120 -20 -134 -20q-42 0 -42 26q0 14 214 55q63 109 104.5 222t48.5 155q8 37 15 43t23 6q26 0 64 -21.5t49 -45.5q7 -15 11 -36.5t6.5 -54.5t3.5 -58.5t2 -75.5t2 -79q110 16 151 16zM455 557q-30 -136 -86 -280
l104 18q-5 213 -18 262z" />
    <glyph glyph-name="A_n" unicode="An" horiz-adv-x="1078" 
d="M671 -19q0 -9 -10 -16t-22 -7q-23 0 -59 13.5t-70.5 48t-34.5 80.5q0 23 -0.5 66.5t-0.5 64.5q-58 -6 -131 -17q-122 -273 -263 -273q-34 0 -53.5 12.5t-19.5 26.5q4 0 10.5 2t28.5 14t46.5 33t62.5 65t77 103q-124 -19 -134 -19q-42 0 -42 26q0 14 214 55
q63 109 104.5 222t48.5 155q8 37 15 43t23 6q26 0 64 -21.5t49 -45.5q7 -15 11 -36.5t6.5 -54.5t3.5 -58.5t2 -75.5t2 -79q109 16 150 16q18 0 49.5 -21.5t31.5 -43.5q0 -8 -4.5 -28t-11 -48.5t-9.5 -42.5l5 -1q100 185 130 185q26 0 53 -23t27 -41q0 -8 -24 -80.5
t-24 -101.5q0 -12 5.5 -21t12.5 -9q23 0 62 42.5t69 102.5q17 -14 17 -36q0 -26 -54 -98.5t-99 -72.5q-37 0 -73 22.5t-36 51.5q0 23 14 68.5t28 79.5l14 34l-5 3q-43 -61 -76.5 -129t-49 -99t-29.5 -31q-25 0 -47 27t-22 57q0 20 16.5 90.5t18.5 85.5q-61 -1 -136 -8
q0 -9 1 -13q0 -6 1 -19q8 -152 26 -181q20 -33 34 -39q7 -3 7 -11zM455 557q-29 -136 -85 -279l103 17q-5 213 -18 262z" />
    <glyph glyph-name="A_p" unicode="Ap" horiz-adv-x="1055" 
d="M671 -19q0 -9 -10 -16t-22 -7q-23 0 -59 13.5t-70.5 48t-34.5 80.5q0 23 -0.5 66.5t-0.5 64.5q-58 -6 -131 -17q-122 -273 -263 -273q-34 0 -53.5 12.5t-19.5 26.5q4 0 10.5 2t28.5 14t46.5 33t62.5 65t77 103q-124 -19 -134 -19q-42 0 -42 26q0 15 214 54
q63 109 104 222.5t49 155.5q8 37 15 43t23 6q26 0 64 -21.5t49 -45.5q7 -15 11 -36.5t6.5 -54.5t3.5 -58.5t2 -75.5t2 -79q110 16 144 16q17 0 48 -25.5t31 -47.5q0 -14 -3 -38q51 111 117 111q40 0 71.5 -35.5t31.5 -84.5q0 -76 -49.5 -147t-91.5 -71q-47 0 -89 48
q-19 -82 -19 -158q0 -54 3 -90t5.5 -50.5t2.5 -17.5q0 -15 -21 -15q-14 0 -34.5 5.5t-42.5 24t-22 46.5q0 36 28.5 223t31.5 244q-63 -1 -139 -8q0 -9 1 -13q0 -6 1 -19q8 -152 26 -181q20 -33 34 -39q7 -3 7 -11zM932 256q-67 -30 -108 -159q28 -32 56 -32q26 0 46 50.5
t20 96.5q0 44 -14 44zM455 557q-29 -137 -86 -281q5 1 44.5 8t59.5 10q-5 214 -18 263z" />
    <glyph glyph-name="A_t" unicode="At" horiz-adv-x="920" 
d="M671 -19q0 -9 -10 -16t-22 -7q-23 0 -59 13.5t-70.5 48t-34.5 80.5q0 25 -0.5 72t-0.5 69q-14 -2 -59 -9t-69 -11q-123 -280 -266 -280q-34 0 -53.5 12.5t-19.5 26.5q4 0 10.5 1.5t29 14.5t47.5 34t63.5 66.5t77.5 106.5q-136 -25 -137 -25q-42 0 -42 26q0 22 221 68
q60 105 99 214t47 150q8 37 15 43t23 6q26 0 64 -21.5t49 -45.5q6 -15 10.5 -34.5t6.5 -52.5t3 -54t2 -73t2 -74q31 5 82.5 13.5t60.5 9.5q19 96 41 153q14 38 33 38q26 0 58.5 -23.5t32.5 -41.5q0 -7 -10 -21q-18 -26 -42 -89q8 1 18 2l15 1.5t8 0.5q21 0 36 -23t15 -39
q0 -11 -17 -14q-4 0 -14 -1l-11 -1l-73 -8q-24 -99 -24 -191q0 -21 8 -31.5t17 -10.5q23 0 62 42.5t69 102.5q17 -14 17 -36q0 -26 -53.5 -98.5t-99.5 -72.5q-38 0 -74.5 31t-36.5 75q0 81 12 177l-127 -16l2 -28q0 -6 1 -19q8 -152 26 -181q20 -33 34 -39q7 -3 7 -11z
M375 291l97 18q-5 204 -17 248q-28 -127 -80 -266z" />
    <glyph glyph-name="A_t_t" unicode="Att" horiz-adv-x="1160" 
d="M671 -19q0 -9 -10 -16t-22 -7q-23 0 -59 13.5t-70.5 48t-34.5 80.5q0 24 -0.5 70t-0.5 68l-129 -19q-122 -278 -265 -278q-34 0 -53.5 12.5t-19.5 26.5q4 0 10.5 1.5t29 14t47 33.5t63 66t77.5 105q-134 -22 -136 -22q-42 0 -42 26q0 27 219 64q61 107 101 217t47 151
q8 37 15 43t23 6q26 0 64 -21.5t49 -45.5q7 -15 11 -36.5t6.5 -54t3.5 -58t2 -75t2 -78.5l149 18q18 104 44 172q14 38 33 38q26 0 58.5 -23.5t32.5 -41.5q0 -7 -10 -21q-23 -33 -49 -111q103 11 126 13q16 83 39 146q14 38 33 38q26 0 58.5 -23.5t32.5 -41.5q0 -7 -10 -21
q-20 -28 -41 -87q38 2 40 2q21 0 36 -23t15 -39q0 -10 -5.5 -12.5t-29.5 -2.5q-26 0 -78 -2q-26 -102 -26 -198q0 -21 8 -31.5t17 -10.5q23 0 62 42.5t69 102.5q17 -14 17 -36q0 -26 -53.5 -98.5t-99.5 -72.5q-37 0 -73 29t-38 71q-66 -100 -119 -100q-38 0 -74.5 31
t-36.5 75q0 90 12 173q-84 -9 -137 -16l2 -24q1 -16 3 -46t3.5 -49t4 -41.5t6.5 -38.5t10 -25q20 -33 34 -39q7 -3 7 -11zM842 54q20 0 53.5 34t62.5 84q5 69 13 118q-66 -3 -132 -9q-22 -96 -22 -185q0 -21 8 -31.5t17 -10.5zM372 284l101 15q-5 209 -18 258
q-28 -132 -83 -273z" />
    <glyph glyph-name="A_u" unicode="Au" horiz-adv-x="1090" 
d="M774 330q26 0 55.5 -22t29.5 -40q0 -4 -14 -35q-13 -25 -22.5 -68.5t-9.5 -75.5q0 -34 16 -34q32 0 71 47q1 64 25 147q17 59 39 59q25 0 47 -22.5t22 -41.5t-12 -41l-17 -30q-11 -44 -11 -87q0 -39 11 -39q22 0 60.5 45.5t69.5 106.5q16 -14 16 -36q0 -26 -53.5 -98.5
t-98.5 -72.5q-27 0 -52 16.5t-38 42.5q-48 -59 -102 -59q-41 0 -66 27.5t-25 78.5q0 68 20 150l-133 -10q0 -2 0.5 -4t0.5 -3q0 -6 1 -19q8 -152 26 -181q20 -33 34 -39q7 -3 7 -11q0 -9 -10 -16t-22 -7q-23 0 -59 13.5t-70.5 48t-34.5 80.5q0 85 -1 126q-12 -1 -133 -16
q-121 -269 -261 -269q-34 0 -53.5 12.5t-19.5 26.5q3 0 10 2t29 14t46 32.5t61.5 64t76.5 102.5q-122 -17 -132 -17q-42 0 -42 26q0 14 213 53q63 109 105 223t49 156q8 37 15 43t23 6q26 0 64 -21.5t49 -45.5q7 -16 11 -37.5t6.5 -54.5t3.5 -59t2 -76t2 -80q138 19 175 19z
M455 557q-30 -137 -86 -282q64 11 104 17q-5 216 -18 265z" />
    <glyph glyph-name="C_z" unicode="C&#x7a;" horiz-adv-x="1093" 
d="M545 686q105 0 175 -65t70 -132q0 -58 -40 -99.5t-89 -41.5q-36 0 -67 24t-31 66q0 27 11.5 46.5t23 26t17.5 6.5q3 0 21 -12.5t30 -12.5q19 0 32 8.5t13 24.5q0 18 -43 40t-85 22q-109 0 -226 -68.5t-192 -166.5t-75 -180q0 -54 90 -85.5t195 -31.5q140 0 261.5 49
t180.5 124q-26 26 -26 52q0 16 9.5 32t21.5 16q16 0 35 -10.5t23 -23.5q45 3 90.5 16.5t53.5 13.5q18 0 39 -29t21 -48q0 -18 -45 -66.5t-119 -110.5l1 -3q37 15 111 15q18 0 34 -24.5t16 -48.5q0 -23 -10 -23q-3 0 -12.5 4.5t-18.5 6.5q-40 9 -109 9q-30 0 -54.5 -7
t-25.5 -7q-16 0 -32 22t-16 35q0 14 29.5 36.5t85 65.5t99.5 94l-2 3q-74 -42 -140 -42h-17q-16 -38 -59 -83t-108 -89.5t-160 -74t-197 -29.5q-77 0 -141.5 27t-104 70t-61 94t-21.5 102q0 83 38.5 159t98.5 130t132.5 94.5t142.5 60t126 19.5z" />
    <glyph glyph-name="E_x" unicode="Ex" horiz-adv-x="1063" 
d="M726 -42q-8 -8 -16 -8q-15 0 -15 13q0 5 10 23q29 50 98 134q-31 48 -46 101q-15 -29 -55 -73.5t-101.5 -95.5t-149.5 -86.5t-178 -35.5q-114 0 -190 57t-76 155q0 61 64 114t161 91q-59 44 -59 108q0 54 62 109t150.5 88t166.5 33t135.5 -42t57.5 -106
q0 -57 -39.5 -94.5t-82.5 -37.5q-42 0 -71 26.5t-29 49.5q0 14 14 14q50 0 94.5 20.5t44.5 50.5q0 13 -13.5 21.5t-35.5 8.5q-62 0 -149.5 -30.5t-150 -71.5t-62.5 -69q0 -31 46 -52q80 22 131 22q26 0 74.5 -26t48.5 -48q0 -43 -96 -43q-33 0 -71 6q-77 -20 -135.5 -41.5
t-89.5 -38.5t-50 -33.5t-24 -26t-5 -16.5t4.5 -15t18.5 -18t35 -18.5t58.5 -14t84.5 -5.5q92 0 173 25.5t137 65.5t93.5 82t56.5 83q6 14 22 14q18 0 48.5 -12.5t33.5 -28.5q0 -2 1 -13.5t2 -18.5q4 -27 12 -51q101 115 124 125q4 2 11 2q16 0 41.5 -17.5t25.5 -32.5
q0 -3 -3 -5.5t-12 -8t-18 -12.5q-80 -62 -141 -118q19 -36 40 -59t33 -23q23 0 62.5 43t68.5 102q17 -14 17 -36q0 -15 -22 -54t-65 -78t-87 -39q-20 0 -51.5 23t-61.5 60q-69 -67 -110 -117z" />
    <glyph glyph-name="F_i" unicode="Fi" horiz-adv-x="746" 
d="M604 330q26 0 55 -22.5t29 -40.5q0 -4 -2.5 -10t-6.5 -13.5t-6 -10.5q-33 -64 -33 -149q0 -12 5.5 -21t12.5 -9q23 0 62.5 43t68.5 102q17 -14 17 -36q0 -26 -53.5 -98.5t-99.5 -72.5q-40 0 -71.5 22.5t-31.5 63.5q0 65 20 174q-76 -17 -288 -53q-14 -158 -20 -198
q-11 -71 -36 -71q-31 0 -75 24.5t-44 52.5q0 3 7.5 8.5t10.5 19.5q23 102 31 145q-11 -2 -25 -2q-35 0 -60 39.5t-25 61.5q0 4 5 9.5t9 5.5q2 0 19.5 -7.5t36.5 -7.5q38 0 57 1q22 134 29 264l-21 -2q-26 -2 -34 -2q-25 0 -40 6.5t-18.5 12.5t-3.5 11q0 39 47.5 77t92.5 38
q11 0 33 -13.5t35 -34.5q75 16 192 32t155 16q40 0 75 -48.5t35 -79.5q0 -24 -15 -24q-1 0 -14.5 9.5t-31.5 11.5q-74 9 -160 9q-95 0 -224 -10q-10 -184 -16 -267q75 6 149.5 17t116.5 19t49 8zM659 504q27 0 57 -16t30 -35q0 -33 -32 -60.5t-65 -27.5q-24 0 -45 14t-21 42
q0 31 24.5 57t51.5 26z" />
    <glyph glyph-name="F_j" unicode="Fj" horiz-adv-x="702" 
d="M520 -37q19 79 30 167t11 133q-78 -23 -279 -62q-10 -130 -20 -200q-11 -71 -36 -71q-31 0 -75 24.5t-44 52.5q0 3 7.5 8.5t10.5 19.5q23 102 31 145q-11 -2 -25 -2q-35 0 -60 39.5t-25 61.5q0 4 5 9.5t9 5.5q2 0 19.5 -7.5t36.5 -7.5q39 0 57 1q22 134 29 264l-21 -2
q-26 -2 -34 -2q-25 0 -40 6.5t-18.5 12.5t-3.5 11q0 39 47.5 77t92.5 38q11 0 33 -13.5t35 -34.5q75 16 192 32t155 16q40 0 75 -48.5t35 -79.5q0 -24 -15 -24q-1 0 -14.5 9.5t-31.5 11.5q-74 9 -160 9q-95 0 -224 -10q-10 -184 -16 -267q71 6 138 17t104 19t44 8
q21 0 54 -20t33 -48q0 -43 -10 -131.5t-30 -174.5q42 -13 63.5 -37.5t21.5 -41.5q0 -13 -12 -13q-2 0 -28.5 6.5t-66.5 8.5q-67 -204 -185 -204q-64 0 -121.5 53.5t-57.5 93.5q0 33 93 82t191 59zM632 504q28 0 58 -16t30 -35q0 -33 -32.5 -60.5t-65.5 -27.5q-24 0 -45 14
t-21 42q0 31 24.5 57t51.5 26zM403 -236q52 0 91 111q-66 -10 -125 -32t-59 -35q0 -14 30 -29t63 -15z" />
    <glyph glyph-name="F_l" unicode="Fl" horiz-adv-x="810" 
d="M558 323q10 0 10 -12q0 -9 -18 -25t-35 -23q-46 -19 -233 -60q-10 -132 -20 -202q-11 -71 -36 -71q-31 0 -75 24.5t-44 52.5q0 3 7.5 8.5t10.5 19.5q26 117 31 145q-20 -2 -25 -2q-35 0 -60 39.5t-25 61.5q0 4 5 9.5t9 5.5q2 0 19.5 -7.5t36.5 -7.5h57q22 136 29 265
l-21 -2q-26 -2 -34 -2q-25 0 -40 6.5t-18.5 12.5t-3.5 11q0 39 47.5 77t92.5 38q11 0 33 -13.5t35 -34.5q75 16 192 32t155 16q40 0 75 -48.5t35 -79.5q0 -7 -3.5 -21t-9 -31.5t-7.5 -24.5q-47 -171 -47 -283q0 -56 14 -93.5t41 -37.5q22 0 53.5 36.5t61.5 96.5
q17 -14 17 -36q0 -26 -53.5 -98.5t-99.5 -72.5q-55 0 -92 52t-37 117q0 53 14.5 184.5t39.5 213.5q-64 4 -113 4q-95 0 -224 -10q-10 -188 -16 -268q68 6 131 15.5t97 16t41 6.5z" />
    <glyph glyph-name="F_r" unicode="Fr" horiz-adv-x="758" 
d="M670 54q23 0 62 42.5t69 102.5q17 -14 17 -36q0 -15 -22 -54t-65.5 -78t-87.5 -39q-27 0 -52 22t-25 51q0 32 15 81q-52 4 -81 20t-34 60q-59 -19 -185 -36q-11 -135 -19 -189q-11 -71 -36 -71q-31 0 -75 24.5t-44 52.5q0 3 7.5 8.5t10.5 19.5q23 104 31 144
q-10 -1 -25 -1q-35 0 -60 39.5t-25 61.5q0 4 5 9.5t9 5.5q2 0 13 -4t36.5 -9t62.5 -6q24 147 30 269l-21 -2q-26 -2 -34 -2q-25 0 -40 6.5t-18.5 12.5t-3.5 11q0 39 47.5 77t92.5 38q11 0 33 -13.5t35 -34.5q75 16 192 32t155 16q40 0 75 -48.5t35 -79.5q0 -24 -15 -24
q-1 0 -14.5 9.5t-31.5 11.5q-74 9 -160 9q-95 0 -224 -10q-8 -149 -17 -276q100 5 188 20q13 30 33.5 53t31.5 23q19 0 33.5 -22t14.5 -56q0 -19 -45 -46q7 -30 54 -43q10 24 25.5 52.5t25.5 28.5q14 0 43.5 -23.5t29.5 -36.5q0 -25 -29 -51q-36 -74 -36 -108q0 -14 13 -14z
" />
    <glyph glyph-name="F_u" unicode="Fu" horiz-adv-x="867" 
d="M173 280q22 134 29 264l-21 -2q-26 -2 -34 -2q-25 0 -40 6.5t-18.5 12.5t-3.5 11q0 39 47.5 77t92.5 38q11 0 33 -13.5t35 -34.5q75 16 192 32t155 16q40 0 75 -48.5t35 -79.5q0 -24 -15 -24q-1 0 -14.5 9.5t-31.5 11.5q-74 9 -160 9q-95 0 -224 -10q-4 -99 -16 -265
q68 7 129.5 19t95 20.5t40.5 8.5q25 0 52.5 -26t27.5 -45q0 -6 -12 -32q-12 -23 -22 -66t-10 -75q0 -37 16 -37q30 0 71 47q1 64 25 147q17 59 39 59q25 0 47 -22.5t22 -41.5t-12 -41l-17 -30q-11 -44 -11 -87q0 -39 11 -39q22 0 60.5 45.5t69.5 106.5q16 -14 16 -36
q0 -26 -53.5 -98.5t-98.5 -72.5q-27 0 -52 16.5t-38 42.5q-46 -59 -102 -59q-40 0 -65.5 26t-25.5 80q0 88 29 169q-59 -23 -239 -62q-10 -132 -20 -204q-11 -71 -36 -71q-31 0 -75 24.5t-44 52.5q0 3 7.5 8.5t10.5 19.5q26 117 31 145q-22 -2 -25 -2q-35 0 -60 39.5
t-25 61.5q0 4 5 9.5t9 5.5q2 0 19.5 -7.5t36.5 -7.5q39 0 57 1z" />
    <glyph glyph-name="G_i" unicode="Gi" horiz-adv-x="1148" 
d="M653 685q88 0 161.5 -62.5t73.5 -112.5q0 -45 -45.5 -86.5t-101.5 -41.5q-45 0 -72 25.5t-27 50.5q0 20 15 20q66 0 93.5 22.5t27.5 46.5q0 16 -15.5 25t-37.5 9q-98 0 -246.5 -68.5t-262 -166.5t-113.5 -172q0 -139 204 -139q86 0 164.5 22.5t130 56t83.5 62.5t44 51
q-88 -8 -183.5 -20.5t-150.5 -20.5t-65 -8q-42 0 -42 26q0 18 316.5 72t401.5 54q26 0 55 -22.5t29 -40.5q0 -4 -2.5 -10t-6.5 -13.5t-6 -10.5q-33 -64 -33 -149q0 -12 5.5 -21t12.5 -9q23 0 62.5 43t68.5 102q17 -14 17 -36q0 -26 -53.5 -98.5t-99.5 -72.5
q-39 0 -71.5 25.5t-32.5 67.5q0 71 19 158q-54 -2 -83 -4q-4 -42 -45 -95t-106 -101t-159.5 -80.5t-192.5 -32.5q-49 0 -95.5 6t-99.5 23.5t-92 46t-64.5 78.5t-25.5 115q0 60 35 123t91 115t126.5 99t142.5 79t138 51t113 19zM1061 504q27 0 57 -16t30 -35q0 -33 -32 -60.5
t-65 -27.5q-24 0 -45 14t-21 42q0 31 24.5 57t51.5 26z" />
    <glyph glyph-name="H_i" unicode="Hi" horiz-adv-x="933" 
d="M777 635q0 -9 -4.5 -13t-20.5 -17t-35 -36q-58 -72 -93 -257q115 18 167 18q26 0 55 -22.5t29 -40.5q0 -4 -2.5 -10t-6.5 -13.5t-6 -10.5q-33 -64 -33 -149q0 -12 5.5 -21t12.5 -9q23 0 62.5 43t68.5 102q17 -14 17 -36q0 -26 -53.5 -98.5t-99.5 -72.5q-40 0 -71.5 22.5
t-31.5 63.5q0 87 19 168q-50 -1 -143 -10q-9 -70 -9 -151q0 -45 3 -75.5t6 -43.5t3 -15q0 -25 -35 -25q-19 0 -46.5 24.5t-27.5 41.5q-81 130 -241 189q-1 -25 -1 -80q0 -31 1.5 -55.5t3.5 -38.5t3.5 -22.5t3 -13t1.5 -5.5q0 -15 -27 -15q-35 0 -69 26t-34 52q0 4 0.5 22.5
t1 53.5t0.5 64q-52 -6 -72 -6q-71 0 -71 33q0 28 40.5 43t104.5 15q9 362 16 390q6 25 12.5 33t22.5 8q39 0 77.5 -31t38.5 -57q0 -6 -10.5 -39t-23 -114.5t-17.5 -201.5q105 26 250 52q17 201 55 302t88 101q33 0 61.5 -12.5t41.5 -26.5t13 -23zM846 504q27 0 57 -16
t30 -35q0 -33 -32 -60.5t-65 -27.5q-24 0 -45 14t-21 42q0 31 24.5 57t51.5 26zM508 97q2 87 5 128q-52 -6 -143 -19q67 -38 138 -109z" />
    <glyph glyph-name="J_e" unicode="Je" horiz-adv-x="819" 
d="M652 596l-133 -21q31 -29 31 -58q0 -6 -1 -10q-41 -209 -93 -358l83 6q8 62 53 118.5t87 56.5q44 0 83 -30t39 -63q0 -47 -49.5 -80.5t-126.5 -43.5q5 -25 21 -42.5t40 -17.5q41 0 93.5 43t82.5 103q17 -14 17 -36q0 -10 -17 -36.5t-43.5 -57t-66.5 -54t-80 -23.5
q-119 0 -133 113q-46 -6 -106 -17q-123 -311 -295 -311q-67 0 -114.5 32.5t-47.5 78.5q0 64 28.5 110t81.5 73.5t109.5 42t131.5 23.5q54 176 93 420q-181 -37 -260 -89q-13 -9 -17 -19q-1 -3 -1 -9t-1.5 -9t-5.5 -3q-32 0 -55 47.5t-23 114.5q0 39 210.5 66t321.5 27
q45 0 79 -14t47.5 -29t13.5 -25q0 -2 -1 -3.5t-3 -3t-4.5 -2.5t-6.5 -1.5t-8.5 -1.5t-10.5 -1.5t-12 -1.5t-14.5 -2t-16.5 -2zM116 -168q98 0 181 220q-206 -72 -206 -190q0 -30 25 -30zM706 271q-17 0 -41 -34.5t-36 -70.5q45 8 69.5 32t24.5 49q0 24 -17 24z" />
    <glyph glyph-name="J_i" unicode="Ji" horiz-adv-x="772" 
d="M652 596l-133 -21q31 -29 31 -58q0 -6 -1 -10q-19 -98 -49 -214q98 37 130 37q26 0 53.5 -23t27.5 -41q0 -7 -12 -33q-33 -64 -33 -149q0 -12 5.5 -21t12.5 -9q23 0 62.5 43t68.5 102q17 -14 17 -36q0 -26 -53.5 -98.5t-99.5 -72.5q-40 0 -71.5 22.5t-31.5 63.5
q0 102 24 191q-52 -22 -123 -57q-66 -213 -151.5 -324t-187.5 -111q-67 0 -114.5 32.5t-47.5 78.5q0 58 59 124t139 118t179 100q37 143 67 327q-181 -37 -260 -89q-13 -9 -17 -19q-1 -3 -1 -9t-1.5 -9t-5.5 -3q-32 0 -55 47.5t-23 114.5q0 39 210.5 66t321.5 27
q45 0 79 -14t47.5 -29t13.5 -25q0 -2 -1 -3.5t-3 -3t-4.5 -2.5t-6.5 -1.5t-8.5 -1.5t-10.5 -1.5t-12 -1.5t-14.5 -2t-16.5 -2zM116 -168q113 0 207 292q-232 -146 -232 -262q0 -30 25 -30zM685 504q27 0 57 -16t30 -35q0 -33 -32 -60.5t-65 -27.5q-24 0 -45 14t-21 42
q0 31 24.5 57t51.5 26z" />
    <glyph glyph-name="J_u" unicode="Ju" horiz-adv-x="955" 
d="M652 596l-133 -21q31 -29 31 -58q0 -6 -1 -10q-19 -98 -49 -214q98 37 130 37q26 0 55 -22t29 -40q0 -4 -14 -35q-12 -24 -22 -65.5t-10 -78.5q0 -34 16 -34q30 0 71 47q1 64 25 147q17 59 39 59q25 0 47 -22.5t22 -41.5t-12 -41q-9 -18 -19 -33q-9 -36 -9 -73
q0 -43 20 -43q22 0 61.5 43t69.5 102q16 -14 16 -36q0 -26 -53.5 -98.5t-98.5 -72.5q-29 0 -57.5 16t-41.5 43q-50 -59 -103 -59q-40 0 -65.5 26t-25.5 80q0 78 19 149q-42 -13 -115 -45q-134 -425 -336 -425q-67 0 -114.5 32.5t-47.5 78.5q0 45 34.5 94.5t93.5 95t124 84.5
t139 74q37 158 50 320q-180 -38 -257 -88q-13 -9 -17 -19q-1 -3 -1 -9t-1.5 -9t-5.5 -3q-32 0 -55 47.5t-23 114.5q0 39 210.5 66t321.5 27q45 0 79 -14t47.5 -29t13.5 -25q0 -2 -1 -3.5t-3 -3t-4.5 -2.5t-6.5 -1.5t-8.5 -1.5t-10.5 -1.5t-12 -1.5t-14.5 -2t-16.5 -2z
M116 -168q69 0 125 82.5t97 217.5q-247 -145 -247 -270q0 -30 25 -30z" />
    <glyph glyph-name="T_h" unicode="Th" horiz-adv-x="872" 
d="M492 77q0 37 35.5 226t63.5 272q-70 -5 -154 -23q29 -26 29 -43q0 -7 -10 -39q-67 -213 -86 -514q-1 -13 -4.5 -18.5t-14.5 -5.5q-17 0 -40.5 30.5t-23.5 73.5q0 184 38 431q5 39 9 60q-108 -30 -183 -59q-11 -3 -17 -19q-1 -3 -1 -9t-1.5 -9t-5.5 -3q-32 0 -55 47.5
t-23 114.5q0 28 117 48t229 27.5t172 7.5q38 0 98 -32t60 -68q0 -3 -3 -8t-10 -18.5t-14 -33.5q-33 -89 -68 -210t-46 -189l4 -2q117 218 136 218q26 0 58.5 -23t32.5 -41q0 -8 -24 -80.5t-24 -101.5q0 -12 5.5 -21t12.5 -9q23 0 62 42.5t69 102.5q17 -14 17 -36
q0 -26 -54 -98.5t-99 -72.5q-40 0 -74.5 23t-34.5 60q0 29 14 72.5t28 72.5l14 28l-5 3q-43 -61 -76.5 -129t-49 -99t-29.5 -31q-25 0 -49.5 30.5t-24.5 54.5z" />
    <glyph glyph-name=".notdef" horiz-adv-x="726" 
d="M714 349q0 -59 -27.5 -122t-75 -117.5t-120.5 -89.5t-156 -35q-78 0 -138 25t-94 66.5t-51 89t-17 97.5q0 87 36 163.5t89.5 124.5t111.5 75.5t106 27.5q26 0 63 -30q35 -1 71 -10t73 -30t65 -51.5t46 -78t18 -105.5zM418 562l-2 8q-122 -22 -206 -121t-84 -217
q0 -96 57.5 -146t131.5 -50q69 0 128.5 32.5t96.5 84t57.5 111t20.5 115.5q0 50 -15.5 88.5t-39 59t-46 30.5t-42.5 10q-37 0 -57 -5zM498 489q24 0 41 -14.5t17 -34.5q0 -29 -24.5 -54.5t-52.5 -25.5q-19 0 -36 14t-17 38q0 32 21 54.5t51 22.5zM349 482q23 0 37 -14
t14 -35q0 -30 -20 -53t-47 -23q-21 0 -38.5 12t-17.5 35q0 32 21 55t51 23zM192 164q-20 0 -33.5 8.5t-13.5 21.5q0 39 52.5 70t142.5 31q80 0 141 -32q68 -37 68 -58q0 -16 -15 -16q-5 0 -11 3q-84 38 -156 38q-52 0 -89 -10.5t-50.5 -22.5t-22.5 -22.5t-13 -10.5z" />
    <glyph glyph-name=".null" horiz-adv-x="0" 
 />
    <glyph glyph-name="nonmarkingreturn" horiz-adv-x="333" 
 />
    <glyph glyph-name="NULL" horiz-adv-x="0" 
 />
    <glyph glyph-name="NULL" horiz-adv-x="0" 
 />
    <glyph glyph-name="CR" unicode="&#xd;" horiz-adv-x="224" 
 />
    <glyph glyph-name="space" unicode=" " horiz-adv-x="224" 
 />
    <glyph glyph-name="exclam" unicode="!" horiz-adv-x="232" 
d="M143 110q21 0 35 -13t14 -34q0 -28 -22.5 -49.5t-50.5 -21.5q-21 0 -39 12t-18 36q0 27 25 48.5t56 21.5zM164 650q24 0 64 -18.5t40 -41.5q0 -4 -6.5 -13t-10.5 -20q-69 -175 -93 -383q-1 -10 -3 -13.5t-10 -3.5q-14 0 -30 14.5t-16 43.5q0 176 39 387q9 48 26 48z" />
    <glyph glyph-name="quotedbl" unicode="&#x22;" horiz-adv-x="285" 
d="M111 591q21 0 44 -14t23 -33q0 -28 -34.5 -97.5t-51.5 -69.5q-8 0 -23.5 8.5t-15.5 15.5q0 5 3.5 20.5t12 55t16.5 87.5q4 19 8 23t18 4zM242 591q21 0 44 -14t23 -33q0 -28 -34.5 -97.5t-51.5 -69.5q-8 0 -23.5 8.5t-15.5 15.5q0 5 3.5 20.5t12 55t16.5 87.5q4 19 8 23
t18 4z" />
    <glyph glyph-name="numbersign" unicode="#" horiz-adv-x="613" 
d="M46 438q0 36 160 37q11 81 15 102q6 33 16.5 50t20.5 17q29 0 49 -9.5t20 -22.5q0 -2 -3 -7t-8 -18t-10 -29q-14 -46 -22 -85q67 -2 98 -4q10 64 21 108q16 67 37 67q29 0 49 -9.5t20 -22.5q0 -2 -3 -7t-8 -18t-10 -29q-10 -30 -26 -96q158 -17 158 -37q0 -6 -8 -8
t-34 -3q-12 -1 -19 -1q-74 -4 -109 -7q-14 -60 -23 -117q9 1 24 1q41 0 94.5 -17.5t53.5 -28.5q0 -20 -49 -22q-77 -5 -136 -13q-17 -114 -21 -211q-1 -21 -10 -21q-4 0 -8 1.5t-10.5 8t-11.5 17.5t-8.5 32t-3.5 50q0 47 6 113q-45 -7 -105 -20q-14 -123 -20 -181
q-4 -20 -10 -21q-6 0 -17 6.5t-22.5 24.5t-11.5 43q0 12 9 111q-57 -16 -78 -25q-8 -3 -14.5 -8t-10.5 -5q-22 0 -37.5 36.5t-15.5 64.5q0 22 61 30l107 11q8 74 13 111q-55 -12 -81 -23q-8 -3 -15 -9t-10 -6q-23 0 -33 32t-10 67zM270 389q-5 -32 -16 -115l102 10
q2 21 15 116q-68 -6 -101 -11z" />
    <glyph glyph-name="dollar" unicode="$" horiz-adv-x="540" 
d="M332 706q34 0 58 -11t24 -27q0 -2 -3 -8.5t-8 -19t-8 -27.5q-2 -6 -2 -9q51 -18 83 -61t32 -105q0 -43 -45 -43q-25 0 -50 13t-25 25q0 2 12.5 25.5t12.5 47.5q0 23 -34 37q-25 -119 -40 -212q37 -16 58.5 -27t48.5 -29.5t40 -41t13 -49.5q0 -59 -55 -105.5t-148 -57.5
q-3 -27 -7 -81q-1 -8 -1 -11t-1 -7.5t-3.5 -5.5t-6.5 -1q-5 0 -14 5t-20 14.5t-18.5 27.5t-7.5 41q0 10 1 16q-74 8 -124.5 47.5t-50.5 91.5q0 32 26.5 56t59.5 24q46 0 46 -24q0 -2 -17 -14.5t-17 -23.5q0 -23 27.5 -37t60.5 -17q3 29 11.5 93t11.5 91q-33 16 -53.5 28
t-44 30.5t-35 40.5t-11.5 47q0 60 52 106t130 56q5 46 14 69t28 23zM390 198q0 35 -61 70q-3 -18 -21 -143q82 11 82 73zM214 423q0 -29 46 -56l21 163q-29 -18 -48 -46.5t-19 -60.5z" />
    <glyph glyph-name="percent" unicode="%" horiz-adv-x="730" 
d="M220 636q36 0 66.5 -17t39.5 -44q33 -15 44 -53q42 -8 70 -8q64 0 117 20l5 4q1 1 19.5 18t34 27t26.5 10q17 0 28.5 -12.5t11.5 -28.5q0 -18 -23 -33t-51 -22q-66 -50 -193 -180t-223 -259q-10 -13 -10 -27q0 -5 3 -10.5t3 -7.5q0 -7 -13 -7q-25 0 -54.5 22.5
t-29.5 50.5q0 22 49 73q126 134 336 314q-30 -5 -48 -5q-30 0 -55 3q-10 -59 -63.5 -107t-105.5 -48q-53 0 -97.5 37t-44.5 96q0 79 57 136.5t101 57.5zM513 319q36 0 66.5 -17t39.5 -44q49 -23 49 -91t-51 -121.5t-125 -53.5q-57 0 -93 36.5t-36 97.5q0 79 53 136t97 57z
M585 187q0 13 -1 20q-6 -1 -17 -1q-22 0 -22 6q0 1 2.5 7.5t2.5 14.5l-4 19q-40 0 -68.5 -44t-28.5 -99q0 -28 12.5 -46.5t36.5 -18.5q37 0 62 43t25 99zM205 362q25 0 55.5 40t36.5 78q-69 26 -69 67q0 8 2 18q-34 -13 -58 -55t-24 -88q0 -26 16 -43t41 -17z" />
    <glyph glyph-name="ampersand" unicode="&#x26;" horiz-adv-x="738" 
d="M743 5q0 -43 -84 -43q-39 0 -123 43q-130 -75 -264 -75q-110 0 -187.5 62t-77.5 150q0 44 45.5 85t127.5 86q-46 77 -46 142q0 54 54 109t131 88t145 33t118 -42t50 -106q0 -34 -19 -68.5t-45 -60.5t-71.5 -57t-79 -50t-86.5 -47q64 -67 163 -129q85 71 125 158
q23 -10 49.5 -39t26.5 -56q0 -55 -85 -129q108 -54 133 -54zM247 425q0 -32 15 -70q158 80 201 109q84 58 85 107q0 13 -11.5 21.5t-30.5 8.5q-82 0 -170.5 -63t-88.5 -113zM212 14q105 0 210 60q-94 65 -165 140q-67 -37 -102.5 -65.5t-35.5 -54.5q0 -33 27.5 -56.5
t65.5 -23.5z" />
    <glyph glyph-name="quotesingle" unicode="'" horiz-adv-x="154" 
d="M111 591q21 0 44 -14t23 -33q0 -28 -34.5 -97.5t-51.5 -69.5q-8 0 -23.5 8.5t-15.5 15.5q0 5 3.5 20.5t12 55t16.5 87.5q4 19 8 23t18 4z" />
    <glyph glyph-name="parenleft" unicode="(" horiz-adv-x="342" 
d="M252 -92q3 -2 3 -5q0 -9 -8 -18t-21 -9q-53 0 -94 85t-41 203q0 105 32.5 206.5t76.5 167t83.5 105.5t58.5 40q15 0 34 -21.5t30 -42.5l12 -21q-44 -36 -81.5 -80.5t-74 -105.5t-58 -139.5t-21.5 -164.5q0 -143 50 -188q10 -8 19 -12z" />
    <glyph glyph-name="parenright" unicode=")" horiz-adv-x="353" 
d="M159 650q-3 2 -3 5q0 9 8 18t21 9q53 0 94 -85t41 -203q0 -105 -32.5 -206.5t-76.5 -167t-83.5 -105.5t-58.5 -40q-15 0 -34 21.5t-31 42.5l-11 21q44 36 81.5 80.5t74 105.5t58 139.5t21.5 164.5q0 143 -50 188q-10 8 -19 12z" />
    <glyph glyph-name="asterisk" unicode="*" horiz-adv-x="372" 
d="M59 530q0 14 18 14q7 0 24.5 -2.5t42.5 -6t36 -4.5q-35 72 -35 90q0 12 13 18.5t26 7.5l13 1q3 -16 7.5 -31t10 -32.5t8.5 -28.5q23 34 51 59t37 25t33 -20.5t24 -36.5l-4 -1q-5 -1 -12.5 -4t-17 -9t-21 -17.5t-21.5 -27.5q53 -5 55 -5q27 0 36 4q18 0 34 -24.5t16 -41.5
q0 -22 -44 -22q-52 0 -117 19q20 -39 40 -68t30 -38l9 -9q0 -7 -7.5 -12t-13.5 -5q-15 0 -29.5 12.5t-25 27.5t-30.5 47q-7 12 -11 18q-30 -69 -34 -114q0 -7 -11 -7q-24 0 -43.5 21.5t-19.5 49.5q0 42 37 101q-55 12 -81 20q-23 8 -23 32z" />
    <glyph glyph-name="plus" unicode="+" horiz-adv-x="451" 
d="M216 446q18 0 42.5 -17.5t24.5 -30.5q0 -2 -3.5 -8t-5.5 -16q-7 -34 -11 -62q66 8 90 8q22 0 33.5 -32.5t11.5 -55.5q0 -8 -5.5 -10.5t-20.5 -2.5q-54 0 -121 -3q-6 -68 -6 -118q0 -17 -13 -17q-11 0 -30 28t-19 59v46q-63 -3 -83 -3q-11 0 -22.5 25t-11.5 39q0 6 5 8
q20 8 114 20q1 58 6 95q7 48 25 48z" />
    <glyph glyph-name="comma" unicode="," horiz-adv-x="207" 
d="M99 110q20 0 44 -18t24 -37q0 -41 -43 -88.5t-84 -47.5q-6 0 -10.5 6t-4.5 14q0 4 5.5 14t16 34.5t19.5 58.5q4 15 6 30t3 21t6 9.5t18 3.5z" />
    <glyph glyph-name="hyphen" unicode="-" horiz-adv-x="397" 
d="M100 136q-15 0 -15 10q0 18 22 27q26 10 105.5 29.5t106.5 19.5q23 0 36.5 -23.5t13.5 -41.5q0 -8 -5.5 -10.5t-20.5 -2.5q-46 0 -143 -4t-100 -4z" />
    <glyph glyph-name="period" unicode="." horiz-adv-x="218" 
d="M129 110q21 0 35 -13t14 -34q0 -28 -22.5 -49.5t-50.5 -21.5q-21 0 -39 12t-18 36q0 27 25 48.5t56 21.5z" />
    <glyph glyph-name="slash" unicode="/" horiz-adv-x="357" 
d="M387 656q24 0 51 -25t27 -49q0 -13 -3 -15.5t-11.5 -5t-16.5 -12.5q-65 -79 -170.5 -234t-182.5 -313q-9 -17 -17 -17q-11 0 -18.5 17t-7.5 41q0 21 10 41q43 90 135.5 266.5t147.5 257.5q34 48 56 48z" />
    <glyph glyph-name="zero" unicode="0" horiz-adv-x="590" 
d="M595 342q0 -47 -14 -97t-41.5 -98t-64.5 -86t-87 -61t-105 -23q-61 0 -110 25.5t-78.5 66.5t-44.5 89t-15 98q0 87 29.5 164t73.5 125t91.5 75.5t87.5 27.5q18 0 46 -24q1 0 4 0.5t4 0.5q29 0 58.5 -9.5t60 -31t53.5 -53.5t37.5 -81t14.5 -108zM474 376q0 81 -23 128.5
t-53 60.5q-4 -4 -10 -4q-38 -5 -77.5 -31t-73.5 -70t-56 -112t-22 -147q0 -68 29.5 -115.5t71.5 -47.5q90 0 152 102.5t62 235.5z" />
    <glyph glyph-name="one" unicode="1" horiz-adv-x="462" 
d="M55 49q0 16 41 20q45 4 125 6q0 72 21 310q-44 -56 -97 -56q-27 0 -43 27.5t-16 63.5q0 6 12 10.5t44.5 24t69.5 55.5q27 26 48 57l4 25q8 56 30 56q28 0 67.5 -21t39.5 -45q0 -6 -9.5 -26.5t-16.5 -29.5q-1 -4 -12 -48.5t-18.5 -78t-17.5 -88t-16 -115t-8 -122.5
q85 -2 115 -6q26 -4 40.5 -14t14.5 -19q0 -13 -16 -13q-60 0 -172 -18t-155 -35q-5 -2 -9.5 -5.5t-6.5 -3.5q-16 0 -37.5 35.5t-21.5 53.5z" />
    <glyph glyph-name="two" unicode="2" horiz-adv-x="566" 
d="M552 451q0 -55 -79 -153.5t-187 -195.5v-5q131 15 190 15q19 0 35.5 -40t16.5 -72q0 -8 -6.5 -13.5t-15.5 -5.5q-3 0 -40 6.5t-96 12.5t-115 6q-53 0 -91 -5q-71 -42 -112 -42q-12 0 -21.5 26t-9.5 58q0 15 83 33q60 35 122.5 79t125.5 97.5t102.5 110.5t39.5 103
q0 65 -99 65q-14 0 -37.5 -4.5t-60.5 -16.5t-72.5 -42t-55.5 -72q-3 -6 -4 -13t-2 -9.5t-5 -2.5q-16 0 -36 34.5t-20 68.5q0 67 77.5 116t158.5 49q107 0 160.5 -48.5t53.5 -139.5z" />
    <glyph glyph-name="three" unicode="3" horiz-adv-x="548" 
d="M146 447q0 -1 0.5 -3.5t0.5 -3.5q0 -6 -11 -6q-18 0 -40.5 26t-22.5 56q0 51 80.5 87.5t194.5 36.5q80 0 140 -44t60 -121q0 -35 -15.5 -65.5t-42 -51t-51.5 -34t-54 -23.5q113 -35 113 -115q0 -88 -80.5 -149.5t-206.5 -61.5q-91 0 -133.5 34.5t-42.5 84.5q0 18 8.5 33
t16.5 15l18 -11q18 -11 55 -21.5t86 -10.5q92 0 152 29t60 72q0 26 -35.5 43t-94.5 17q-8 0 -38.5 -6t-43.5 -6q-17 0 -32.5 32t-15.5 50q0 12 7 15t24 3q24 0 66 9t89.5 26t81.5 47t34 65q0 57 -116 57q-53 0 -132 -33t-79 -72z" />
    <glyph glyph-name="four" unicode="4" horiz-adv-x="533" 
d="M25 223q0 3 1 5.5t3 4.5t7.5 6t12.5 9.5t19.5 16t27 23.5t37 34t47.5 46q126 126 187 245q8 35 26 35q28 0 67.5 -21t39.5 -45q0 -7 -34 -54q-34 -147 -49 -274q47 -1 75 -5q31 -5 48.5 -17t17.5 -23q0 -15 -19 -15q-42 0 -129 -10q-8 -88 -8 -171q0 -12 -3 -17t-14 -5
q-27 0 -46 17t-19 42q0 32 6 122q-158 -23 -212 -44q-6 -3 -11.5 -7t-7.5 -4q-19 0 -44.5 42.5t-25.5 63.5zM331 257q6 77 14 171q-86 -113 -157 -174q52 3 101 3h42z" />
    <glyph glyph-name="five" unicode="5" horiz-adv-x="553" 
d="M300 302q-39 0 -78.5 -11.5t-41.5 -11.5q-26 0 -49 26.5t-23 41.5q0 10 27.5 103.5t32.5 102.5q4 7 8 11q-16 16 -16 24q0 25 97 43.5t219 18.5q20 0 47.5 -43t27.5 -73q0 -13 -6 -13q-5 0 -16.5 3.5t-39.5 7t-75 3.5q-85 0 -154 -12q-29 -62 -51 -154q75 24 125 24
q89 0 141 -42t52 -147q0 -90 -69 -155.5t-183 -65.5q-106 0 -167.5 50t-61.5 126q0 25 8.5 42t21.5 17q1 0 5.5 -11t15.5 -27t28.5 -32.5t52.5 -27.5t81 -11q84 0 143.5 26.5t59.5 64.5q0 42 -47.5 72t-114.5 30z" />
    <glyph glyph-name="six" unicode="6" horiz-adv-x="548" 
d="M55 216q0 89 33 171.5t82 137t103 87.5t99 33q50 0 95.5 -28t45.5 -53q0 -3 -1.5 -4t-6 -1.5l-9 -1t-12 -0.5t-14.5 -1q-89 -11 -174.5 -78.5t-122.5 -156.5l5 -2q33 47 82 83t101 36q80 0 127 -66.5t47 -152.5q0 -98 -63.5 -171t-164.5 -73q-104 0 -178 70.5t-74 170.5z
M357 366q-42 0 -100.5 -52.5t-86.5 -133.5q4 -55 30.5 -92t60.5 -37q65 0 110 58t45 147q0 54 -16.5 82t-42.5 28z" />
    <glyph glyph-name="seven" unicode="7" horiz-adv-x="493" 
d="M72 67q0 41 128.5 208t253.5 263l-1 5q-112 -16 -190.5 -35t-107 -29.5t-32.5 -10.5q-18 0 -47.5 47.5t-29.5 76.5q0 28 148.5 43t265.5 15q33 0 48 -11q19 -15 36 -40t17 -39q0 -13 -17 -27q-135 -108 -237.5 -265.5t-102.5 -262.5q0 -3 2.5 -13t2.5 -13q0 -10 -15 -10
q-31 0 -76.5 30.5t-45.5 67.5z" />
    <glyph glyph-name="eight" unicode="8" horiz-adv-x="540" 
d="M28 146q0 65 36 109t118 86q-92 54 -92 125q0 75 70 128.5t170 53.5q76 0 139.5 -52.5t63.5 -117.5q0 -69 -158 -159q69 -30 108.5 -64.5t39.5 -84.5q0 -74 -77 -129t-202 -55q-91 0 -153.5 48t-62.5 112zM387 193q0 26 -22.5 46.5t-66.5 43.5q-38 -21 -60 -35t-50 -35.5
t-41 -43t-13 -43.5q0 -29 26 -49t57 -20q62 0 116 39t54 97zM207 434q0 -33 51 -61q80 43 118.5 79t38.5 77q0 17 -12.5 32t-38.5 15q-48 0 -102.5 -44t-54.5 -98z" />
    <glyph glyph-name="nine" unicode="9" horiz-adv-x="520" 
d="M518 400q0 -91 -38.5 -171t-95.5 -129.5t-116.5 -78t-106.5 -28.5q-38 0 -68 37.5t-30 63.5q0 10 7 10q3 0 11.5 -2t15.5 -2q79 0 146.5 38.5t111.5 105.5q-51 -34 -90 -34q-97 0 -150 53t-53 145q0 96 66 166.5t166 70.5q97 0 160.5 -74t63.5 -171zM284 279q75 0 118 74
q10 45 10 84q0 55 -26 94t-63 39q-54 0 -96.5 -55.5t-42.5 -129.5q0 -53 29 -79.5t71 -26.5z" />
    <glyph glyph-name="colon" unicode=":" horiz-adv-x="218" 
d="M129 110q21 0 35 -13t14 -34q0 -28 -22.5 -49.5t-50.5 -21.5q-21 0 -39 12t-18 36q0 27 25 48.5t56 21.5zM150 339q31 0 51.5 -15t20.5 -38q0 -34 -25 -60t-57 -26q-23 0 -42.5 16t-19.5 44q0 31 22.5 55t49.5 24z" />
    <glyph glyph-name="semicolon" unicode=";" horiz-adv-x="207" 
d="M164 339q31 0 51.5 -15t20.5 -38q0 -34 -25 -60t-57 -26q-23 0 -42.5 16t-19.5 44q0 31 22.5 55t49.5 24zM99 110q20 0 44 -18t24 -37q0 -41 -43 -88.5t-84 -47.5q-6 0 -10.5 6t-4.5 14q0 4 5.5 14t16 34.5t19.5 58.5q4 15 6 30t3 21t6 9.5t18 3.5z" />
    <glyph glyph-name="less" unicode="&#x3c;" horiz-adv-x="451" 
d="M95 215q-11 2 -23.5 24t-12.5 35q0 5 2 7q48 46 165 95t152 49q22 0 33.5 -32.5t11.5 -55.5q0 -9 -10 -9q-2 0 -8 0.5t-10 0.5q-81 0 -228 -69q124 -31 167 -54q22 -13 43 -38t21 -39t-17 -14q-1 0 -35.5 17.5t-103.5 42.5t-147 40z" />
    <glyph glyph-name="equal" unicode="=" horiz-adv-x="451" 
d="M100 148q-11 0 -22.5 19.5t-11.5 32.5q0 6 5 8q21 8 135 22.5t147 14.5q22 0 33.5 -32.5t11.5 -55.5q0 -14 -17 -14l-19 2q-20 2 -59.5 4t-89.5 2q-35 0 -74 -1zM119 297q-11 0 -20.5 16t-9.5 29q0 9 6 13q22 14 137 42t146 28q22 0 33.5 -32.5t11.5 -55.5q0 -8 -5 -10
t-21 -3q-73 -4 -138 -11t-99 -11.5t-41 -4.5z" />
    <glyph glyph-name="greater" unicode="&#x3e;" horiz-adv-x="451" 
d="M373 309q11 -5 22.5 -23t11.5 -29q0 -15 -12 -18q-3 -1 -22 -7t-25.5 -8.5t-25.5 -9t-29.5 -10.5t-29 -11.5t-33 -14.5t-33 -16t-37 -19.5t-37.5 -21.5q-20 -13 -21 -13q-14 0 -29.5 19t-15.5 43q0 17 28 34q88 50 220 80l-170 54q-23 6 -38 28t-15 38q0 14 17 14
q6 0 45 -12.5t105 -39.5t124 -57z" />
    <glyph glyph-name="question" unicode="?" horiz-adv-x="355" 
d="M143 110q21 0 35 -13t14 -34q0 -28 -22.5 -49.5t-50.5 -21.5q-21 0 -39 12t-18 36q0 27 25 48.5t56 21.5zM62 568q0 35 44 58t123 23q77 0 129.5 -54.5t52.5 -148.5q0 -41 -39.5 -88t-87.5 -80.5t-87.5 -64.5t-39.5 -45q0 -6 1.5 -10.5t1.5 -5.5q0 -5 -8 -5
q-17 0 -30.5 27t-13.5 50q0 24 26 50t63 49.5t73.5 47.5t62.5 52.5t26 55.5q0 32 -30.5 48t-75.5 16q-44 0 -78 -13.5t-49 -28.5q-5 -5 -7 -12t-3 -11t-4 -4q-13 0 -31.5 34.5t-18.5 59.5z" />
    <glyph glyph-name="at" unicode="@" horiz-adv-x="752" 
d="M699 234q0 -84 -48 -154t-101 -70q-61 0 -74 74q-48 -92 -119 -92q-48 0 -73.5 28.5t-25.5 83.5q0 77 59.5 151.5t109.5 74.5q36 0 76 -35t40 -55q0 -7 -5 -15q16 -3 28.5 -12.5t12.5 -20.5q0 -3 -6 -15.5t-12 -35t-6 -48.5q0 -7 4.5 -12t11.5 -5q26 0 45 38.5t19 92.5
q0 70 -45 127t-119 57q-113 0 -196.5 -95t-83.5 -220q0 -60 46 -105.5t131 -45.5q201 0 309 120q6 0 12.5 -10.5t6.5 -18.5q0 -15 -27 -41.5t-70 -54t-107 -47.5t-129 -20q-121 0 -189 67.5t-68 165.5q0 103 57.5 191t140.5 135.5t165 47.5q99 0 164.5 -63.5t65.5 -162.5z
M361 54q19 0 59.5 50t53.5 86q-13 2 -21.5 11t-8.5 18l6 8q7 8 7 15q0 6 -6 15t-13 9q-10 0 -31.5 -26t-40.5 -70.5t-19 -84.5q0 -31 14 -31z" />
    <glyph glyph-name="A" unicode="A" horiz-adv-x="710" 
d="M671 -19q0 -9 -10 -16t-22 -7q-23 0 -59 13.5t-70.5 48t-34.5 80.5q0 86 -1 126q-55 -2 -130 -10q-122 -275 -264 -275q-34 0 -53.5 12.5t-19.5 26.5q4 0 10.5 1.5t29 14t47 33.5t63 66t77.5 105q-134 -22 -136 -22q-42 0 -42 26q0 20 220 65q61 107 100.5 216.5
t46.5 150.5q8 37 15 43t23 6q26 0 64 -21.5t49 -45.5q7 -15 11 -36.5t6.5 -53.5t3.5 -57.5t2 -74.5t2 -78q53 -3 89.5 -30.5t36.5 -46.5q0 -13 -24 -13q-9 0 -39 1t-45 1h-14q8 -149 20 -184q3 -9 7 -15q20 -33 34 -39q7 -3 7 -11zM374 288q68 12 98 16q-5 208 -15 253h-4
q-33 -147 -79 -269z" />
    <glyph glyph-name="B" unicode="B" horiz-adv-x="843" 
d="M96 448q-30 9 -30 56q0 67 112 124t315 57q139 0 243.5 -50.5t104.5 -138.5q0 -40 -26 -74t-70.5 -57.5t-87 -38.5t-92.5 -27q41 -7 77 -18.5t75.5 -31.5t62.5 -52.5t23 -73.5q0 -46 -41.5 -85t-98.5 -61t-108.5 -34.5t-80.5 -12.5q-34 0 -77.5 15.5t-77.5 40.5v-31
q0 -13 -3.5 -19t-15.5 -6q-20 0 -50.5 27t-30.5 70q0 33 25 214q-23 10 -39.5 31t-16.5 36q0 11 36 11q4 0 14.5 -0.5t16.5 -0.5q17 103 23 132q16 78 32 78q14 0 34.5 -22.5t20.5 -34.5q0 -1 -3.5 -18t-10 -54t-12.5 -80l16 2q37 4 95 18t122 35.5t109 53t45 64.5
q0 9 -8.5 19t-28 21t-47.5 20t-71.5 15t-94.5 6q-135 0 -246.5 -43t-133.5 -82zM331 239q-8 -90 -11 -195q45 -17 88 -17q53 0 118.5 18t113.5 48t48 60q0 33 -59.5 65t-156.5 32q-10 0 -32.5 -2t-56 -5t-52.5 -4z" />
    <glyph glyph-name="C" unicode="C" horiz-adv-x="783" 
d="M545 686q105 0 175 -65t70 -132q0 -58 -40 -99.5t-89 -41.5q-36 0 -67 24t-31 66q0 27 11.5 46.5t23 26t17.5 6.5q3 0 21 -12.5t30 -12.5q19 0 32 8.5t13 24.5q0 18 -43 40t-85 22q-109 0 -226 -68.5t-192 -166.5t-75 -180q0 -54 90 -85.5t195 -31.5q171 0 288.5 48
t178.5 127q9 -10 9 -26q0 -31 -42.5 -77t-109.5 -90t-166 -75.5t-198 -31.5q-77 0 -141.5 27t-104 70t-61 94t-21.5 102q0 83 38.5 159t98.5 130t132.5 94.5t142.5 60t126 19.5z" />
    <glyph glyph-name="D" unicode="D" horiz-adv-x="997" 
d="M97 448q-29 0 -29 46q0 80 108 135.5t271 55.5q113 0 213 -30t169 -79t109 -113.5t40 -132.5q0 -53 -37 -119t-99 -126.5t-156 -101t-196 -40.5q-60 0 -132 28q-13 -41 -24 -41q-43 0 -94 48t-51 85q0 15 8 21t16 6q15 0 88 -25q14 105 14 248q0 122 -10 189q0 1 -0.5 4
t-0.5 5q0 25 26 25q19 0 57 -28.5t38 -52.5q0 -63 -15 -190.5t-34 -221.5q38 -7 68 -7q93 0 194 52.5t169 134t68 159.5q0 21 -14 44.5t-46.5 48.5t-80 45t-122 32.5t-163.5 12.5q-103 0 -212 -35.5t-140 -81.5z" />
    <glyph glyph-name="E" unicode="E" horiz-adv-x="728" 
d="M552 685q78 0 135.5 -42t57.5 -106q0 -57 -39.5 -94.5t-82.5 -37.5q-42 0 -71 26.5t-29 49.5q0 14 14 14q50 0 94.5 20.5t44.5 50.5q0 13 -13.5 21.5t-35.5 8.5q-62 0 -149.5 -30.5t-150 -71.5t-62.5 -69q0 -31 46 -52q80 22 131 22q26 0 74.5 -26t48.5 -48
q0 -43 -96 -43q-33 0 -71 6q-77 -20 -135.5 -41.5t-89.5 -38.5t-50 -33.5t-24 -26t-5 -16.5q0 -6 1 -10t6.5 -11t15.5 -12.5t30.5 -12t49 -10.5t73 -6.5t99.5 -2.5q136 0 251.5 47t166.5 104q9 -10 9 -26q0 -24 -22.5 -57t-67 -68t-102 -64.5t-135 -49t-158.5 -19.5
q-83 0 -149.5 21t-110.5 70t-44 121q0 61 64 114t161 91q-59 44 -59 108q0 54 62 109t150.5 88t166.5 33z" />
    <glyph glyph-name="F" unicode="F" horiz-adv-x="523" 
d="M558 323q10 0 10 -12q0 -9 -18 -25t-35 -23q-46 -19 -233 -60q-10 -132 -20 -202q-11 -71 -36 -71q-31 0 -75 24.5t-44 52.5q0 3 7.5 8.5t10.5 19.5q26 117 31 145q-20 -2 -25 -2q-35 0 -60 39.5t-25 61.5q0 4 5 9.5t9 5.5q2 0 19.5 -7.5t36.5 -7.5h57q22 136 29 265
l-21 -2q-26 -2 -34 -2q-25 0 -40 6.5t-18.5 12.5t-3.5 11q0 39 47.5 77t92.5 38q11 0 33 -13.5t35 -34.5q75 16 192 32t155 16q40 0 75 -48.5t35 -79.5q0 -24 -15 -24q-1 0 -14.5 9.5t-31.5 11.5q-74 9 -160 9q-95 0 -224 -10q-10 -188 -16 -268q68 6 131 15.5t97 16t41 6.5
z" />
    <glyph glyph-name="G" unicode="G" horiz-adv-x="925" 
d="M270 231q0 22 232 68.5t304 46.5q56 0 94.5 -28.5t38.5 -48.5q0 -13 -52 -13q1 -3 1 -8q0 -42 -40 -96t-105.5 -104t-162 -84t-196.5 -34q-49 0 -95.5 6t-99.5 23.5t-92 46t-64.5 78.5t-25.5 115q0 60 35 123t91 115t126.5 99t142.5 79t138 51t113 19q88 0 161.5 -62.5
t73.5 -112.5q0 -45 -45.5 -86.5t-101.5 -41.5q-45 0 -72 25.5t-27 50.5q0 20 15 20q66 0 93.5 22.5t27.5 46.5q0 16 -15.5 25t-37.5 9q-98 0 -246.5 -68.5t-262 -166.5t-113.5 -172q0 -139 204 -139q77 0 148.5 18.5t120 45.5t86 57t55 52.5t17.5 31.5q0 12 -3 16
q-109 -4 -206 -17t-149.5 -23.5t-62.5 -10.5q-43 0 -43 26z" />
    <glyph glyph-name="H" unicode="H" horiz-adv-x="750" 
d="M777 635q0 -9 -4.5 -13t-20.5 -17.5t-34 -36.5q-25 -30 -50.5 -96t-40.5 -154q45 0 82 -32.5t37 -56.5q0 -12 -12 -12q-2 0 -124 -2q-6 -61 -6 -130q0 -45 3 -75.5t6 -43.5t3 -15q0 -25 -35 -25q-12 0 -30.5 12.5t-31.5 28.5q-6 8 -14 23t-13 22q-81 116 -226 169
q-1 -25 -1 -80q0 -31 1.5 -55.5t3.5 -38.5t3.5 -22.5t3 -13t1.5 -5.5q0 -15 -27 -15q-35 0 -69 26t-34 52q0 4 0.5 22.5t1 53.5t0.5 64q-52 -6 -72 -6q-71 0 -71 33q0 28 40.5 43t104.5 15q9 362 16 390q6 25 12.5 33t22.5 8q39 0 77.5 -31t38.5 -57q0 -7 -10.5 -39.5
t-23 -113t-17.5 -198.5q124 35 251 58q17 196 55 294.5t87 98.5q33 0 61.5 -12.5t41.5 -26.5t13 -23zM508 97q2 76 4 114q-96 -4 -137 -8q63 -36 133 -106z" />
    <glyph glyph-name="I" unicode="I" horiz-adv-x="629" 
d="M56 13q0 49 311 73q-37 27 -37 66q0 99 34 315q6 38 9 56q-109 -26 -183 -55q-11 -3 -17 -19q-1 -3 -1 -9t-1.5 -9t-5.5 -3q-32 0 -55 47.5t-23 114.5q0 28 106 50.5t213 32.5t161 10q44 0 88.5 -42t44.5 -60q-1 -10 -12 -14t-48 -4q-67 0 -158 -16q23 -21 23 -38
q0 -7 -10 -39q-27 -86 -50 -197t-28 -184q85 5 115 5q46 0 87.5 -19t41.5 -34q-1 -10 -12 -14t-48 -4q-90 0 -220.5 -30t-229.5 -65q-11 -4 -16.5 -10t-6 -11t-1.5 -8.5t-6 -3.5q-23 0 -44 34.5t-21 83.5z" />
    <glyph glyph-name="J" unicode="J" horiz-adv-x="521" 
d="M609 583q-6 -1 -38 -5l-48 -6q27 -31 27 -55q0 -6 -1 -10q-69 -355 -173.5 -542.5t-237.5 -187.5q-67 0 -114.5 32.5t-47.5 78.5q0 62 74 142.5t137 80.5q24 0 43.5 -18t19.5 -35q0 -2 -7 -4.5t-22 -8.5t-28 -16q-40 -29 -71 -75.5t-31 -91.5q0 -30 25 -30
q41 0 79.5 37.5t68.5 103.5t55 139.5t45 161.5t32.5 152.5t22.5 128.5q-173 -31 -259 -87q-13 -9 -17 -19q-1 -3 -1 -9t-1.5 -9t-5.5 -3q-32 0 -55 47.5t-23 114.5q0 39 186.5 62.5t298.5 23.5q39 0 69 -9t45 -22t22.5 -24t7.5 -19q0 -7 -12.5 -10t-45.5 -7q-4 0 -6.5 -0.5
t-6 -1t-6.5 -0.5z" />
    <glyph glyph-name="K" unicode="K" horiz-adv-x="643" 
d="M155 685q31 0 74.5 -24t43.5 -52q0 -4 -7.5 -9t-10.5 -20q-34 -141 -57 -300q41 55 85 109t111 129t127.5 121.5t98.5 46.5q20 0 56.5 -39t36.5 -68q0 -10 -11 -17t-26 -7q-6 0 -22 -5.5t-47.5 -23t-69 -44t-92 -74.5t-112.5 -109q41 -82 126 -165t130 -83q21 0 38 8
q7 -6 7 -19q0 -31 -30.5 -70.5t-58.5 -39.5q-40 0 -78 23.5t-66 57t-53.5 79.5t-40 80.5t-27.5 70.5q-55 -62 -99 -119q-7 -77 -7 -167q0 -13 -3.5 -19t-15.5 -6q-28 0 -69 24t-41 66q0 41 34 111q16 317 40 484q9 70 36 70z" />
    <glyph glyph-name="L" unicode="L" horiz-adv-x="565" 
d="M503 1q-71 0 -173 -21.5t-165 -51.5v-7q-3 -45 -27 -45q-34 0 -64 27.5t-30 51.5q0 13 41 41q12 441 38 619q11 70 36 70q32 0 75.5 -24.5t43.5 -51.5q0 -4 -7.5 -9t-11.5 -20q-62 -256 -87 -536q168 82 284 82q21 0 60 -42t39 -70t-13 -28q-1 0 -13 7.5t-26 7.5z" />
    <glyph glyph-name="M" unicode="M" horiz-adv-x="898" 
d="M806 48q0 -19 11 -36.5t27 -26.5q7 -3 7 -11q0 -9 -10 -16t-22 -7q-22 0 -54.5 11t-62.5 39t-30 65q0 51 38 237t38 245l-5 1q-127 -154 -198 -333q-20 -261 -58 -261q-31 0 -66 18.5t-35 51.5q0 14 10 99t20 214.5t10 251.5l-5 1q-74 -107 -157 -289.5t-83 -300.5
q0 -18 2 -31.5t2 -15.5q0 -16 -23 -16q-41 0 -76.5 31t-35.5 82q0 54 29.5 235.5t33.5 252.5q4 62 8 69q6 10 26 10q27 0 64 -26.5t37 -53.5q0 -12 -5.5 -35t-17.5 -65t-18 -67l4 -1q71 148 136.5 231.5t96.5 83.5q33 0 70 -22.5t38 -41.5q3 -44 3 -135q0 -3 -3 -93h5
q63 110 119 176t81 66q32 0 68.5 -23t40.5 -41q4 -19 4 -48q0 -66 -32 -237.5t-32 -237.5z" />
    <glyph glyph-name="N" unicode="N" horiz-adv-x="641" 
d="M395 93q0 61 41 254t46 226l-6 1q-150 -139 -222.5 -286t-72.5 -287q0 -18 2 -31.5t2 -15.5q0 -16 -23 -16q-41 0 -76.5 31t-35.5 82q0 54 29.5 235.5t33.5 252.5q4 62 8 69q6 10 26 10q27 0 64 -26.5t37 -53.5q0 -14 -7.5 -44.5t-22 -84t-23.5 -90.5l4 -2
q40 86 84.5 158.5t81 116.5t65.5 68.5t44 24.5q37 0 89.5 -31.5t52.5 -59.5q0 -66 -39.5 -234.5t-39.5 -254.5q0 -39 12.5 -70.5t33.5 -42.5q7 -3 7 -11q0 -9 -10 -16t-22 -7q-16 0 -41 7.5t-53.5 22t-48.5 42.5t-20 63z" />
    <glyph glyph-name="O" unicode="O" horiz-adv-x="833" 
d="M802 341q0 -66 -31 -137.5t-84.5 -133t-136 -101t-176.5 -39.5q-88 0 -156 28.5t-106.5 75t-57.5 100t-19 110.5q0 98 40.5 184.5t101 140.5t126 85t119.5 31q30 0 70 -33q40 -1 80.5 -11t82.5 -33.5t74 -58t52.5 -88.5t20.5 -120zM664 372q0 99 -43.5 162t-88.5 70
q1 -2 1 -6q0 -11 -15 -11q-143 0 -242.5 -111t-99.5 -256q0 -105 51.5 -163.5t127.5 -58.5q73 0 133.5 36t97.5 92t57.5 120t20.5 126z" />
    <glyph glyph-name="P" unicode="P" horiz-adv-x="671" 
d="M699 492q0 -102 -144.5 -190t-347.5 -106q-13 -100 -20 -213q-1 -13 -1.5 -17.5t-5.5 -8.5t-15 -4q-20 0 -50.5 32.5t-30.5 70.5q0 49 12 138q-42 9 -67.5 42.5t-25.5 57.5q0 10 6 10q3 0 14 -4t23 -4q43 0 66 1q23 135 31 153q6 19 14 37q-31 -21 -48 -39q-29 0 -29 46
q0 79 111 134.5t268 55.5q100 0 170 -54.5t70 -137.5zM440 565q-110 0 -218 -44q29 -23 29 -61q0 -4 -27 -152q105 14 191.5 38.5t144 63t57.5 82.5q0 33 -49 53t-128 20z" />
    <glyph glyph-name="Q" unicode="Q" horiz-adv-x="774" 
d="M632 -236q-46 0 -95 25.5t-120 77t-111 75.5q-51 -12 -90 -12q-35 0 -59.5 9.5t-24.5 23.5q0 20 26.5 49.5t75.5 29.5q35 0 98 -22q129 49 217.5 159.5t88.5 242.5q0 68 -43 127t-127 59q-114 0 -195 -92.5t-81 -223.5q0 -57 23.5 -91t67.5 -34q16 0 33 5t27 10t11 5
q2 0 2 -5q0 -21 -31.5 -43.5t-86.5 -22.5q-86 0 -136.5 59.5t-50.5 148.5q0 63 27 126t75.5 116t125.5 86t167 33q150 0 239 -84t89 -212q0 -72 -30.5 -138.5t-82 -116.5t-110.5 -88t-125 -65q70 -31 103.5 -44.5t93 -30t103.5 -16.5q11 0 19 1l12 1.5t5 0.5q2 0 2 -3
q0 -44 -36 -85t-96 -41z" />
    <glyph glyph-name="R" unicode="R" horiz-adv-x="674" 
d="M220 233q0 34 17 57.5t40 23.5q15 0 32 -9q70 16 142.5 60.5t114.5 88.5t42 66q0 4 -6 10t-21 13.5t-35 13.5t-52.5 10.5t-69.5 4.5q-103 0 -204 -48q22 -12 38 -34.5t16 -39.5q0 -12 -16 -42q-37 -71 -61.5 -200t-24.5 -225q0 -17 -3.5 -23.5t-18.5 -6.5
q-18 0 -41.5 48.5t-23.5 103.5q0 74 24 195t35 150l15 40q-30 -22 -49 -42q-29 0 -29 46q0 79 111 134.5t268 55.5q100 0 170 -54.5t70 -137.5q0 -59 -59 -118.5t-136 -98.5t-152 -58q51 -64 128.5 -115t118.5 -51q21 0 38 8q7 -6 7 -19q0 -31 -30.5 -70.5t-58.5 -39.5
q-40 0 -79 21t-68 50.5t-57 70t-44.5 71.5t-31.5 63q-18 1 -37 9.5t-19 17.5z" />
    <glyph glyph-name="S" unicode="S" horiz-adv-x="683" 
d="M165 146l-17 -19q-18 -19 -18 -39q0 -29 42.5 -47t109.5 -18q106 0 171 29.5t65 77.5q0 31 -46 60.5t-112 54.5t-132 52.5t-112 67t-46 85.5q0 97 131.5 166t316.5 69q111 0 165.5 -33.5t54.5 -90.5q0 -51 -52 -88.5t-99 -37.5q-44 0 -44 20q0 4 12.5 15.5t12.5 20.5
q0 15 -21.5 24.5t-58.5 9.5q-134 0 -222.5 -28t-88.5 -68q0 -29 48.5 -57t117.5 -53.5t138.5 -53.5t118 -68.5t48.5 -87.5q0 -76 -83 -121t-215 -45q-125 0 -218.5 50t-93.5 115q0 33 22 54t49 21q26 0 41 -12.5t15 -24.5z" />
    <glyph glyph-name="T" unicode="T" horiz-adv-x="562" 
d="M48 590q0 28 106 50.5t213 32.5t161 10q44 0 88.5 -42t44.5 -60q-1 -10 -12 -14t-48 -4q-67 0 -158 -16q23 -21 23 -38q0 -7 -10 -39q-67 -213 -86 -514q-1 -13 -4.5 -18.5t-14.5 -5.5q-17 0 -40.5 30.5t-23.5 73.5q0 184 38 431q5 38 9 56q-109 -26 -183 -55
q-11 -3 -17 -19q-1 -3 -1 -9t-1.5 -9t-5.5 -3q-26 0 -52 49.5t-26 112.5z" />
    <glyph glyph-name="U" unicode="U" horiz-adv-x="617" 
d="M574 -31q-26 0 -70 31.5t-66 82.5q-58 -71 -119 -112t-113 -41q-16 0 -34.5 6.5t-42 25t-41.5 48t-30.5 80.5t-12.5 116q0 216 67 409q25 70 50 70q32 0 79 -30.5t47 -59.5q0 -4 -3 -5t-9.5 -5.5t-12.5 -14.5q-31 -51 -57 -176t-26 -216q0 -69 14.5 -110t41.5 -41
q40 0 92 42t94 114q3 87 14.5 192t41 207.5t69.5 102.5q25 0 58.5 -34.5t33.5 -59.5q0 -150 -84 -321q-8 -51 -8 -120q0 -110 52 -147q7 -5 7 -11q0 -9 -10 -16t-22 -7z" />
    <glyph glyph-name="V" unicode="V" horiz-adv-x="588" 
d="M120 685q27 0 80 -32.5t53 -51.5q0 -3 -7 -19t-14 -58.5t-7 -110.5q0 -125 23.5 -232t49.5 -149h4q13 18 32.5 53t52 104.5t54 163t21.5 186.5q0 85 -19 112l-6 6t-5 4t-3 3t-1 5q0 22 41 22q45 0 93 -41t48 -91q0 -25 -7 -52q-21 -86 -84 -225.5t-126.5 -245.5
t-86.5 -106q-27 0 -74.5 19t-63.5 43q-38 60 -68.5 206.5t-30.5 284.5q0 85 11 146q6 31 13 43.5t27 12.5z" />
    <glyph glyph-name="W" unicode="W" horiz-adv-x="884" 
d="M917 559q0 -104 -58 -256.5t-124.5 -260t-95.5 -107.5q-28 0 -63 15t-49 42q-24 44 -53 153t-41 207h-4q-62 -197 -89 -372q-5 -40 -41 -40q-25 0 -70 20.5t-59 39.5q-40 58 -71 201.5t-31 281.5q0 82 13 146q8 41 17 49q9 7 22 7q26 0 79 -32.5t53 -51.5q0 -3 -7 -19
t-14 -58.5t-7 -110.5q0 -126 15.5 -221t37.5 -136h5q9 49 22.5 112t39.5 171.5t53 179t48 70.5q37 0 87.5 -41t50.5 -81q0 -128 20 -254.5t42 -168.5h5q119 199 119 495q0 85 -19 112l-6 6t-5 4t-3 3t-1 5q0 22 41 22q45 0 93 -41t48 -91z" />
    <glyph glyph-name="X" unicode="X" horiz-adv-x="574" 
d="M84 -45q-12 -15 -28 -15q-11 0 -18.5 7t-7.5 17q0 11 18 45q44 85 156 239q-147 225 -147 347q0 31 55 60.5t89 29.5q28 0 28 -18q0 -4 -1.5 -13.5t-1.5 -18.5q0 -100 69 -268q92 119 171.5 210t100.5 101q8 4 21 4q36 0 76 -37.5t40 -57.5q0 -6 -5.5 -11t-21.5 -16
t-31 -24q-156 -135 -300 -283q54 -108 109 -179t91 -71q8 0 12 3l5 3q15 0 15 -23q0 -20 -23.5 -38t-49.5 -18q-40 0 -97 59q-66 66 -147 175q-103 -111 -177 -209z" />
    <glyph glyph-name="Y" unicode="Y" horiz-adv-x="587" 
d="M247 234q31 0 72 20.5t79 60.5q42 152 83.5 261t62.5 109q25 0 58.5 -34.5t33.5 -59.5q0 -55 -39.5 -137t-101.5 -150q-37 -174 -37 -336q0 -19 4 -31.5t8.5 -18t4.5 -7.5q0 -8 -7 -14t-17 -6q-31 0 -79 29t-48 57q0 56 45 233q-84 -59 -151 -59q-42 0 -99 56t-57 129
q0 80 17 164t40 134.5t40 50.5q32 0 79 -30.5t47 -59.5q0 -4 -3 -5t-9.5 -5.5t-12.5 -14.5q-30 -49 -46.5 -124.5t-16.5 -134.5q0 -35 13 -56t37 -21z" />
    <glyph glyph-name="Z" unicode="Z" horiz-adv-x="726" 
d="M15 16q0 33 214 240t356 308v4q-92 -12 -164.5 -26t-111.5 -25.5t-64.5 -21.5t-37.5 -15.5t-17 -5.5q-23 0 -72 58.5t-49 86.5q0 27 197 46.5t376 19.5q26 0 65.5 -32.5t39.5 -51.5q0 -18 -19 -29q-99 -58 -254.5 -199.5t-289.5 -300.5l4 -6q292 56 425 56
q21 0 57.5 -41.5t36.5 -69.5q0 -12 -6 -16t-20 -4q-3 0 -14 0.5t-18 0.5q-123 0 -228 -5.5t-166.5 -12.5t-105 -14.5t-60.5 -12.5l-17 -5q-25 0 -41 25.5t-16 48.5z" />
    <glyph glyph-name="bracketleft" unicode="[" horiz-adv-x="342" 
d="M131 615q1 9 3.5 15t15 17.5t33 18.5t63.5 13t102 6q21 0 36 -23t15 -39q0 -11 -17 -14q-4 0 -14 -1l-11 -1q-76 -7 -115 -13q-2 -5 -4 -14q-22 -88 -50.5 -284t-30.5 -370q94 34 125 34q21 0 36 -23t15 -39q0 -11 -16 -13q-1 -1 -26 -3q-49 -4 -101.5 -11t-84 -11.5
t-38.5 -4.5q-16 0 -16 10q0 17 20 28q9 5 26 11q-11 14 -11 36q0 60 15.5 317.5t29.5 357.5z" />
    <glyph glyph-name="backslash" unicode="\" horiz-adv-x="305" 
d="M283 27q-2 -14 -11.5 -24.5t-20.5 -10.5q-12 0 -33.5 24.5t-41.5 64.5q-41 80 -78 258t-37 295q0 51 35 51q16 0 40 -19t24 -38q0 -2 -3 -9.5t-3 -16.5q0 -140 34 -310t95 -265z" />
    <glyph glyph-name="bracketright" unicode="]" horiz-adv-x="412" 
d="M63 593q-16 0 -16 10q0 17 20 28q27 14 101 34t102 20q26 0 54.5 -24.5t28.5 -45.5q0 -3 -5 -11.5t-8 -23.5q-23 -91 -51.5 -288t-29.5 -371q6 -14 6 -23q0 -10 -7.5 -12t-34.5 -4q-71 -4 -117 -9.5t-59.5 -9t-21 -6t-12.5 -2.5q-13 0 -25 21t-12 36q0 6 3 8
q17 9 88 21.5t123 17.5q-1 6 -1 19q0 58 14.5 290.5t28.5 337.5q-45 -1 -85.5 -4.5t-62.5 -5.5z" />
    <glyph glyph-name="asciicircum" unicode="^" horiz-adv-x="458" 
d="M315 629q16 -44 47.5 -97.5t54.5 -87t23 -36.5q0 -13 -16 -13q-7 0 -30.5 12t-28.5 18q-65 74 -78 100q-32 -61 -93 -128q-22 -22 -38 -22q-29 0 -56 12.5t-27 23.5q0 2 15 17q94 109 149 218q6 10 18 10q14 0 35 -9t25 -18z" />
    <glyph glyph-name="underscore" unicode="_" horiz-adv-x="353" 
d="M2 -124q-11 0 -19 15t-8 28q0 5 5 8q20 8 166 21.5t183 13.5q23 0 36.5 -23.5t13.5 -41.5q0 -8 -5.5 -10.5t-20.5 -2.5q-46 0 -197 -4t-154 -4z" />
    <glyph glyph-name="grave" unicode="`" horiz-adv-x="287" 
d="M85 540q11 0 47 -17t36 -23q0 -2 -0.5 -8t-0.5 -12q0 -23 6 -63.5t6 -41.5q0 -15 -14 -15q-25 0 -64.5 59.5t-39.5 99.5q0 21 24 21z" />
    <glyph glyph-name="a" unicode="a" horiz-adv-x="378" 
d="M287 240q0 -7 -5 -15q16 -3 28.5 -12.5t12.5 -20.5q0 -1 -14.5 -43t-14.5 -69q0 -23 9 -23q14 0 52 43t66 99q17 -14 17 -36q0 -26 -53.5 -98.5t-99.5 -72.5q-59 0 -72 80q-49 -80 -95 -80q-47 0 -79 38.5t-32 89.5q0 73 57 141.5t107 68.5q36 0 76 -35t40 -55zM188 219
l6 8q7 8 7 15q0 5 -6 12.5t-13 7.5q-18 0 -54.5 -59t-36.5 -109q0 -37 17 -37q23 0 58 47.5t49 85.5q-27 8 -27 29z" />
    <glyph glyph-name="b" unicode="b" horiz-adv-x="337" 
d="M202 517q-5 -10 -16 -37.5t-29 -81t-30 -102.5q36 34 93 34q41 0 71 -31.5t30 -79.5q0 -78 -53.5 -152.5t-105.5 -74.5q-59 0 -101 41.5t-42 116.5q0 93 29.5 242t45.5 188q14 38 32 38q26 0 60 -27t34 -45q0 -2 -1 -4t-3 -4t-6 -7.5t-8 -13.5zM146 189q0 -9 -12 -9
q-13 0 -23 14q-2 -26 -2 -39q0 -42 14 -71.5t29 -29.5q24 0 50 57t26 117q0 48 -26 48q-18 0 -37 -26.5t-19 -60.5z" />
    <glyph glyph-name="c" unicode="c" horiz-adv-x="289" 
d="M134 -8q-64 0 -95 38t-31 88q0 69 48 140.5t109 71.5q43 0 73 -23t30 -55q0 -22 -23 -38t-48 -16q-8 0 -8 6q0 3 1.5 8.5t1.5 9.5q0 11 -4 19.5t-7 8.5q-23 0 -52.5 -45.5t-29.5 -92.5q0 -56 44 -56q43 0 101.5 42.5t87.5 100.5q17 -14 17 -36q0 -10 -17 -36.5t-44 -57
t-69 -54t-85 -23.5z" />
    <glyph glyph-name="d" unicode="d" horiz-adv-x="401" 
d="M171 330q27 0 64 -26q46 314 87 314q27 0 53.5 -26t26.5 -53q0 -50 -29.5 -148t-66.5 -182q-10 -50 -10 -92q0 -65 20 -65q22 0 59.5 43t68.5 104q17 -14 17 -36q0 -26 -53.5 -98.5t-99.5 -72.5q-34 0 -59 23t-39 57q-48 -80 -92 -80q-47 0 -79 38.5t-32 89.5
q0 73 57 141.5t107 68.5zM222 201q0 4 1 9q-21 52 -41 52q-19 0 -55 -61t-36 -107q0 -37 17 -37q19 0 50.5 36.5t51.5 76.5q8 17 12 31z" />
    <glyph glyph-name="e" unicode="e" horiz-adv-x="288" 
d="M141 -8q-58 0 -96 37t-38 105q0 66 47.5 131t93.5 65q44 0 83 -30t39 -63q0 -50 -46.5 -88t-95.5 -38q-12 0 -34 4q5 -25 21 -43.5t40 -18.5q41 0 93.5 43t82.5 103q17 -14 17 -36q0 -10 -17 -36.5t-43.5 -57t-66.5 -54t-80 -23.5zM175 271q-17 0 -42.5 -37.5
t-36.5 -74.5q7 -2 21 -2q27 0 51 32.5t24 57.5q0 24 -17 24z" />
    <glyph glyph-name="f" unicode="f" horiz-adv-x="272" 
d="M268 548q-7 -14 -23.5 -59t-42.5 -131t-45 -169q28 -33 53 -76q67 9 106 86q16 -14 16 -36q0 -17 -29 -50t-68 -49q52 -109 52 -191q0 -17 -4.5 -43.5t-15.5 -59t-33.5 -55.5t-52.5 -23q-62 0 -110.5 50.5t-48.5 98.5q0 104 26 277q-51 48 -51 73q0 21 19 40t40 19
q5 0 13 -2q50 269 83 355q14 38 33 38q26 0 60 -27t34 -45q0 -3 -1 -5t-4 -6t-6 -10zM196 -81q0 53 -18 134q-21 0 -46 10q-18 -106 -18 -192q0 -33 9 -63.5t22 -30.5q16 0 33.5 45.5t17.5 96.5z" />
    <glyph glyph-name="g" unicode="g" horiz-adv-x="357" 
d="M210 -36q9 50 15 104q-45 -76 -89 -76q-48 0 -88.5 39.5t-40.5 88.5q0 75 45.5 142.5t93.5 67.5q22 0 48 -20t46 -48q12 25 23 25q15 0 37 -20.5t22 -35.5q0 -141 -25 -281q47 -27 47 -63q0 -13 -12 -13q-5 0 -19 2t-31 3q-49 -188 -138 -188q-66 0 -122 40.5t-56 77.5
t76 91.5t168 63.5zM108 57q27 0 64 44.5t49 97.5q-7 21 -26.5 37t-28.5 16q-8 0 -25.5 -22.5t-33.5 -60.5t-16 -71q0 -41 17 -41zM112 -236q50 0 79 112q-39 -7 -75.5 -24t-56 -32.5t-19.5 -24.5q0 -13 21 -22t51 -9z" />
    <glyph glyph-name="h" unicode="h" 
d="M111 114l4 -2q117 218 136 218q26 0 58.5 -23t32.5 -41q0 -8 -24 -80.5t-24 -101.5q0 -12 5.5 -21t12.5 -9q23 0 62 42.5t69 102.5q17 -14 17 -36q0 -26 -54 -98.5t-99 -72.5q-40 0 -74.5 23t-34.5 60q0 29 14 72.5t28 72.5l14 28l-5 3q-43 -61 -76.5 -129t-49 -99
t-29.5 -31q-25 0 -49.5 30.5t-24.5 54.5q0 39 34 212t72 295q11 34 39 34q22 0 54.5 -29.5t32.5 -62.5q0 -39 -30.5 -114t-61.5 -130l-31 -56q-13 -50 -18 -112z" />
    <glyph glyph-name="i" unicode="i" horiz-adv-x="223" 
d="M81 330q26 0 56 -23t30 -41q0 -6 -8 -18t-9 -15q-33 -64 -33 -149q0 -12 5.5 -21t12.5 -9q23 0 62.5 43t68.5 102q17 -14 17 -36q0 -26 -53.5 -98.5t-99.5 -72.5q-40 0 -71.5 22.5t-31.5 63.5q0 59 10 119.5t22.5 96.5t21.5 36zM136 504q27 0 57 -16t30 -35
q0 -33 -32 -60.5t-65 -27.5q-24 0 -45 14t-21 42q0 31 24.5 57t51.5 26z" />
    <glyph glyph-name="j" unicode="j" horiz-adv-x="179" 
d="M43 264q0 20 -6 34.5t-6 17.5q0 14 21 14q25 0 56 -20t31 -48q0 -43 -10 -131.5t-30 -174.5q42 -13 63.5 -37.5t21.5 -41.5q0 -13 -12 -13q-2 0 -28.5 6.5t-66.5 8.5q-67 -204 -185 -204q-64 0 -121.5 53.5t-57.5 93.5q0 21 42.5 52t111 57.5t133.5 32.5q19 80 31 168
t12 132zM99 504q27 0 54.5 -16t27.5 -35q0 -33 -29.5 -60.5t-62.5 -27.5q-24 0 -45 14t-21 42q0 31 24.5 57t51.5 26zM-120 -236q50 0 93 111q-67 -9 -126.5 -31.5t-59.5 -35.5q0 -14 30 -29t63 -15z" />
    <glyph glyph-name="k" unicode="k" horiz-adv-x="409" 
d="M316 -8q-53 0 -88.5 41t-46.5 89l-14 3q-11 -23 -21.5 -48t-16 -38.5t-11.5 -25.5t-11.5 -16.5t-12.5 -4.5q-25 0 -49.5 30.5t-24.5 54.5q0 39 34 212t72 295q11 34 39 34q22 0 54.5 -29.5t32.5 -62.5q0 -39 -30.5 -114t-61.5 -130l-31 -56q-14 -60 -19 -112l4 -1
q91 217 155 217q30 0 65 -30.5t35 -66.5q0 -43 -105 -92q41 -60 76 -60q24 0 53.5 30t58.5 88q17 -14 17 -36q0 -26 -53.5 -98.5t-99.5 -72.5zM273 270q-21 0 -70 -79q7 -3 19 -11q67 45 67 68q0 7 -6 14.5t-10 7.5z" />
    <glyph glyph-name="l" unicode="l" horiz-adv-x="235" 
d="M157 58q18 0 55 41.5t66 99.5q17 -14 17 -36q0 -26 -53.5 -98.5t-99.5 -72.5q-48 0 -78.5 46t-30.5 90q0 76 45.5 283t77.5 207q28 0 62 -28.5t34 -63.5q0 -44 -33 -129.5t-73 -153.5q-14 -65 -14 -131q0 -21 7 -37.5t18 -16.5z" />
    <glyph glyph-name="m" unicode="m" horiz-adv-x="527" 
d="M434 -8q-36 0 -63 25.5t-27 62.5q0 26 8 59.5t16 54.5l9 20l-5 3q-25 -47 -49 -106t-36.5 -89t-20.5 -30q-29 0 -60.5 27.5t-31.5 49.5q0 13 8 49t16 66l9 29l-3 1q-35 -51 -93 -179q-20 -43 -29 -43q-25 0 -47 27t-22 57q0 21 18.5 96.5t18.5 91.5q0 19 -6 33t-6 19
q0 14 21 14q18 0 49.5 -21.5t31.5 -43.5q0 -10 -4.5 -32t-11.5 -52t-10 -43l5 -1q84 193 111 193q23 0 50 -18t27 -32q0 -8 -11.5 -52t-23.5 -84l-11 -41l4 -1q96 198 119 198q27 0 56.5 -19.5t29.5 -36.5q0 -8 -25.5 -70.5t-25.5 -91.5q0 -33 15 -33q23 0 65 45.5t71 104.5
q17 -14 17 -36q0 -26 -53.5 -98.5t-99.5 -72.5z" />
    <glyph glyph-name="n" unicode="n" horiz-adv-x="388" 
d="M140 265q0 -8 -4.5 -28t-11 -48.5t-9.5 -42.5l5 -1q100 185 130 185q26 0 53 -23t27 -41q0 -8 -24 -80.5t-24 -101.5q0 -12 5.5 -21t12.5 -9q23 0 62 42.5t69 102.5q17 -14 17 -36q0 -26 -54 -98.5t-99 -72.5q-37 0 -73 22.5t-36 51.5q0 23 14 68.5t28 79.5l14 34l-5 3
q-43 -61 -76.5 -129t-49 -99t-29.5 -31q-25 0 -47 27t-22 57q0 21 18.5 96.5t18.5 91.5q0 19 -6 33t-6 19q0 14 21 14q18 0 49.5 -21.5t31.5 -43.5z" />
    <glyph glyph-name="o" unicode="o" horiz-adv-x="332" 
d="M149 330q39 0 78 -25t46 -55q44 -31 44 -60q0 -68 -52.5 -133t-115.5 -65q-53 0 -97.5 37t-44.5 96q0 80 50 142.5t92 62.5zM237 188q0 13 -1 19q-6 -1 -17 -1q-22 0 -22 6q0 1 2.5 7.5t2.5 14.5l-4 19q-33 0 -68.5 -52t-35.5 -94q0 -62 47 -62q34 0 65 51.5t31 91.5z
" />
    <glyph glyph-name="p" unicode="p" horiz-adv-x="355" 
d="M131 265q0 -11 -3 -27q49 92 108 92q40 0 71.5 -35.5t31.5 -84.5q0 -76 -49.5 -147t-91.5 -71q-47 0 -89 48q-19 -82 -19 -158q0 -54 3 -90t5.5 -50.5t2.5 -17.5q0 -15 -21 -15q-14 0 -34.5 5.5t-42.5 24t-22 46.5q0 35 30.5 231.5t30.5 247.5q0 19 -5.5 33t-5.5 19
q0 14 28 14q17 0 44.5 -21.5t27.5 -43.5zM232 256q-67 -30 -108 -159q28 -32 56 -32q26 0 46 50.5t20 96.5q0 44 -14 44z" />
    <glyph glyph-name="q" unicode="q" horiz-adv-x="343" 
d="M165 -215q0 110 41 275q-47 -68 -88 -68q-47 0 -79 38.5t-32 89.5q0 73 57 141.5t107 68.5q36 0 76 -35t40 -55q0 -7 -5 -15q16 -3 28.5 -12.5t12.5 -20.5q0 -1 -2.5 -7t-6.5 -16.5t-7 -22.5q-33 -134 -33 -304q0 -36 1.5 -60.5t4 -33t4 -14.5t1.5 -10q0 -8 -4.5 -11.5
t-17.5 -3.5q-9 0 -23.5 3.5t-32 11t-30 23.5t-12.5 38zM108 57q23 0 58 47.5t49 85.5q-27 8 -27 29l6 8q7 8 7 15q0 5 -6 12.5t-13 7.5q-10 0 -31.5 -26t-40.5 -67t-19 -75q0 -37 17 -37z" />
    <glyph glyph-name="r" unicode="r" horiz-adv-x="282" 
d="M194 54q23 0 62 42.5t69 102.5q17 -14 17 -36q0 -15 -22 -54t-65.5 -78t-87.5 -39q-27 0 -52 22t-25 51q0 25 12 71q-12 3 -25.5 9t-30.5 17t-28 30.5t-11 43.5q0 26 23 72t41 46q17 0 29.5 -20t12.5 -39q0 -16 -23 -82l32 -8q27 69 45 69q14 0 43.5 -23.5t29.5 -36.5
q0 -17 -23 -38q-36 -68 -36 -108q0 -14 13 -14z" />
    <glyph glyph-name="s" unicode="s" horiz-adv-x="285" 
d="M198 334q40 0 60 -23.5t20 -56.5q0 -21 -10.5 -33.5t-23.5 -12.5q-8 0 -8 10q0 7 -8 12t-19 5q-20 0 -57.5 -19.5t-37.5 -47.5q0 -8 22 -18.5t49 -20t49 -25.5t22 -33q0 -32 -36 -55.5t-90 -23.5q-55 0 -83.5 17.5t-28.5 41.5q0 23 19 35.5t31 12.5q11 0 11 -10
q0 -37 54 -37q38 0 38 22q0 11 -40 25.5t-80 37.5t-40 53q0 53 70 98.5t117 45.5z" />
    <glyph glyph-name="t" unicode="t" horiz-adv-x="240" 
d="M0 268q-16 0 -16 10q0 17 20 28l53 21q18 105 45 179q14 38 33 38q26 0 58.5 -23.5t32.5 -41.5q0 -7 -10 -21q-18 -24 -43 -93q30 8 42 8q21 0 36 -23t15 -39q0 -11 -17 -14q-4 0 -14 -1l-11 -1l-73 -8q-24 -99 -24 -191q0 -21 8 -31.5t17 -10.5q23 0 62 42.5t69 102.5
q17 -14 17 -36q0 -26 -53.5 -98.5t-99.5 -72.5q-38 0 -74.5 31t-36.5 75q0 81 12 175q-40 -5 -48 -5z" />
    <glyph glyph-name="u" unicode="u" 
d="M85 330q26 0 55 -22t29 -40q0 -4 -14 -35q-13 -25 -22.5 -67.5t-9.5 -76.5t16 -34q30 0 71 47q1 64 25 147q17 59 39 59q25 0 47 -22.5t22 -41.5t-12 -41l-17 -30q-11 -44 -11 -87q0 -39 11 -39q22 0 60.5 45.5t69.5 106.5q16 -14 16 -36q0 -26 -53.5 -98.5t-98.5 -72.5
q-27 0 -52 16.5t-38 42.5q-46 -59 -102 -59q-40 0 -65.5 26t-25.5 80q0 58 11.5 114.5t25 87t23.5 30.5z" />
    <glyph glyph-name="v" unicode="v" horiz-adv-x="372" 
d="M84 329q37 0 62 -17.5t25 -33.5q0 -1 -9 -9t-18 -28t-9 -50q0 -50 8.5 -93.5t22.5 -43.5q25 0 61 76t36 119q0 34 -11 52t-11 19q0 11 11 19.5t25 8.5q27 0 55.5 -19.5t28.5 -41.5q0 -46 -25.5 -101.5t-58.5 -96.5t-63.5 -69t-42.5 -28q-136 0 -136 194q0 62 15.5 102.5
t33.5 40.5z" />
    <glyph glyph-name="w" unicode="w" horiz-adv-x="538" 
d="M159 54q25 0 59 50q-6 32 -6 78q0 62 17.5 104.5t36.5 42.5q25 0 50.5 -23t25.5 -45q0 -42 -30 -99q1 -36 7.5 -61t14.5 -25q26 0 60 67t34 112q0 30 -9.5 47t-9.5 18q0 11 11 19.5t25 8.5q26 0 54 -19t28 -41q0 -58 -39.5 -129.5t-90.5 -119t-85 -47.5q-53 0 -79 61
q-59 -61 -93 -61q-31 0 -53.5 19t-33.5 50.5t-15.5 61.5t-4.5 62q0 60 17.5 102t36.5 42q37 0 58.5 -14t21.5 -29q0 -2 -8.5 -15t-17.5 -42t-9 -68q0 -44 7 -75.5t20 -31.5z" />
    <glyph glyph-name="x" unicode="x" horiz-adv-x="335" 
d="M22 -36q-8 -8 -16 -8q-15 0 -15 13q0 5 10 23q27 47 81 119q-57 97 -57 187q0 29 24 29q28 0 55 -14.5t27 -26.5q0 -7 1 -17q5 -42 16 -74q99 122 122 133q4 2 11 2q16 0 41.5 -17.5t25.5 -32.5q0 -3 -3 -5.5t-12 -8t-18 -12.5q-66 -53 -138 -123q19 -34 39 -55.5
t31 -21.5q23 0 62.5 43t68.5 102q17 -14 17 -36q0 -15 -22 -54t-65 -78t-87 -39q-49 0 -108 74q-55 -59 -91 -102z" />
    <glyph glyph-name="y" unicode="y" horiz-adv-x="363" 
d="M85 330q26 0 55 -22t29 -40q0 -4 -14 -35q-13 -25 -22.5 -67.5t-9.5 -76.5t16 -34q39 0 93 72q0 93 13 141q6 24 13 32t20 8q25 0 46.5 -22.5t21.5 -41.5q0 -17 -11 -41q-3 -4 -14 -29q-4 -127 -20 -225q39 -24 39 -62q0 -13 -12 -13q-6 0 -19 2t-23 3
q-45 -188 -142 -188q-66 0 -122 40.5t-56 77.5q0 38 80 94t174 62q8 52 11 99q-53 -72 -115 -72q-40 0 -65.5 26t-25.5 80q0 58 11.5 114.5t25 87t23.5 30.5zM112 -236q53 0 88 113q-41 -6 -80 -23t-59.5 -33.5t-20.5 -25.5q0 -13 21 -22t51 -9z" />
    <glyph glyph-name="z" unicode="z" horiz-adv-x="310" 
d="M301 247q0 -18 -45 -66.5t-119 -110.5l1 -3q38 15 111 15q18 0 34 -24.5t16 -48.5q0 -23 -10 -23q-3 0 -12.5 4.5t-18.5 6.5q-40 9 -109 9q-30 0 -54.5 -7t-25.5 -7q-16 0 -32 22t-16 35q0 14 29.5 36.5t85 65.5t99.5 94l-2 3q-27 -16 -72 -29.5t-79 -13.5
q-12 -33 -25 -55q-15 -24 -39 -24q-6 0 -10 1.5t-5 2.5l-1 2q30 38 47 84q-18 12 -29.5 32t-11.5 32q0 16 9.5 32t21.5 16q16 0 35 -10.5t23 -23.5q45 3 90.5 16.5t53.5 13.5q18 0 39 -29t21 -48z" />
    <glyph glyph-name="braceleft" unicode="{" horiz-adv-x="342" 
d="M194 173q0 -24 -14 -95.5t-14 -90.5q0 -16 6.5 -27t17.5 -11q24 0 54.5 5.5t37.5 5.5q16 0 28.5 -16.5t17.5 -31t5 -18.5q0 -5 -12.5 -9t-37.5 -6.5t-57 -2.5q-43 0 -96.5 51.5t-53.5 102.5q0 6 11.5 89.5t13.5 121.5q-32 3 -53 18.5t-21 35.5q0 13 9.5 22t22.5 9
q15 0 28 -6q27 19 36 39t21 91q22 139 61.5 186t136.5 47q21 0 39 -19.5t18 -41.5q0 -4 -2 -12q-77 -7 -111 -56t-53 -158q-21 -116 -70 -144q31 -46 31 -79z" />
    <glyph glyph-name="bar" unicode="|" horiz-adv-x="375" 
d="M226 685q26 0 54.5 -24.5t28.5 -45.5q0 -3 -5 -11.5t-8 -23.5q-21 -84 -53.5 -339t-32.5 -433q0 -13 -3.5 -19t-15.5 -6q-16 0 -33.5 26.5t-17.5 70.5q0 60 17.5 347.5t31.5 387.5q11 70 37 70z" />
    <glyph glyph-name="braceright" unicode="}" horiz-adv-x="412" 
d="M188 353q0 24 12 99.5t12 112.5q0 22 -4 34q-24 0 -73.5 -5.5t-56.5 -5.5q-12 0 -21.5 5.5t-9.5 9.5q0 24 54.5 49t90.5 25q41 0 82 -43t41 -89q0 -8 -18 -92t-18 -108q0 -17 8 -46q24 -2 49 -10.5t25 -20.5q0 -20 -11.5 -36.5t-29.5 -16.5q-24 0 -46 14
q-7 -13 -10 -23.5t-4.5 -19.5t-4.5 -36t-8 -57q-21 -137 -60 -179t-137 -42q-67 0 -67 36q0 4 2 12q46 4 72 12.5t49.5 31.5t35 67t16.5 116q7 102 60 135q-30 41 -30 71z" />
    <glyph glyph-name="asciitilde" unicode="~" horiz-adv-x="451" 
d="M98 178q-8 0 -17 18.5t-9 38.5q0 26 38 64.5t68 38.5q20 0 56.5 -25t45.5 -25q24 0 59 32q6 6 8.5 12t2.5 9.5t1 3.5q19 0 41.5 -25.5t22.5 -55.5q0 -17 -26.5 -40.5t-56.5 -23.5q-23 0 -48.5 15t-45 30.5t-26.5 15.5q-22 0 -54.5 -22t-47.5 -46q-9 -15 -12 -15z" />
    <glyph glyph-name="uni00A0" unicode="&#xa0;" horiz-adv-x="224" 
 />
    <glyph glyph-name="exclamdown" unicode="&#xa1;" horiz-adv-x="232" 
d="M123 285q-21 0 -35 13t-14 34q0 28 22.5 49.5t50.5 21.5q21 0 39 -12t18 -36q0 -27 -25 -48.5t-56 -21.5zM102 -255q-24 0 -64 18.5t-40 41.5q0 4 6.5 13t10.5 20q69 175 93 383q1 10 3 13.5t10 3.5q14 0 30 -14.5t16 -43.5q0 -176 -39 -387q-9 -48 -26 -48z" />
    <glyph glyph-name="cent" unicode="&#xa2;" horiz-adv-x="568" 
d="M332 706q34 0 58 -11t24 -27q0 -2 -3 -8.5t-8 -19t-8 -27.5q-5 -18 -15 -64q59 -12 114.5 -54.5t55.5 -88.5q0 -35 -24.5 -52t-41.5 -17q-19 0 -52 19.5t-33 39.5q0 3 2 4t7.5 2t10.5 2q49 14 58 33q-18 18 -68 18q-21 0 -48 -5q-25 -122 -45 -264q148 10 205 91
q11 -15 11 -30q0 -55 -67.5 -109t-163.5 -70q-8 -66 -12 -128q-1 -8 -1 -11t-1 -7.5t-3.5 -5.5t-6.5 -1q-5 0 -14 5t-20 14.5t-18.5 27.5t-7.5 41q0 12 5 59q-84 5 -137.5 64t-53.5 127q0 96 78 175t173 111l7 66q5 50 14 75.5t29 25.5zM92 260q0 -28 42 -49.5t102 -25.5
l31 236q-72 -32 -123.5 -80t-51.5 -81z" />
    <glyph glyph-name="sterling" unicode="&#xa3;" horiz-adv-x="591" 
d="M32 168q-8 0 -16.5 9.5t-8.5 19.5t9 14q35 10 96 23l12 34q-57 -12 -62 -12q-7 0 -17.5 9t-10.5 19t10 14q39 17 108 41q58 134 129 221.5t133 87.5q68 0 124.5 -45.5t56.5 -106.5q0 -26 -30.5 -59t-66.5 -33q-21 0 -48.5 30.5t-27.5 47.5q0 6 3 8.5t10.5 3t11.5 2.5
q33 12 48.5 28t15.5 27t-11 11q-37 0 -91 -49t-109 -131q49 11 79 11q21 0 37 -27t16 -43q0 -5 -1 -7.5t-6.5 -5t-16.5 -2.5q-68 0 -162 -16q-2 -4 -9 -17t-10 -20q117 18 136 18q21 0 36 -23t15 -39q0 -10 -5.5 -12t-29.5 -3q-63 -3 -184 -12q-21 -48 -36 -101
q144 39 258 39q21 0 57.5 -41.5t36.5 -69.5q0 -12 -6 -16t-20 -4q-3 0 -14 0.5t-18 0.5q-197 0 -320 -22q-1 -13 -2.5 -19t-7.5 -13.5t-16 -7.5q-40 0 -70 22.5t-30 63.5q0 16 61 38q10 66 26 120q-49 -6 -62 -6z" />
    <glyph glyph-name="currency" unicode="&#xa4;" horiz-adv-x="520" 
d="M375 331q0 36 -15.5 60.5t-32.5 29.5q-3 -5 -8 -5q-52 0 -91.5 -45.5t-39.5 -101.5q0 -42 22 -63.5t50 -21.5q51 0 83 47.5t32 99.5zM470 104q0 -16 -20 -16q-16 0 -47 17q-24 16 -32 30l-13 18q-44 -27 -99 -27q-54 0 -91 21q-41 -35 -52 -40l-18 -9q-20 0 -42.5 26
t-22.5 38q0 7 71 61q-8 24 -8 54q0 74 47 133q-51 57 -77 83q-8 8 -8 12q0 14 23 14q38 0 75 -39l29 -30q51 39 97 39q13 0 29 -16q39 0 72 -16q41 41 66 71q3 3 10 3q16 0 35 -23t19 -33q0 -8 -68 -74q20 -33 20 -78q0 -69 -56 -130q61 -76 61 -89z" />
    <glyph glyph-name="yen" unicode="&#xa5;" horiz-adv-x="575" 
d="M95 179q-7 0 -17.5 9t-10.5 19t10 14q47 20 118 42q-126 194 -126 301q0 28 48.5 54t79.5 26q25 0 25 -18q0 -3 -1.5 -11t-1.5 -15q0 -84 57 -223q59 97 123 173t86 86q8 4 18 4q26 0 51.5 -20t38.5 -39.5t13 -25.5q0 -5 -4.5 -9.5t-19 -14.5t-27.5 -21
q-85 -74 -196 -205q44 9 73 9q21 0 37 -27t16 -43q0 -5 -1 -7.5t-6.5 -5t-16.5 -2.5q-64 0 -157 -14l-4 -34q91 13 116 13q21 0 36 -23t15 -39q0 -10 -5.5 -12t-29.5 -3q-59 -2 -139 -8q-3 -48 -3 -104q0 -13 -3.5 -19t-15.5 -6q-20 0 -50.5 27t-30.5 70v24
q-29 -2 -59.5 -4.5t-46 -4t-19.5 -1.5q-8 0 -16.5 9.5t-8.5 19.5t9 14q45 13 146 31q0 11 2 33q-21 -4 -47 -9t-38.5 -7.5t-16.5 -2.5z" />
    <glyph glyph-name="brokenbar" unicode="&#xa6;" horiz-adv-x="375" 
d="M173 190q11 0 37.5 -17.5t26.5 -31.5q0 -7 -4 -37.5t-10.5 -109t-12.5 -186.5q-1 -14 -4 -19.5t-15 -5.5q-16 0 -33.5 26.5t-17.5 70.5q0 192 16 289q4 21 17 21zM248 272q-15 0 -45 35t-30 49q0 145 16 259q11 70 37 70t54.5 -24.5t28.5 -45.5q0 -2 -5 -11t-8 -24
q-20 -99 -28.5 -180.5t-10 -104.5t-9.5 -23z" />
    <glyph glyph-name="section" unicode="&#xa7;" horiz-adv-x="551" 
d="M495 215q0 -46 -42 -93t-111 -81q102 -52 102 -122q0 -61 -78 -110.5t-158 -49.5q-63 0 -120 32.5t-57 84.5q0 26 13.5 44t31.5 18q11 0 11 -10q0 -2 -4.5 -14.5t-4.5 -22.5q0 -22 14.5 -38.5t50.5 -16.5q60 0 119.5 41t59.5 74q0 26 -27.5 47t-67 37.5t-79.5 35
t-67.5 48.5t-27.5 68q0 49 52.5 96.5t108.5 70.5q-103 59 -103 131q0 66 74 117.5t162 51.5q68 0 114 -42t46 -102q0 -20 -10.5 -30.5t-22.5 -10.5q-15 0 -15 12q0 1 2 6t2 11q0 16 -30 29t-61 13q-72 0 -125 -27.5t-53 -54.5q0 -24 31 -45t75 -38.5t88.5 -37.5t75.5 -51.5
t31 -70.5zM394 253q0 16 -74 49q-48 -8 -102 -52t-54 -89q0 -34 63 -66q58 16 112.5 64.5t54.5 93.5z" />
    <glyph glyph-name="dieresis" unicode="&#xa8;" horiz-adv-x="439" 
d="M145 508q23 0 37 -14t14 -35q0 -30 -20 -53t-47 -23q-21 0 -38.5 12t-17.5 35q0 32 21 55t51 23zM294 515q24 0 41 -14.5t17 -34.5q0 -29 -24.5 -54.5t-52.5 -25.5q-19 0 -36 14t-17 38q0 32 21 54.5t51 22.5z" />
    <glyph glyph-name="copyright" unicode="&#xa9;" horiz-adv-x="726" 
d="M714 349q0 -59 -27.5 -122t-75 -117.5t-120.5 -89.5t-156 -35q-78 0 -138 25t-94 66.5t-51 89t-17 97.5q0 87 36 163.5t89.5 124.5t111.5 75.5t106 27.5q26 0 63 -30q35 -1 71 -10t73 -30t65 -51.5t46 -78t18 -105.5zM418 562l-2 8q-122 -22 -206 -121t-84 -217
q0 -96 57.5 -146t131.5 -50q69 0 128.5 32.5t96.5 84t57.5 111t20.5 115.5q0 50 -15.5 88.5t-39 59t-46 30.5t-42.5 10q-37 0 -57 -5zM423 514q61 0 101.5 -35t40.5 -86q0 -28 -20 -46t-32 -18q-13 0 -38 20t-25 36q0 3 15 7q38 12 45 27q-13 13 -41 13q-52 0 -107.5 -40.5
t-87.5 -87.5t-32 -75q0 -26 15 -36.5t54 -10.5q56 0 132 33.5t100 71.5q8 -12 8 -25q0 -55 -73.5 -111.5t-161.5 -56.5q-67 0 -106 44.5t-39 103.5q0 50 28 101t67.5 87.5t82.5 60t74 23.5z" />
    <glyph glyph-name="ordfeminine" unicode="&#xaa;" horiz-adv-x="325" 
d="M293 562q0 -7 -4 -12q12 -2 22 -9.5t10 -16.5q0 -3 -4.5 -13t-9.5 -28t-5 -39q0 -28 15 -28q17 0 34 26q10 -1 10 -19q0 -19 -18.5 -39t-41.5 -20q-46 0 -63 58q-45 -58 -81 -58q-37 0 -62.5 30.5t-25.5 71.5q0 58 45.5 113t85.5 55q29 0 61 -28t32 -44zM87 252
q-4 0 -10 9.5t-6 16.5q0 2 0.5 3t1.5 2.5t1.5 2.5t3 2.5t3.5 2t4.5 2.5t5.5 3q24 12 89.5 30.5t88.5 18.5q22 0 36.5 -18t14.5 -32q0 -11 -16 -13q-1 -1 -26 -3q-49 -4 -93 -11t-67.5 -11.5t-30.5 -4.5zM213 545q0 1 5.5 7t5.5 12q0 4 -4 9t-9 5t-24 -21.5t-37.5 -55.5
t-18.5 -60q0 -18 16 -18q18 0 50 36.5t41 61.5q-11 2 -18 9.5t-7 14.5z" />
    <glyph glyph-name="guillemotleft" unicode="&#xab;" horiz-adv-x="482" 
d="M119 127q-5 4 -11 20t-6 26q0 4 2 8q17 38 56 79t51 41q14 0 32 -19t18 -32q0 -2 -3 -4q-65 -43 -89 -94q3 -4 17.5 -19t24 -26t18 -26t8.5 -25q0 -25 -12 -25q-2 0 -17.5 16t-41.5 40t-47 40zM235 124q-6 4 -12.5 17.5t-6.5 23.5q0 4 2 8q32 45 82 91t64 46
q15 0 46.5 -22.5t31.5 -34.5q0 -4 -3 -4q-20 0 -65 -33t-80 -67q47 -65 47 -94q0 -25 -12 -25q-2 0 -15.5 15t-36.5 39t-42 40z" />
    <glyph glyph-name="logicalnot" unicode="&#xac;" horiz-adv-x="451" 
d="M108 258q-11 0 -23 31t-12 45q0 8 6 12q20 11 122 25t138 14q18 0 43 -28.5t25 -43.5q0 -8 -2.5 -15.5t-7 -17.5t-13 -41t-17.5 -77q-3 -13 -7 -14q-2 -1 -6 -1q-11 0 -26.5 20.5t-15.5 48.5q0 35 16 83q-69 -7 -120 -17.5t-73 -17t-27 -6.5z" />
    <glyph glyph-name="uni00AD" unicode="&#xad;" horiz-adv-x="397" 
d="M100 136q-15 0 -15 10q0 18 22 27q26 10 105.5 29.5t106.5 19.5q23 0 36.5 -23.5t13.5 -41.5q0 -8 -5.5 -10.5t-20.5 -2.5q-46 0 -143 -4t-100 -4z" />
    <glyph glyph-name="registered" unicode="&#xae;" horiz-adv-x="726" 
d="M714 349q0 -59 -27.5 -122t-75 -117.5t-120.5 -89.5t-156 -35q-78 0 -138 25t-94 66.5t-51 89t-17 97.5q0 87 36 163.5t89.5 124.5t111.5 75.5t106 27.5q26 0 63 -30q35 -1 71 -10t73 -30t65 -51.5t46 -78t18 -105.5zM418 562l-2 8q-122 -22 -206 -121t-84 -217
q0 -96 57.5 -146t131.5 -50q69 0 128.5 32.5t96.5 84t57.5 111t20.5 115.5q0 50 -15.5 88.5t-39 59t-46 30.5t-42.5 10q-37 0 -57 -5zM437 107q-27 0 -68.5 48.5t-66.5 96.5q-25 -82 -25 -139q0 -17 -13 -17q-11 0 -30 28t-19 59q0 41 17.5 105.5t27.5 90.5q-19 31 -19 34
q0 33 62 67t138 34q56 0 95.5 -40t39.5 -77q0 -35 -37.5 -64t-83.5 -43.5t-91 -20.5q56 -62 79 -77q18 -12 33 -12q5 0 12 2l7 3q1 0 4 -9.5t3 -12.5q0 -12 -26 -34t-39 -22zM459 445q-53 0 -127 -37q20 -16 20 -28q0 -7 -9 -24q-6 -11 -20 -44q63 5 122.5 47t59.5 68
q0 6 -14 12t-32 6z" />
    <glyph glyph-name="macron" unicode="&#xaf;" horiz-adv-x="363" 
d="M75 376q-11 0 -22.5 20.5t-11.5 33.5q0 6 5 8q21 8 109 19t121 11q22 0 33.5 -24.5t11.5 -45.5q0 -8 -5.5 -10.5t-20.5 -2.5q-46 0 -131.5 -4.5t-88.5 -4.5z" />
    <glyph glyph-name="degree" unicode="&#xb0;" horiz-adv-x="507" 
d="M467 492q0 -69 -59 -133t-147 -64q-82 0 -122.5 45.5t-40.5 105.5q0 91 63.5 151.5t122.5 60.5q11 0 32 -16q24 0 49 -8t48.5 -24.5t38.5 -47t15 -70.5zM377 500q0 36 -15.5 60.5t-32.5 29.5q-3 -5 -8 -5q-52 0 -91.5 -45.5t-39.5 -101.5q0 -42 22 -63.5t50 -21.5
q51 0 83 47.5t32 99.5z" />
    <glyph glyph-name="plusminus" unicode="&#xb1;" horiz-adv-x="451" 
d="M223 530q18 0 42.5 -17.5t24.5 -30.5q0 -2 -3.5 -8t-5.5 -16q-5 -19 -10 -52q64 8 89 8q22 0 33.5 -32.5t11.5 -55.5q0 -8 -5.5 -10.5t-20.5 -2.5q-53 0 -121 -3q-6 -60 -6 -108q0 -17 -13 -17q-11 0 -30 28t-19 59v36q-63 -3 -83 -3q-11 0 -22.5 25t-11.5 39q0 6 5 8
q20 8 114 20q1 47 6 85q7 48 25 48zM92 77q-11 0 -22.5 25t-11.5 39q0 6 5 8q20 8 132.5 18t149.5 10q22 0 33.5 -28.5t11.5 -50.5q0 -8 -5.5 -10.5t-20.5 -2.5q-46 0 -157.5 -4t-114.5 -4z" />
    <glyph glyph-name="twosuperior" unicode="&#xb2;" horiz-adv-x="340" 
d="M351 539q0 -44 -43 -104.5t-104 -112.5q68 7 111 7q12 0 20.5 -24.5t8.5 -44.5q0 -11 -13 -11q-2 0 -26 3.5t-61 7.5t-71 4q-28 0 -58 -3q-28 -14 -45 -14q-9 0 -19.5 10t-10.5 27q0 8 33 16q81 45 153.5 109t72.5 118q0 40 -51 40q-9 0 -21 -2t-32.5 -8.5t-40 -23.5
t-31.5 -42l-2 -6t-1 -5t-0.5 -3t-2.5 -1q-9 0 -22.5 24t-13.5 44q0 40 46.5 69.5t95.5 29.5q55 0 91.5 -28t36.5 -76z" />
    <glyph glyph-name="threesuperior" unicode="&#xb3;" horiz-adv-x="329" 
d="M111 521q0 -8 -8 -8q-11 0 -25 19t-14 38q0 30 48.5 52t116.5 22q48 0 84 -26.5t36 -72.5q0 -71 -98 -104q68 -20 68 -69q0 -53 -48.5 -90t-123.5 -37q-55 0 -80.5 20.5t-25.5 50.5q0 11 5 20t10 9l10 -7q11 -6 33.5 -12.5t51.5 -6.5q56 0 88.5 16t32.5 42
q0 15 -21.5 25.5t-56.5 10.5q-5 0 -20 -2t-23 -2q-10 0 -19 19t-9 30t18 11q23 0 55.5 6t66 25t33.5 47q0 36 -68 36q-36 0 -76.5 -19t-40.5 -43z" />
    <glyph glyph-name="acute" unicode="&#xb4;" horiz-adv-x="287" 
d="M132 547q36 0 63 -18.5t27 -32.5q0 -37 -59 -83t-88 -46q-11 0 -11 11q0 2 13 20t26.5 49t13.5 65q0 6 -0.5 13.5t-0.5 9.5q0 12 16 12z" />
    <glyph glyph-name="mu" unicode="&#xb5;" horiz-adv-x="410" 
d="M116 -8q-25 0 -42 19q-3 -41 -3 -75q0 -41 4 -77t9.5 -59t11.5 -39.5t10 -25.5t4 -11q0 -15 -21 -15q-8 0 -23.5 9t-34 25t-31.5 45.5t-13 64.5q0 90 18.5 210t44.5 205q20 62 35 62q26 0 56 -23t30 -41q0 -4 -3 -10t-7 -12.5t-6 -10.5q-32 -62 -32 -131q0 -19 10 -28
t19 -9q29 0 58 34q1 67 25 150q17 59 39 59q25 0 47 -22.5t22 -41.5t-12 -41q-14 -27 -40 -65q2 -31 8.5 -51t12.5 -26.5t11 -6.5q22 0 61.5 43t69.5 102q16 -14 16 -36q0 -26 -53.5 -98.5t-98.5 -72.5q-29 0 -57.5 16t-41.5 43q-50 -59 -103 -59z" />
    <glyph glyph-name="paragraph" unicode="&#xb6;" horiz-adv-x="678" 
d="M550 642q60 0 100.5 -42t40.5 -95q0 -8 -5 -16t-14 -8q-3 0 -8.5 8.5t-20 17.5t-37.5 9q-6 0 -19 -0.5t-20 -0.5q14 -21 14 -33q0 -6 -7 -37q-3 -11 -20.5 -77.5t-32.5 -127t-32.5 -141t-30 -158.5t-15.5 -139q0 -6 -0.5 -9.5t-2 -7t-4.5 -5t-7 -1.5q-7 0 -17.5 11.5
t-20 35t-9.5 51.5q0 79 36.5 290.5t61.5 321.5q2 12 4 19l-44 -7q-1 -4 -4 -14t-4 -16q-30 -102 -75 -322.5t-54 -368.5q-1 -9 -2 -13.5t-5 -7.5t-11 -3q-14 0 -33.5 36.5t-19.5 80.5q0 86 30 319q-29 -8 -76 -8q-85 0 -129 37t-44 94q0 52 43.5 110t115 106t172.5 79.5
t206 31.5zM165 298q75 0 114 14q18 114 31 156q-93 -30 -155 -70.5t-62 -65.5q0 -34 72 -34z" />
    <glyph glyph-name="periodcentered" unicode="&#xb7;" horiz-adv-x="200" 
d="M121 357q21 0 35 -13t14 -34q0 -28 -22.5 -49.5t-50.5 -21.5q-21 0 -39 12t-18 36q0 27 25 48.5t56 21.5z" />
    <glyph glyph-name="cedilla" unicode="&#xb8;" horiz-adv-x="232" 
d="M45 -59q0 25 45 50t74 25q6 0 10.5 -5t4.5 -11q-21 -9 -46 -29.5t-25 -28.5q3 -1 14.5 -3t16 -3.5t14 -5.5t14 -8.5t8 -13.5t3.5 -20q0 -40 -48 -85.5t-90 -45.5q-6 0 -10.5 6t-4.5 14q0 3 13 18.5t27 43.5t17 60q0 4 -18.5 17.5t-18.5 24.5z" />
    <glyph glyph-name="onesuperior" unicode="&#xb9;" horiz-adv-x="277" 
d="M53 289q0 10 25 12q20 2 75 4q0 45 12 186q-27 -34 -58 -34q-16 0 -25.5 16.5t-9.5 38.5q0 4 7 6.5t26.5 14.5t41.5 33q16 16 28 33l3 16q5 34 18 34q17 0 41 -13t24 -27q0 -4 -6 -16t-10 -17q-33 -128 -35 -272q25 0 61 -3q15 -3 24.5 -13.5t9.5 -16.5q0 -8 -10 -8
q-37 0 -103 -7t-94 -15q-3 -1 -6 -3t-4 -2q-9 0 -22 21.5t-13 31.5z" />
    <glyph glyph-name="ordmasculine" unicode="&#xba;" horiz-adv-x="280" 
d="M207 630q29 0 56 -16t34 -38q40 -17 40 -72q0 -52 -45.5 -96t-91.5 -44q-41 0 -77 36t-36 84q0 64 38.5 105t81.5 41zM97 252q-4 0 -10 9.5t-6 16.5q0 2 0.5 3t1.5 2.5t1.5 2.5t3 2.5t3.5 2t4.5 2.5t5.5 3q25 12 85.5 30.5t82.5 18.5t36.5 -18t14.5 -32q0 -11 -16 -13
q-1 -1 -26 -3q-49 -4 -90.5 -11t-62.5 -11.5t-28 -4.5zM189 414q33 0 59.5 38t26.5 77v7q-6 -1 -19 -1q-17 0 -17 5q0 1 2 6t2 11l-4 15q-27 0 -54.5 -35.5t-27.5 -81.5q0 -17 9.5 -29t22.5 -12z" />
    <glyph glyph-name="guillemotright" unicode="&#xbb;" horiz-adv-x="439" 
d="M261 230q12 -12 12 -49q0 -10 -7 -15q-53 -35 -117 -121q-9 -12 -13 -12q-10 0 -30.5 17.5t-20.5 29.5q0 25 46.5 65t82.5 62q-11 11 -35 25.5t-27 17.5q-5 4 -16.5 22t-11.5 24q0 13 10 13q4 0 25.5 -10.5t52 -30t49.5 -38.5zM381 215q14 -16 14 -49q0 -8 -8 -14
q-53 -41 -100 -92q-7 -8 -11 -15t-5.5 -10t-3.5 -3q-9 0 -29.5 22t-20.5 33q0 22 41 54.5t77 52.5q-15 16 -41.5 34.5t-28.5 20.5q-27 31 -27 37q0 10 10 10q4 0 29 -12t57 -32t47 -37z" />
    <glyph glyph-name="onequarter" unicode="&#xbc;" horiz-adv-x="720" 
d="M385 134q0 2 0.5 3t2 2.5t4.5 4t7.5 6t12 9.5t16 14t22 20.5t28.5 27.5q71 71 112 147q5 21 16 21q17 0 40.5 -13t23.5 -27q0 -2 -20 -32q-14 -54 -23 -165l38 -3q19 -3 31 -17t12 -22q0 -9 -12 -9q-14 0 -72 -2q-2 -58 -2 -91q0 -5 -0.5 -7.5t-2.5 -4t-7 -1.5
q-18 0 -34 10.5t-16 24.5q0 18 3 65q-98 -7 -127 -18q-4 -2 -7 -4.5t-4 -2.5q-11 0 -26.5 25.5t-15.5 38.5zM53 289q0 10 25 12q20 2 75 4q0 45 12 186q-27 -34 -58 -34q-16 0 -25.5 16.5t-9.5 38.5q0 4 7 6.5t26.5 14.5t41.5 33q16 16 28 33l3 16q5 34 18 34q17 0 41 -13
t24 -27q0 -4 -6 -16t-10 -17q-33 -128 -35 -272q25 0 61 -3q15 -3 24.5 -13.5t9.5 -16.5q0 -8 -10 -8q-37 0 -103 -7t-94 -15q-3 -1 -6 -3t-4 -2q-9 0 -22 21.5t-13 31.5zM204 92q0 25 191.5 245t210.5 220q12 0 31.5 -12t19.5 -26q1 9 -67 -52t-168.5 -176.5t-166.5 -229.5
q-3 -10 -8 -10q-15 0 -29 14t-14 27zM569 154q3 42 8 102q-54 -70 -94 -104q21 2 60 2h26z" />
    <glyph glyph-name="onehalf" unicode="&#xbd;" horiz-adv-x="780" 
d="M761 279q0 -44 -43 -104.5t-104 -112.5q68 7 111 7q12 0 20.5 -24.5t8.5 -44.5q0 -11 -13 -11q-2 0 -26 3.5t-61 7.5t-71 4q-28 0 -58 -3q-28 -14 -45 -14q-9 0 -19.5 10t-10.5 27q0 8 33 16q81 45 153.5 109t72.5 118q0 40 -51 40q-9 0 -21 -2t-32.5 -8.5t-40 -23.5
t-31.5 -42l-2 -6t-1 -5t-0.5 -3t-2.5 -1q-9 0 -22.5 24t-13.5 44q0 40 46.5 69.5t95.5 29.5q55 0 91.5 -28t36.5 -76zM53 289q0 10 25 12q20 2 75 4q0 45 12 186q-27 -34 -58 -34q-16 0 -25.5 16.5t-9.5 38.5q0 4 7 6.5t26.5 14.5t41.5 33q16 16 28 33l3 16q5 34 18 34
q17 0 41 -13t24 -27q0 -4 -6 -16t-10 -17q-33 -128 -35 -272q25 0 61 -3q15 -3 24.5 -13.5t9.5 -16.5q0 -8 -10 -8q-37 0 -103 -7t-94 -15q-3 -1 -6 -3t-4 -2q-9 0 -22 21.5t-13 31.5zM204 92q0 25 191.5 245t210.5 220q12 0 31.5 -12t19.5 -26q1 9 -67 -52t-168.5 -176.5
t-166.5 -229.5q-3 -10 -8 -10q-15 0 -29 14t-14 27z" />
    <glyph glyph-name="threequarters" unicode="&#xbe;" horiz-adv-x="720" 
d="M111 521q0 -8 -8 -8q-11 0 -25 19t-14 38q0 30 48.5 52t116.5 22q48 0 84 -26.5t36 -72.5q0 -71 -98 -104q68 -20 68 -69q0 -53 -48.5 -90t-123.5 -37q-55 0 -80.5 20.5t-25.5 50.5q0 11 5 20t10 9l10 -7q11 -6 33.5 -12.5t51.5 -6.5q56 0 88.5 16t32.5 42
q0 15 -21.5 25.5t-56.5 10.5q-5 0 -20 -2t-23 -2q-10 0 -19 19t-9 30t18 11q23 0 55.5 6t66 25t33.5 47q0 36 -68 36q-36 0 -76.5 -19t-40.5 -43zM385 134q0 2 0.5 3t2 2.5t4.5 4t7.5 6t12 9.5t16 14t22 20.5t28.5 27.5q71 71 112 147q5 21 16 21q17 0 40.5 -13t23.5 -27
q0 -2 -20 -32q-14 -54 -23 -165l38 -3q19 -3 31 -17t12 -22q0 -9 -12 -9q-14 0 -72 -2q-2 -58 -2 -91q0 -5 -0.5 -7.5t-2.5 -4t-7 -1.5q-18 0 -34 10.5t-16 24.5q0 18 3 65q-98 -7 -127 -18q-4 -2 -7 -4.5t-4 -2.5q-11 0 -26.5 25.5t-15.5 38.5zM204 92q0 25 191.5 245
t210.5 220q12 0 31.5 -12t19.5 -26q1 9 -67 -52t-168.5 -176.5t-166.5 -229.5q-3 -10 -8 -10q-15 0 -29 14t-14 27zM569 154q3 42 8 102q-54 -70 -94 -104q21 2 60 2h26z" />
    <glyph glyph-name="questiondown" unicode="&#xbf;" horiz-adv-x="376" 
d="M274 285q-21 0 -35 13t-14 34q0 28 22.5 49.5t50.5 21.5q21 0 39 -12t18 -36q0 -27 -25 -48.5t-56 -21.5zM355 -173q0 -35 -44 -58t-123 -23q-77 0 -129.5 54.5t-52.5 148.5q0 41 39.5 88t87.5 80.5t87.5 64.5t39.5 45q0 6 -1.5 10.5t-1.5 5.5q0 5 8 5q17 0 30.5 -27
t13.5 -50q0 -24 -26 -50t-63 -49.5t-73.5 -47.5t-62.5 -52.5t-26 -55.5q0 -32 30.5 -48t75.5 -16q44 0 78 13.5t49 28.5q5 5 7 12t3 11t4 4q13 0 31.5 -34.5t18.5 -59.5z" />
    <glyph glyph-name="Agrave" unicode="&#xc0;" horiz-adv-x="710" 
d="M671 -19q0 -9 -10 -16t-22 -7q-23 0 -59 13.5t-70.5 48t-34.5 80.5q0 86 -1 126q-55 -2 -130 -10q-122 -275 -264 -275q-34 0 -53.5 12.5t-19.5 26.5q4 0 10.5 1.5t29 14t47 33.5t63 66t77.5 105q-134 -22 -136 -22q-42 0 -42 26q0 20 220 65q61 107 100.5 216.5
t46.5 150.5q8 37 15 43t23 6q26 0 64 -21.5t49 -45.5q7 -15 11 -36.5t6.5 -53.5t3.5 -57.5t2 -74.5t2 -78q53 -3 89.5 -30.5t36.5 -46.5q0 -13 -24 -13q-9 0 -39 1t-45 1h-14q8 -149 20 -184q3 -9 7 -15q20 -33 34 -39q7 -3 7 -11zM374 288q68 12 98 16q-5 208 -15 253h-4
q-33 -147 -79 -269zM469 865q14 0 27 -22q25 -43 53.5 -73t43 -41t14.5 -15q0 -10 -7 -17t-17 -7q-51 0 -126 44t-75 84q0 12 36.5 29.5t50.5 17.5z" />
    <glyph glyph-name="Aacute" unicode="&#xc1;" horiz-adv-x="710" 
d="M671 -19q0 -9 -10 -16t-22 -7q-23 0 -59 13.5t-70.5 48t-34.5 80.5q0 86 -1 126q-55 -2 -130 -10q-122 -275 -264 -275q-34 0 -53.5 12.5t-19.5 26.5q4 0 10.5 1.5t29 14t47 33.5t63 66t77.5 105q-134 -22 -136 -22q-42 0 -42 26q0 20 220 65q61 107 100.5 216.5
t46.5 150.5q8 37 15 43t23 6q26 0 64 -21.5t49 -45.5q7 -15 11 -36.5t6.5 -53.5t3.5 -57.5t2 -74.5t2 -78q53 -3 89.5 -30.5t36.5 -46.5q0 -13 -24 -13q-9 0 -39 1t-45 1h-14q8 -149 20 -184q3 -9 7 -15q20 -33 34 -39q7 -3 7 -11zM374 288q68 12 98 16q-5 208 -15 253h-4
q-33 -147 -79 -269zM602 887q35 0 59 -27.5t24 -44.5q0 -36 -85 -75t-120 -39q-10 0 -20.5 9t-10.5 18q40 24 79.5 65.5t55.5 75.5l2 5q2 6 3 7.5t4.5 3.5t8.5 2z" />
    <glyph glyph-name="Acircumflex" unicode="&#xc2;" horiz-adv-x="710" 
d="M671 -19q0 -9 -10 -16t-22 -7q-23 0 -59 13.5t-70.5 48t-34.5 80.5q0 86 -1 126q-55 -2 -130 -10q-122 -275 -264 -275q-34 0 -53.5 12.5t-19.5 26.5q4 0 10.5 1.5t29 14t47 33.5t63 66t77.5 105q-134 -22 -136 -22q-42 0 -42 26q0 20 220 65q61 107 100.5 216.5
t46.5 150.5q8 37 15 43t23 6q26 0 64 -21.5t49 -45.5q7 -15 11 -36.5t6.5 -53.5t3.5 -57.5t2 -74.5t2 -78q53 -3 89.5 -30.5t36.5 -46.5q0 -13 -24 -13q-9 0 -39 1t-45 1h-14q8 -149 20 -184q3 -9 7 -15q20 -33 34 -39q7 -3 7 -11zM374 288q68 12 98 16q-5 208 -15 253h-4
q-33 -147 -79 -269zM550 862q18 -47 39 -80t32.5 -44.5t11.5 -12.5q0 -6 -4.5 -12.5t-11.5 -6.5t-27.5 5.5t-24.5 8.5q-31 24 -57 70q-13 -28 -62 -75q-16 -16 -29 -16q-25 0 -52 12.5t-27 24.5q0 10 11 16q32 17 72 58t57 71q6 8 15 8q11 0 33 -10t24 -17z" />
    <glyph glyph-name="Atilde" unicode="&#xc3;" horiz-adv-x="710" 
d="M671 -19q0 -9 -10 -16t-22 -7q-23 0 -59 13.5t-70.5 48t-34.5 80.5q0 86 -1 126q-55 -2 -130 -10q-122 -275 -264 -275q-34 0 -53.5 12.5t-19.5 26.5q4 0 10.5 1.5t29 14t47 33.5t63 66t77.5 105q-134 -22 -136 -22q-42 0 -42 26q0 20 220 65q61 107 100.5 216.5
t46.5 150.5q8 37 15 43t23 6q26 0 64 -21.5t49 -45.5q7 -15 11 -36.5t6.5 -53.5t3.5 -57.5t2 -74.5t2 -78q53 -3 89.5 -30.5t36.5 -46.5q0 -13 -24 -13q-9 0 -39 1t-45 1h-14q8 -149 20 -184q3 -9 7 -15q20 -33 34 -39q7 -3 7 -11zM374 288q68 12 98 16q-5 208 -15 253h-4
q-33 -147 -79 -269zM376 690q-15 0 -24.5 20.5t-9.5 52.5q0 26 23.5 57.5t51.5 31.5q17 0 60 -19.5t61 -19.5t35 16.5t20 43.5q20 0 48.5 -21.5t28.5 -52.5q0 -30 -27.5 -57t-55.5 -27q-29 0 -77 35.5t-54 35.5q-14 0 -34.5 -21.5t-34.5 -51.5q-9 -23 -11 -23z" />
    <glyph glyph-name="Adieresis" unicode="&#xc4;" horiz-adv-x="710" 
d="M671 -19q0 -9 -10 -16t-22 -7q-23 0 -59 13.5t-70.5 48t-34.5 80.5q0 86 -1 126q-55 -2 -130 -10q-122 -275 -264 -275q-34 0 -53.5 12.5t-19.5 26.5q4 0 10.5 1.5t29 14t47 33.5t63 66t77.5 105q-134 -22 -136 -22q-42 0 -42 26q0 20 220 65q61 107 100.5 216.5
t46.5 150.5q8 37 15 43t23 6q26 0 64 -21.5t49 -45.5q7 -15 11 -36.5t6.5 -53.5t3.5 -57.5t2 -74.5t2 -78q53 -3 89.5 -30.5t36.5 -46.5q0 -13 -24 -13q-9 0 -39 1t-45 1h-14q8 -149 20 -184q3 -9 7 -15q20 -33 34 -39q7 -3 7 -11zM374 288q68 12 98 16q-5 208 -15 253h-4
q-33 -147 -79 -269zM418 863q28 0 44.5 -17t16.5 -42q0 -35 -24 -63t-57 -28q-24 0 -45.5 14.5t-21.5 42.5q0 38 25.5 65.5t61.5 27.5zM607 872q29 0 49.5 -17.5t20.5 -41.5q0 -35 -29.5 -65.5t-63.5 -30.5q-24 0 -44 16.5t-20 45.5q0 39 25.5 66t61.5 27z" />
    <glyph glyph-name="Aring" unicode="&#xc5;" horiz-adv-x="710" 
d="M634 773q0 -36 -26 -71.5t-67 -48.5q24 -18 33 -35q7 -15 11 -36.5t6.5 -53.5t3.5 -57.5t2 -74.5t2 -78q53 -3 89.5 -30.5t36.5 -46.5q0 -13 -24 -13q-9 0 -39 1t-45 1h-14q8 -149 20 -184q3 -9 7 -15q20 -33 34 -39q7 -3 7 -11q0 -9 -10 -16t-22 -7q-23 0 -59 13.5
t-70.5 48t-34.5 80.5q0 86 -1 126q-55 -2 -130 -10q-122 -275 -264 -275q-34 0 -53.5 12.5t-19.5 26.5q4 0 10.5 1.5t29 14t47 33.5t63 66t77.5 105q-134 -22 -136 -22q-42 0 -42 26q0 20 220 65q61 107 100.5 216.5t46.5 150.5q6 27 8 33q-34 27 -34 74q0 59 37.5 97.5
t74.5 38.5q8 0 22 -12q4 2 6 2q35 0 66 -24t31 -72zM374 288q68 12 98 16q-5 208 -15 253h-4q-33 -147 -79 -269zM562 790q0 31 -23 34q-3 -5 -5 -5q-20 0 -40 -26.5t-20 -60.5q0 -15 8 -29t17 -16q22 8 42.5 37t20.5 66z" />
    <glyph glyph-name="AE" unicode="&#xc6;" horiz-adv-x="1184" 
d="M1013 313q0 -35 -70 -35q-125 0 -327 -23q5 -48 13 -83.5t20.5 -66.5t33 -47.5t47.5 -16.5q181 0 319 55.5t194 117.5q9 -10 9 -26q0 -24 -22.5 -57t-67 -68t-102 -64.5t-135 -49t-158.5 -19.5q-39 0 -88.5 22t-93.5 57.5t-74.5 87.5t-30.5 105v35q-88 -13 -137 -21
q-122 -275 -263 -275q-34 0 -53.5 12.5t-19.5 26.5q4 0 10.5 2t28.5 14.5t46.5 33t62.5 65t77 103.5q-122 -20 -134 -20q-42 0 -42 26q0 15 218 62q61 108 101.5 218.5t47.5 151.5q8 37 15 43t23 6q26 0 64.5 -21.5t48.5 -45.5q7 -17 12.5 -40.5t8.5 -55.5t5 -56t4.5 -68
t4.5 -65l81 14q-61 41 -61 108q0 54 62 109t150.5 88t166.5 33t135.5 -42t57.5 -106q0 -57 -39.5 -94.5t-82.5 -37.5q-42 0 -71 26.5t-29 49.5q0 14 14 14q50 0 94.5 20.5t44.5 50.5q0 13 -13.5 21.5t-35.5 8.5q-62 0 -149.5 -30.5t-150 -71.5t-62.5 -69q0 -38 66 -61
q100 15 122 15q26 0 65 -22t39 -44zM453 558q-28 -131 -81 -271l107 21q-4 183 -22 250h-4z" />
    <glyph glyph-name="Ccedilla" unicode="&#xc7;" horiz-adv-x="783" 
d="M292 -114q0 22 37 44q-76 1 -139 28t-102 70t-60 93.5t-21 101.5q0 83 38.5 159t98.5 130t132.5 94.5t142.5 60t126 19.5q105 0 175 -65t70 -132q0 -58 -40 -99.5t-89 -41.5q-36 0 -67 24t-31 66q0 27 11.5 46.5t23 26t17.5 6.5q3 0 21 -12.5t30 -12.5q19 0 32 8.5
t13 24.5q0 18 -43 40t-85 22q-109 0 -226 -68.5t-192 -166.5t-75 -180q0 -54 90 -85.5t195 -31.5q171 0 288.5 48t178.5 127q9 -10 9 -26q0 -36 -51 -89t-146 -103.5t-201 -70.5q-28 -11 -54 -27.5t-26 -23.5q37 -7 63.5 -28t26.5 -44q0 -40 -61.5 -80.5t-116.5 -40.5
q-26 0 -44 12t-18 29q0 4 28.5 18t61 36t41.5 43q0 4 -31 21.5t-31 29.5z" />
    <glyph glyph-name="Egrave" unicode="&#xc8;" horiz-adv-x="728" 
d="M552 685q78 0 135.5 -42t57.5 -106q0 -57 -39.5 -94.5t-82.5 -37.5q-42 0 -71 26.5t-29 49.5q0 14 14 14q50 0 94.5 20.5t44.5 50.5q0 13 -13.5 21.5t-35.5 8.5q-62 0 -149.5 -30.5t-150 -71.5t-62.5 -69q0 -31 46 -52q80 22 131 22q26 0 74.5 -26t48.5 -48
q0 -43 -96 -43q-33 0 -71 6q-77 -20 -135.5 -41.5t-89.5 -38.5t-50 -33.5t-24 -26t-5 -16.5q0 -6 1 -10t6.5 -11t15.5 -12.5t30.5 -12t49 -10.5t73 -6.5t99.5 -2.5q136 0 251.5 47t166.5 104q9 -10 9 -26q0 -24 -22.5 -57t-67 -68t-102 -64.5t-135 -49t-158.5 -19.5
q-83 0 -149.5 21t-110.5 70t-44 121q0 61 64 114t161 91q-59 44 -59 108q0 54 62 109t150.5 88t166.5 33zM454 865q14 0 27 -22q25 -43 53.5 -73t43 -41t14.5 -15q0 -10 -7 -17t-17 -7q-51 0 -126 44t-75 84q0 12 36.5 29.5t50.5 17.5z" />
    <glyph glyph-name="Eacute" unicode="&#xc9;" horiz-adv-x="728" 
d="M552 685q78 0 135.5 -42t57.5 -106q0 -57 -39.5 -94.5t-82.5 -37.5q-42 0 -71 26.5t-29 49.5q0 14 14 14q50 0 94.5 20.5t44.5 50.5q0 13 -13.5 21.5t-35.5 8.5q-62 0 -149.5 -30.5t-150 -71.5t-62.5 -69q0 -31 46 -52q80 22 131 22q26 0 74.5 -26t48.5 -48
q0 -43 -96 -43q-33 0 -71 6q-77 -20 -135.5 -41.5t-89.5 -38.5t-50 -33.5t-24 -26t-5 -16.5q0 -6 1 -10t6.5 -11t15.5 -12.5t30.5 -12t49 -10.5t73 -6.5t99.5 -2.5q136 0 251.5 47t166.5 104q9 -10 9 -26q0 -24 -22.5 -57t-67 -68t-102 -64.5t-135 -49t-158.5 -19.5
q-83 0 -149.5 21t-110.5 70t-44 121q0 61 64 114t161 91q-59 44 -59 108q0 54 62 109t150.5 88t166.5 33zM582 887q35 0 59 -27.5t24 -44.5q0 -36 -85 -75t-120 -39q-10 0 -20.5 9t-10.5 18q40 24 79.5 65.5t55.5 75.5l2 5q2 6 3 7.5t4.5 3.5t8.5 2z" />
    <glyph glyph-name="Ecircumflex" unicode="&#xca;" horiz-adv-x="728" 
d="M552 685q78 0 135.5 -42t57.5 -106q0 -57 -39.5 -94.5t-82.5 -37.5q-42 0 -71 26.5t-29 49.5q0 14 14 14q50 0 94.5 20.5t44.5 50.5q0 13 -13.5 21.5t-35.5 8.5q-62 0 -149.5 -30.5t-150 -71.5t-62.5 -69q0 -31 46 -52q80 22 131 22q26 0 74.5 -26t48.5 -48
q0 -43 -96 -43q-33 0 -71 6q-77 -20 -135.5 -41.5t-89.5 -38.5t-50 -33.5t-24 -26t-5 -16.5q0 -6 1 -10t6.5 -11t15.5 -12.5t30.5 -12t49 -10.5t73 -6.5t99.5 -2.5q136 0 251.5 47t166.5 104q9 -10 9 -26q0 -24 -22.5 -57t-67 -68t-102 -64.5t-135 -49t-158.5 -19.5
q-83 0 -149.5 21t-110.5 70t-44 121q0 61 64 114t161 91q-59 44 -59 108q0 54 62 109t150.5 88t166.5 33zM594 862q18 -47 39 -80t32.5 -44.5t11.5 -12.5q0 -6 -4.5 -12.5t-11.5 -6.5t-27.5 5.5t-24.5 8.5q-31 24 -57 70q-13 -28 -62 -75q-16 -16 -29 -16q-25 0 -52 12.5
t-27 24.5q0 10 11 16q32 17 72 58t57 71q6 8 15 8q11 0 33 -10t24 -17z" />
    <glyph glyph-name="Edieresis" unicode="&#xcb;" horiz-adv-x="728" 
d="M552 685q78 0 135.5 -42t57.5 -106q0 -57 -39.5 -94.5t-82.5 -37.5q-42 0 -71 26.5t-29 49.5q0 14 14 14q50 0 94.5 20.5t44.5 50.5q0 13 -13.5 21.5t-35.5 8.5q-62 0 -149.5 -30.5t-150 -71.5t-62.5 -69q0 -31 46 -52q80 22 131 22q26 0 74.5 -26t48.5 -48
q0 -43 -96 -43q-33 0 -71 6q-77 -20 -135.5 -41.5t-89.5 -38.5t-50 -33.5t-24 -26t-5 -16.5q0 -6 1 -10t6.5 -11t15.5 -12.5t30.5 -12t49 -10.5t73 -6.5t99.5 -2.5q136 0 251.5 47t166.5 104q9 -10 9 -26q0 -24 -22.5 -57t-67 -68t-102 -64.5t-135 -49t-158.5 -19.5
q-83 0 -149.5 21t-110.5 70t-44 121q0 61 64 114t161 91q-59 44 -59 108q0 54 62 109t150.5 88t166.5 33zM465 863q28 0 44.5 -17t16.5 -42q0 -35 -24 -63t-57 -28q-24 0 -45.5 14.5t-21.5 42.5q0 38 25.5 65.5t61.5 27.5zM654 872q29 0 49.5 -17.5t20.5 -41.5
q0 -35 -29.5 -65.5t-63.5 -30.5q-24 0 -44 16.5t-20 45.5q0 39 25.5 66t61.5 27z" />
    <glyph glyph-name="Igrave" unicode="&#xcc;" horiz-adv-x="629" 
d="M56 13q0 49 311 73q-37 27 -37 66q0 99 34 315q6 38 9 56q-109 -26 -183 -55q-11 -3 -17 -19q-1 -3 -1 -9t-1.5 -9t-5.5 -3q-32 0 -55 47.5t-23 114.5q0 28 106 50.5t213 32.5t161 10q44 0 88.5 -42t44.5 -60q-1 -10 -12 -14t-48 -4q-67 0 -158 -16q23 -21 23 -38
q0 -7 -10 -39q-27 -86 -50 -197t-28 -184q85 5 115 5q46 0 87.5 -19t41.5 -34q-1 -10 -12 -14t-48 -4q-90 0 -220.5 -30t-229.5 -65q-11 -4 -16.5 -10t-6 -11t-1.5 -8.5t-6 -3.5q-23 0 -44 34.5t-21 83.5zM370 865q14 0 27 -22q25 -43 53.5 -73t43 -41t14.5 -15
q0 -10 -7 -17t-17 -7q-51 0 -126 44t-75 84q0 12 36.5 29.5t50.5 17.5z" />
    <glyph glyph-name="Iacute" unicode="&#xcd;" horiz-adv-x="629" 
d="M56 13q0 49 311 73q-37 27 -37 66q0 99 34 315q6 38 9 56q-109 -26 -183 -55q-11 -3 -17 -19q-1 -3 -1 -9t-1.5 -9t-5.5 -3q-32 0 -55 47.5t-23 114.5q0 28 106 50.5t213 32.5t161 10q44 0 88.5 -42t44.5 -60q-1 -10 -12 -14t-48 -4q-67 0 -158 -16q23 -21 23 -38
q0 -7 -10 -39q-27 -86 -50 -197t-28 -184q85 5 115 5q46 0 87.5 -19t41.5 -34q-1 -10 -12 -14t-48 -4q-90 0 -220.5 -30t-229.5 -65q-11 -4 -16.5 -10t-6 -11t-1.5 -8.5t-6 -3.5q-23 0 -44 34.5t-21 83.5zM521 887q35 0 59 -27.5t24 -44.5q0 -36 -85 -75t-120 -39
q-10 0 -20.5 9t-10.5 18q40 24 79.5 65.5t55.5 75.5l2 5q2 6 3 7.5t4.5 3.5t8.5 2z" />
    <glyph glyph-name="Icircumflex" unicode="&#xce;" horiz-adv-x="629" 
d="M56 13q0 49 311 73q-37 27 -37 66q0 99 34 315q6 38 9 56q-109 -26 -183 -55q-11 -3 -17 -19q-1 -3 -1 -9t-1.5 -9t-5.5 -3q-32 0 -55 47.5t-23 114.5q0 28 106 50.5t213 32.5t161 10q44 0 88.5 -42t44.5 -60q-1 -10 -12 -14t-48 -4q-67 0 -158 -16q23 -21 23 -38
q0 -7 -10 -39q-27 -86 -50 -197t-28 -184q85 5 115 5q46 0 87.5 -19t41.5 -34q-1 -10 -12 -14t-48 -4q-90 0 -220.5 -30t-229.5 -65q-11 -4 -16.5 -10t-6 -11t-1.5 -8.5t-6 -3.5q-23 0 -44 34.5t-21 83.5zM512 862q18 -47 39 -80t32.5 -44.5t11.5 -12.5q0 -6 -4.5 -12.5
t-11.5 -6.5t-27.5 5.5t-24.5 8.5q-31 24 -57 70q-13 -28 -62 -75q-16 -16 -29 -16q-25 0 -52 12.5t-27 24.5q0 10 11 16q32 17 72 58t57 71q6 8 15 8q11 0 33 -10t24 -17z" />
    <glyph glyph-name="Idieresis" unicode="&#xcf;" horiz-adv-x="629" 
d="M56 13q0 49 311 73q-37 27 -37 66q0 99 34 315q6 38 9 56q-109 -26 -183 -55q-11 -3 -17 -19q-1 -3 -1 -9t-1.5 -9t-5.5 -3q-32 0 -55 47.5t-23 114.5q0 28 106 50.5t213 32.5t161 10q44 0 88.5 -42t44.5 -60q-1 -10 -12 -14t-48 -4q-67 0 -158 -16q23 -21 23 -38
q0 -7 -10 -39q-27 -86 -50 -197t-28 -184q85 5 115 5q46 0 87.5 -19t41.5 -34q-1 -10 -12 -14t-48 -4q-90 0 -220.5 -30t-229.5 -65q-11 -4 -16.5 -10t-6 -11t-1.5 -8.5t-6 -3.5q-23 0 -44 34.5t-21 83.5zM371 863q28 0 44.5 -17t16.5 -42q0 -35 -24 -63t-57 -28
q-24 0 -45.5 14.5t-21.5 42.5q0 38 25.5 65.5t61.5 27.5zM560 872q29 0 49.5 -17.5t20.5 -41.5q0 -35 -29.5 -65.5t-63.5 -30.5q-24 0 -44 16.5t-20 45.5q0 39 25.5 66t61.5 27z" />
    <glyph glyph-name="Eth" unicode="&#xd0;" horiz-adv-x="997" 
d="M97 448q-29 0 -29 46q0 80 108 135.5t271 55.5q113 0 213 -30t169 -79t109 -113.5t40 -132.5q0 -53 -37 -119t-99 -126.5t-156 -101t-196 -40.5q-60 0 -132 28q-13 -41 -24 -41q-43 0 -94 48t-51 85q0 15 8 21t16 6q15 0 88 -25q10 73 13 174q-78 -3 -104 -3
q-32 0 -32 25q0 10 15 21q22 16 122 37q0 117 -10 183q0 1 -0.5 4t-0.5 5q0 25 26 25q19 0 57 -28.5t38 -52.5q0 -33 -7 -117q100 17 133 17q29 0 44.5 -34.5t15.5 -60.5q0 -9 -7.5 -11.5t-26.5 -2.5q-44 0 -170 -4q-11 -94 -31 -199q38 -7 68 -7q93 0 194 52.5t169 134
t68 159.5q0 21 -14 44.5t-46.5 48.5t-80 45t-122 32.5t-163.5 12.5q-103 0 -212 -35.5t-140 -81.5z" />
    <glyph glyph-name="Ntilde" unicode="&#xd1;" horiz-adv-x="641" 
d="M395 93q0 61 41 254t46 226l-6 1q-150 -139 -222.5 -286t-72.5 -287q0 -18 2 -31.5t2 -15.5q0 -16 -23 -16q-41 0 -76.5 31t-35.5 82q0 54 29.5 235.5t33.5 252.5q4 62 8 69q6 10 26 10q27 0 64 -26.5t37 -53.5q0 -14 -7.5 -44.5t-22 -84t-23.5 -90.5l4 -2
q40 86 84.5 158.5t81 116.5t65.5 68.5t44 24.5q37 0 89.5 -31.5t52.5 -59.5q0 -66 -39.5 -234.5t-39.5 -254.5q0 -39 12.5 -70.5t33.5 -42.5q7 -3 7 -11q0 -9 -10 -16t-22 -7q-16 0 -41 7.5t-53.5 22t-48.5 42.5t-20 63zM282 690q-15 0 -24.5 20.5t-9.5 52.5q0 26 23.5 57.5
t51.5 31.5q17 0 60 -19.5t61 -19.5t35 16.5t20 43.5q20 0 48.5 -21.5t28.5 -52.5q0 -30 -27.5 -57t-55.5 -27q-29 0 -77 35.5t-54 35.5q-14 0 -34.5 -21.5t-34.5 -51.5q-9 -23 -11 -23z" />
    <glyph glyph-name="Ograve" unicode="&#xd2;" horiz-adv-x="833" 
d="M802 341q0 -66 -31 -137.5t-84.5 -133t-136 -101t-176.5 -39.5q-88 0 -156 28.5t-106.5 75t-57.5 100t-19 110.5q0 98 40.5 184.5t101 140.5t126 85t119.5 31q30 0 70 -33q40 -1 80.5 -11t82.5 -33.5t74 -58t52.5 -88.5t20.5 -120zM664 372q0 99 -43.5 162t-88.5 70
q1 -2 1 -6q0 -11 -15 -11q-143 0 -242.5 -111t-99.5 -256q0 -105 51.5 -163.5t127.5 -58.5q73 0 133.5 36t97.5 92t57.5 120t20.5 126zM457 865q14 0 27 -22q25 -43 53.5 -73t43 -41t14.5 -15q0 -10 -7 -17t-17 -7q-51 0 -126 44t-75 84q0 12 36.5 29.5t50.5 17.5z" />
    <glyph glyph-name="Oacute" unicode="&#xd3;" horiz-adv-x="833" 
d="M802 341q0 -66 -31 -137.5t-84.5 -133t-136 -101t-176.5 -39.5q-88 0 -156 28.5t-106.5 75t-57.5 100t-19 110.5q0 98 40.5 184.5t101 140.5t126 85t119.5 31q30 0 70 -33q40 -1 80.5 -11t82.5 -33.5t74 -58t52.5 -88.5t20.5 -120zM664 372q0 99 -43.5 162t-88.5 70
q1 -2 1 -6q0 -11 -15 -11q-143 0 -242.5 -111t-99.5 -256q0 -105 51.5 -163.5t127.5 -58.5q73 0 133.5 36t97.5 92t57.5 120t20.5 126zM571 887q35 0 59 -27.5t24 -44.5q0 -36 -85 -75t-120 -39q-10 0 -20.5 9t-10.5 18q40 24 79.5 65.5t55.5 75.5l2 5q2 6 3 7.5t4.5 3.5
t8.5 2z" />
    <glyph glyph-name="Ocircumflex" unicode="&#xd4;" horiz-adv-x="833" 
d="M802 341q0 -66 -31 -137.5t-84.5 -133t-136 -101t-176.5 -39.5q-88 0 -156 28.5t-106.5 75t-57.5 100t-19 110.5q0 98 40.5 184.5t101 140.5t126 85t119.5 31q30 0 70 -33q40 -1 80.5 -11t82.5 -33.5t74 -58t52.5 -88.5t20.5 -120zM664 372q0 99 -43.5 162t-88.5 70
q1 -2 1 -6q0 -11 -15 -11q-143 0 -242.5 -111t-99.5 -256q0 -105 51.5 -163.5t127.5 -58.5q73 0 133.5 36t97.5 92t57.5 120t20.5 126zM562 862q18 -47 39 -80t32.5 -44.5t11.5 -12.5q0 -6 -4.5 -12.5t-11.5 -6.5t-27.5 5.5t-24.5 8.5q-31 24 -57 70q-13 -28 -62 -75
q-16 -16 -29 -16q-25 0 -52 12.5t-27 24.5q0 10 11 16q32 17 72 58t57 71q6 8 15 8q11 0 33 -10t24 -17z" />
    <glyph glyph-name="Otilde" unicode="&#xd5;" horiz-adv-x="833" 
d="M802 341q0 -66 -31 -137.5t-84.5 -133t-136 -101t-176.5 -39.5q-88 0 -156 28.5t-106.5 75t-57.5 100t-19 110.5q0 98 40.5 184.5t101 140.5t126 85t119.5 31q30 0 70 -33q40 -1 80.5 -11t82.5 -33.5t74 -58t52.5 -88.5t20.5 -120zM664 372q0 99 -43.5 162t-88.5 70
q1 -2 1 -6q0 -11 -15 -11q-143 0 -242.5 -111t-99.5 -256q0 -105 51.5 -163.5t127.5 -58.5q73 0 133.5 36t97.5 92t57.5 120t20.5 126zM427 690q-15 0 -24.5 20.5t-9.5 52.5q0 26 23.5 57.5t51.5 31.5q18 0 61 -19.5t60 -19.5q18 0 35 16.5t20 43.5q20 0 48.5 -21.5
t28.5 -52.5q0 -30 -27.5 -57t-55.5 -27q-29 0 -77 35.5t-54 35.5q-14 0 -34.5 -21.5t-34.5 -51.5q-9 -23 -11 -23z" />
    <glyph glyph-name="Odieresis" unicode="&#xd6;" horiz-adv-x="833" 
d="M802 341q0 -66 -31 -137.5t-84.5 -133t-136 -101t-176.5 -39.5q-88 0 -156 28.5t-106.5 75t-57.5 100t-19 110.5q0 98 40.5 184.5t101 140.5t126 85t119.5 31q30 0 70 -33q40 -1 80.5 -11t82.5 -33.5t74 -58t52.5 -88.5t20.5 -120zM664 372q0 99 -43.5 162t-88.5 70
q1 -2 1 -6q0 -11 -15 -11q-143 0 -242.5 -111t-99.5 -256q0 -105 51.5 -163.5t127.5 -58.5q73 0 133.5 36t97.5 92t57.5 120t20.5 126zM456 863q28 0 44.5 -17t16.5 -42q0 -35 -24 -63t-57 -28q-24 0 -45.5 14.5t-21.5 42.5q0 38 25.5 65.5t61.5 27.5zM645 872
q29 0 49.5 -17.5t20.5 -41.5q0 -35 -29.5 -65.5t-63.5 -30.5q-24 0 -44 16.5t-20 45.5q0 39 25.5 66t61.5 27z" />
    <glyph glyph-name="multiply" unicode="&#xd7;" horiz-adv-x="451" 
d="M369 129q0 -16 -20 -16q-16 0 -47 17q-24 16 -32 30l-27 40q-69 -64 -92 -76l-18 -9q-20 0 -42.5 26t-22.5 38q0 5 13 14t45 31t63 47q-57 70 -97 110q-8 8 -8 12q0 14 23 14q38 0 75 -39l54 -56q43 40 94 100q3 3 10 3q16 0 35 -23t19 -33q0 -13 -101 -112
q76 -93 76 -118z" />
    <glyph glyph-name="Oslash" unicode="&#xd8;" horiz-adv-x="833" 
d="M802 341q0 -66 -31 -137.5t-84.5 -133t-136 -101t-176.5 -39.5q-122 0 -208 56l-98 -110q-2 -2 -4.5 -5.5t-4 -6t-3.5 -4t-5 -1.5q-11 0 -18.5 17t-7.5 41q0 21 10 41q6 15 68 85q-68 84 -68 201q0 98 40.5 184.5t101 140.5t126 85t119.5 31q30 0 70 -33q81 -2 151 -38
q22 21 57 51q46 37 62 37q25 0 42.5 -16t17.5 -40q0 -13 -2 -16t-11 -6t-18 -11q-8 -6 -30.5 -27t-35.5 -33q77 -82 77 -212zM664 372q0 56 -17 107q-232 -223 -418 -425q48 -56 126 -56q73 0 133.5 36t97.5 92t57.5 120t20.5 126zM186 136q222 245 408 430q-31 33 -62 38
q1 -2 1 -6q0 -11 -15 -11q-143 0 -242.5 -111t-99.5 -256q0 -48 10 -84z" />
    <glyph glyph-name="Ugrave" unicode="&#xd9;" horiz-adv-x="617" 
d="M574 -31q-26 0 -70 31.5t-66 82.5q-58 -71 -119 -112t-113 -41q-16 0 -34.5 6.5t-42 25t-41.5 48t-30.5 80.5t-12.5 116q0 216 67 409q25 70 50 70q32 0 79 -30.5t47 -59.5q0 -4 -3 -5t-9.5 -5.5t-12.5 -14.5q-31 -51 -57 -176t-26 -216q0 -69 14.5 -110t41.5 -41
q40 0 92 42t94 114q3 87 14.5 192t41 207.5t69.5 102.5q25 0 58.5 -34.5t33.5 -59.5q0 -150 -84 -321q-8 -51 -8 -120q0 -110 52 -147q7 -5 7 -11q0 -9 -10 -16t-22 -7zM359 865q14 0 27 -22q25 -43 53.5 -73t43 -41t14.5 -15q0 -10 -7 -17t-17 -7q-51 0 -126 44t-75 84
q0 12 36.5 29.5t50.5 17.5z" />
    <glyph glyph-name="Uacute" unicode="&#xda;" horiz-adv-x="617" 
d="M574 -31q-26 0 -70 31.5t-66 82.5q-58 -71 -119 -112t-113 -41q-16 0 -34.5 6.5t-42 25t-41.5 48t-30.5 80.5t-12.5 116q0 216 67 409q25 70 50 70q32 0 79 -30.5t47 -59.5q0 -4 -3 -5t-9.5 -5.5t-12.5 -14.5q-31 -51 -57 -176t-26 -216q0 -69 14.5 -110t41.5 -41
q40 0 92 42t94 114q3 87 14.5 192t41 207.5t69.5 102.5q25 0 58.5 -34.5t33.5 -59.5q0 -150 -84 -321q-8 -51 -8 -120q0 -110 52 -147q7 -5 7 -11q0 -9 -10 -16t-22 -7zM477 887q35 0 59 -27.5t24 -44.5q0 -36 -85 -75t-120 -39q-10 0 -20.5 9t-10.5 18q40 24 79.5 65.5
t55.5 75.5l2 5q2 6 3 7.5t4.5 3.5t8.5 2z" />
    <glyph glyph-name="Ucircumflex" unicode="&#xdb;" horiz-adv-x="617" 
d="M574 -31q-26 0 -70 31.5t-66 82.5q-58 -71 -119 -112t-113 -41q-16 0 -34.5 6.5t-42 25t-41.5 48t-30.5 80.5t-12.5 116q0 216 67 409q25 70 50 70q32 0 79 -30.5t47 -59.5q0 -4 -3 -5t-9.5 -5.5t-12.5 -14.5q-31 -51 -57 -176t-26 -216q0 -69 14.5 -110t41.5 -41
q40 0 92 42t94 114q3 87 14.5 192t41 207.5t69.5 102.5q25 0 58.5 -34.5t33.5 -59.5q0 -150 -84 -321q-8 -51 -8 -120q0 -110 52 -147q7 -5 7 -11q0 -9 -10 -16t-22 -7zM449 862q18 -47 39 -80t32.5 -44.5t11.5 -12.5q0 -6 -4.5 -12.5t-11.5 -6.5t-27.5 5.5t-24.5 8.5
q-31 24 -57 70q-13 -28 -62 -75q-16 -16 -29 -16q-25 0 -52 12.5t-27 24.5q0 10 11 16q32 17 72 58t57 71q6 8 15 8q11 0 33 -10t24 -17z" />
    <glyph glyph-name="Udieresis" unicode="&#xdc;" horiz-adv-x="617" 
d="M574 -31q-26 0 -70 31.5t-66 82.5q-58 -71 -119 -112t-113 -41q-16 0 -34.5 6.5t-42 25t-41.5 48t-30.5 80.5t-12.5 116q0 216 67 409q25 70 50 70q32 0 79 -30.5t47 -59.5q0 -4 -3 -5t-9.5 -5.5t-12.5 -14.5q-31 -51 -57 -176t-26 -216q0 -69 14.5 -110t41.5 -41
q40 0 92 42t94 114q3 87 14.5 192t41 207.5t69.5 102.5q25 0 58.5 -34.5t33.5 -59.5q0 -150 -84 -321q-8 -51 -8 -120q0 -110 52 -147q7 -5 7 -11q0 -9 -10 -16t-22 -7zM323 863q28 0 44.5 -17t16.5 -42q0 -35 -24 -63t-57 -28q-24 0 -45.5 14.5t-21.5 42.5q0 38 25.5 65.5
t61.5 27.5zM512 872q29 0 49.5 -17.5t20.5 -41.5q0 -35 -29.5 -65.5t-63.5 -30.5q-24 0 -44 16.5t-20 45.5q0 39 25.5 66t61.5 27z" />
    <glyph glyph-name="Yacute" unicode="&#xdd;" horiz-adv-x="587" 
d="M247 234q31 0 72 20.5t79 60.5q42 152 83.5 261t62.5 109q25 0 58.5 -34.5t33.5 -59.5q0 -55 -39.5 -137t-101.5 -150q-37 -174 -37 -336q0 -19 4 -31.5t8.5 -18t4.5 -7.5q0 -8 -7 -14t-17 -6q-31 0 -79 29t-48 57q0 56 45 233q-84 -59 -151 -59q-42 0 -99 56t-57 129
q0 80 17 164t40 134.5t40 50.5q32 0 79 -30.5t47 -59.5q0 -4 -3 -5t-9.5 -5.5t-12.5 -14.5q-30 -49 -46.5 -124.5t-16.5 -134.5q0 -35 13 -56t37 -21zM461 887q35 0 59 -27.5t24 -44.5q0 -36 -85 -75t-120 -39q-10 0 -20.5 9t-10.5 18q40 24 79.5 65.5t55.5 75.5l2 5
q2 6 3 7.5t4.5 3.5t8.5 2z" />
    <glyph glyph-name="Thorn" unicode="&#xde;" horiz-adv-x="707" 
d="M232 92q-35 0 -62 34q-7 -98 -7 -171q0 -13 -3.5 -19t-15.5 -6q-20 0 -50.5 27t-30.5 70q0 68 17 306q-18 -12 -36 -31q-9 0 -15.5 10t-6.5 24q0 55 67 104q12 136 18 175q11 70 37 70q31 0 74.5 -24.5t43.5 -51.5q0 -4 -7.5 -9t-10.5 -20l-17 -74q98 29 200 29
q121 0 203 -49t82 -131q0 -116 -127 -189.5t-353 -73.5zM206 397q-19 -108 -30 -208q199 6 331 49t132 121q0 34 -51.5 56t-133.5 22q-133 0 -248 -40z" />
    <glyph glyph-name="germandbls" unicode="&#xdf;" horiz-adv-x="387" 
d="M238 218q0 -6 17.5 -18.5t39 -26.5t39 -36t17.5 -43q0 -42 -38 -72t-92 -30q-34 0 -62.5 25.5t-28.5 50.5q0 17 12 17q1 0 8 -5.5t16 -5.5q36 0 61 15t25 43q0 11 -24 28.5t-47.5 40t-23.5 45.5q0 17 39.5 71.5t79 120.5t39.5 111q0 14 -12.5 25.5t-25.5 11.5
q-27 0 -72 -107t-81.5 -281.5t-36.5 -331.5q0 -7 1.5 -18.5t1.5 -14.5q0 -11 -9 -11q-36 0 -54.5 38t-18.5 70q0 14 1.5 49.5t7 107t14 144t25.5 152t39.5 140.5t57.5 100.5t77 39.5q62 0 125 -57t63 -118q0 -42 -45 -104.5t-90 -110t-45 -55.5z" />
    <glyph glyph-name="agrave" unicode="&#xe0;" horiz-adv-x="378" 
d="M287 240q0 -7 -5 -15q16 -3 28.5 -12.5t12.5 -20.5q0 -1 -14.5 -43t-14.5 -69q0 -23 9 -23q14 0 52 43t66 99q17 -14 17 -36q0 -26 -53.5 -98.5t-99.5 -72.5q-59 0 -72 80q-49 -80 -95 -80q-47 0 -79 38.5t-32 89.5q0 73 57 141.5t107 68.5q36 0 76 -35t40 -55zM188 219
l6 8q7 8 7 15q0 5 -6 12.5t-13 7.5q-18 0 -54.5 -59t-36.5 -109q0 -37 17 -37q23 0 58 47.5t49 85.5q-27 8 -27 29zM137 540q11 0 47 -17t36 -23q0 -2 -0.5 -8t-0.5 -12q0 -23 6 -63.5t6 -41.5q0 -15 -14 -15q-25 0 -64.5 59.5t-39.5 99.5q0 21 24 21z" />
    <glyph glyph-name="aacute" unicode="&#xe1;" horiz-adv-x="378" 
d="M287 240q0 -7 -5 -15q16 -3 28.5 -12.5t12.5 -20.5q0 -1 -14.5 -43t-14.5 -69q0 -23 9 -23q14 0 52 43t66 99q17 -14 17 -36q0 -26 -53.5 -98.5t-99.5 -72.5q-59 0 -72 80q-49 -80 -95 -80q-47 0 -79 38.5t-32 89.5q0 73 57 141.5t107 68.5q36 0 76 -35t40 -55zM188 219
l6 8q7 8 7 15q0 5 -6 12.5t-13 7.5q-18 0 -54.5 -59t-36.5 -109q0 -37 17 -37q23 0 58 47.5t49 85.5q-27 8 -27 29zM228 547q36 0 63 -18.5t27 -32.5q0 -37 -59 -83t-88 -46q-11 0 -11 11q0 2 13 20t26.5 49t13.5 65q0 6 -0.5 13.5t-0.5 9.5q0 12 16 12z" />
    <glyph glyph-name="acircumflex" unicode="&#xe2;" horiz-adv-x="378" 
d="M287 240q0 -7 -5 -15q16 -3 28.5 -12.5t12.5 -20.5q0 -1 -14.5 -43t-14.5 -69q0 -23 9 -23q14 0 52 43t66 99q17 -14 17 -36q0 -26 -53.5 -98.5t-99.5 -72.5q-59 0 -72 80q-49 -80 -95 -80q-47 0 -79 38.5t-32 89.5q0 73 57 141.5t107 68.5q36 0 76 -35t40 -55zM188 219
l6 8q7 8 7 15q0 5 -6 12.5t-13 7.5q-18 0 -54.5 -59t-36.5 -109q0 -37 17 -37q23 0 58 47.5t49 85.5q-27 8 -27 29zM263 533q16 -48 34 -83.5t27 -49.5t9 -16q0 -9 -11 -9q-6 0 -24.5 5.5t-21.5 8.5q-35 31 -54 70q-10 -29 -52 -75q-14 -16 -26 -16q-20 0 -44 12t-24 19
q0 3 11 12q80 79 113 141q5 8 13 8q10 0 29 -10t21 -17z" />
    <glyph glyph-name="atilde" unicode="&#xe3;" horiz-adv-x="378" 
d="M287 240q0 -7 -5 -15q16 -3 28.5 -12.5t12.5 -20.5q0 -1 -14.5 -43t-14.5 -69q0 -23 9 -23q14 0 52 43t66 99q17 -14 17 -36q0 -26 -53.5 -98.5t-99.5 -72.5q-59 0 -72 80q-49 -80 -95 -80q-47 0 -79 38.5t-32 89.5q0 73 57 141.5t107 68.5q36 0 76 -35t40 -55zM188 219
l6 8q7 8 7 15q0 5 -6 12.5t-13 7.5q-18 0 -54.5 -59t-36.5 -109q0 -37 17 -37q23 0 58 47.5t49 85.5q-27 8 -27 29zM108 360q-14 0 -26.5 16.5t-12.5 38.5q0 19 26.5 47t51.5 28q15 0 50 -20.5t50 -20.5q23 0 39 23q4 6 6 11t2 7t1 2q14 0 33.5 -18.5t19.5 -41.5
q0 -14 -18 -34t-41 -20q-25 0 -63 26t-43 26q-37 0 -66 -54q-8 -16 -9 -16z" />
    <glyph glyph-name="adieresis" unicode="&#xe4;" horiz-adv-x="378" 
d="M287 240q0 -7 -5 -15q16 -3 28.5 -12.5t12.5 -20.5q0 -1 -14.5 -43t-14.5 -69q0 -23 9 -23q14 0 52 43t66 99q17 -14 17 -36q0 -26 -53.5 -98.5t-99.5 -72.5q-59 0 -72 80q-49 -80 -95 -80q-47 0 -79 38.5t-32 89.5q0 73 57 141.5t107 68.5q36 0 76 -35t40 -55zM188 219
l6 8q7 8 7 15q0 5 -6 12.5t-13 7.5q-18 0 -54.5 -59t-36.5 -109q0 -37 17 -37q23 0 58 47.5t49 85.5q-27 8 -27 29zM160 508q23 0 37 -14t14 -35q0 -30 -20 -53t-47 -23q-21 0 -38.5 12t-17.5 35q0 32 21 55t51 23zM309 515q24 0 41 -14.5t17 -34.5q0 -29 -24.5 -54.5
t-52.5 -25.5q-19 0 -36 14t-17 38q0 32 21 54.5t51 22.5z" />
    <glyph glyph-name="aring" unicode="&#xe5;" horiz-adv-x="378" 
d="M287 240q0 -7 -5 -15q16 -3 28.5 -12.5t12.5 -20.5q0 -1 -14.5 -43t-14.5 -69q0 -23 9 -23q14 0 52 43t66 99q17 -14 17 -36q0 -26 -53.5 -98.5t-99.5 -72.5q-59 0 -72 80q-49 -80 -95 -80q-47 0 -79 38.5t-32 89.5q0 73 57 141.5t107 68.5q36 0 76 -35t40 -55zM188 219
l6 8q7 8 7 15q0 5 -6 12.5t-13 7.5q-18 0 -54.5 -59t-36.5 -109q0 -37 17 -37q23 0 58 47.5t49 85.5q-27 8 -27 29zM293 469q0 -35 -30.5 -68t-75.5 -33q-42 0 -63 23t-21 54q0 47 30 78t60 31q6 0 17 -9l2 1h3q29 0 53.5 -19t24.5 -58zM235 483q0 24 -18 27q-3 -4 -4 -4
q-16 0 -32 -21t-16 -49q0 -12 6.5 -23t13.5 -13q17 6 33.5 29.5t16.5 53.5z" />
    <glyph glyph-name="ae" unicode="&#xe6;" horiz-adv-x="499" 
d="M352 -8q-49 0 -84 25.5t-46 74.5q-54 -100 -104 -100q-47 0 -79 38.5t-32 89.5q0 73 57 141.5t107 68.5q49 0 99 -59q46 59 89 59q44 0 83 -30t39 -63q0 -50 -46.5 -88t-95.5 -38q-12 0 -34 4q5 -25 21 -43.5t40 -18.5q41 0 93.5 43t82.5 103q17 -14 17 -36
q0 -10 -17 -36.5t-43.5 -57t-66.5 -54t-80 -23.5zM108 57q23 0 59.5 47.5t50.5 84.5q-13 3 -21.5 12t-8.5 18l6 8q7 8 7 15q0 5 -6 12.5t-13 7.5q-10 0 -31.5 -26t-40.5 -67t-19 -75q0 -37 17 -37zM386 271q-17 0 -42.5 -37.5t-36.5 -74.5q7 -2 21 -2q27 0 51 32.5t24 57.5
q0 24 -17 24z" />
    <glyph glyph-name="ccedilla" unicode="&#xe7;" horiz-adv-x="289" 
d="M46 -59q0 27 53 55q-46 10 -68.5 44.5t-22.5 77.5q0 69 48 140.5t109 71.5q43 0 73 -23t30 -55q0 -22 -23 -38t-48 -16q-8 0 -8 6q0 3 1.5 8.5t1.5 9.5q0 11 -4 19.5t-7 8.5q-23 0 -52.5 -45.5t-29.5 -92.5q0 -56 44 -56q43 0 101.5 42.5t87.5 100.5q17 -14 17 -36
q0 -25 -54.5 -87t-121.5 -79q-21 -10 -42.5 -28.5t-21.5 -26.5q3 -1 14.5 -3t16 -3.5t14 -5.5t14 -8.5t8 -13.5t3.5 -20q0 -40 -48 -85.5t-90 -45.5q-6 0 -10.5 6t-4.5 14q0 3 13 18.5t27 43.5t17 60q0 4 -18.5 17.5t-18.5 24.5z" />
    <glyph glyph-name="egrave" unicode="&#xe8;" horiz-adv-x="288" 
d="M141 -8q-58 0 -96 37t-38 105q0 66 47.5 131t93.5 65q44 0 83 -30t39 -63q0 -50 -46.5 -88t-95.5 -38q-12 0 -34 4q5 -25 21 -43.5t40 -18.5q41 0 93.5 43t82.5 103q17 -14 17 -36q0 -10 -17 -36.5t-43.5 -57t-66.5 -54t-80 -23.5zM175 271q-17 0 -42.5 -37.5
t-36.5 -74.5q7 -2 21 -2q27 0 51 32.5t24 57.5q0 24 -17 24zM129 540q11 0 47 -17t36 -23q0 -2 -0.5 -8t-0.5 -12q0 -23 6 -63.5t6 -41.5q0 -15 -14 -15q-25 0 -64.5 59.5t-39.5 99.5q0 21 24 21z" />
    <glyph glyph-name="eacute" unicode="&#xe9;" horiz-adv-x="288" 
d="M141 -8q-58 0 -96 37t-38 105q0 66 47.5 131t93.5 65q44 0 83 -30t39 -63q0 -50 -46.5 -88t-95.5 -38q-12 0 -34 4q5 -25 21 -43.5t40 -18.5q41 0 93.5 43t82.5 103q17 -14 17 -36q0 -10 -17 -36.5t-43.5 -57t-66.5 -54t-80 -23.5zM175 271q-17 0 -42.5 -37.5
t-36.5 -74.5q7 -2 21 -2q27 0 51 32.5t24 57.5q0 24 -17 24zM211 547q36 0 63 -18.5t27 -32.5q0 -37 -59 -83t-88 -46q-11 0 -11 11q0 2 13.5 20t26.5 49t13 65q0 6 -0.5 13.5t-0.5 9.5q0 12 16 12z" />
    <glyph glyph-name="ecircumflex" unicode="&#xea;" horiz-adv-x="288" 
d="M141 -8q-58 0 -96 37t-38 105q0 66 47.5 131t93.5 65q44 0 83 -30t39 -63q0 -50 -46.5 -88t-95.5 -38q-12 0 -34 4q5 -25 21 -43.5t40 -18.5q41 0 93.5 43t82.5 103q17 -14 17 -36q0 -10 -17 -36.5t-43.5 -57t-66.5 -54t-80 -23.5zM175 271q-17 0 -42.5 -37.5
t-36.5 -74.5q7 -2 21 -2q27 0 51 32.5t24 57.5q0 24 -17 24zM247 533q16 -48 34 -83.5t27 -49.5t9 -16q0 -9 -11 -9q-6 0 -24.5 5.5t-21.5 8.5q-35 31 -54 70q-10 -29 -52 -75q-14 -16 -26 -16q-20 0 -44 12t-24 19q0 3 11 12q80 79 113 141q5 8 13 8q10 0 29 -10t21 -17z
" />
    <glyph glyph-name="edieresis" unicode="&#xeb;" horiz-adv-x="288" 
d="M141 -8q-58 0 -96 37t-38 105q0 66 47.5 131t93.5 65q44 0 83 -30t39 -63q0 -50 -46.5 -88t-95.5 -38q-12 0 -34 4q5 -25 21 -43.5t40 -18.5q41 0 93.5 43t82.5 103q17 -14 17 -36q0 -10 -17 -36.5t-43.5 -57t-66.5 -54t-80 -23.5zM175 271q-17 0 -42.5 -37.5
t-36.5 -74.5q7 -2 21 -2q27 0 51 32.5t24 57.5q0 24 -17 24zM129 508q23 0 37 -14t14 -35q0 -30 -20 -53t-47 -23q-21 0 -38.5 12t-17.5 35q0 32 21 55t51 23zM278 515q24 0 41 -14.5t17 -34.5q0 -29 -24.5 -54.5t-52.5 -25.5q-19 0 -36 14t-17 38q0 32 21 54.5t51 22.5z
" />
    <glyph glyph-name="igrave" unicode="&#xec;" horiz-adv-x="223" 
d="M81 330q26 0 56 -23t30 -41q0 -6 -8 -18t-9 -15q-33 -64 -33 -149q0 -12 5.5 -21t12.5 -9q23 0 62.5 43t68.5 102q17 -14 17 -36q0 -26 -53.5 -98.5t-99.5 -72.5q-40 0 -71.5 22.5t-31.5 63.5q0 59 10 119.5t22.5 96.5t21.5 36zM97 540q11 0 47 -17t36 -23q0 -2 -0.5 -8
t-0.5 -12q0 -23 6 -63.5t6 -41.5q0 -15 -14 -15q-25 0 -64.5 59.5t-39.5 99.5q0 21 24 21z" />
    <glyph glyph-name="iacute" unicode="&#xed;" horiz-adv-x="223" 
d="M81 330q26 0 56 -23t30 -41q0 -6 -8 -18t-9 -15q-33 -64 -33 -149q0 -12 5.5 -21t12.5 -9q23 0 62.5 43t68.5 102q17 -14 17 -36q0 -26 -53.5 -98.5t-99.5 -72.5q-40 0 -71.5 22.5t-31.5 63.5q0 59 10 119.5t22.5 96.5t21.5 36zM160 547q36 0 63 -18.5t27 -32.5
q0 -37 -59 -83t-88 -46q-11 0 -11 11q0 2 13 20t26.5 49t13.5 65q0 6 -0.5 13.5t-0.5 9.5q0 12 16 12z" />
    <glyph glyph-name="icircumflex" unicode="&#xee;" horiz-adv-x="223" 
d="M81 330q26 0 56 -23t30 -41q0 -6 -8 -18t-9 -15q-33 -64 -33 -149q0 -12 5.5 -21t12.5 -9q23 0 62.5 43t68.5 102q17 -14 17 -36q0 -26 -53.5 -98.5t-99.5 -72.5q-40 0 -71.5 22.5t-31.5 63.5q0 59 10 119.5t22.5 96.5t21.5 36zM203 533q16 -48 34 -83.5t27 -49.5t9 -16
q0 -9 -11 -9q-6 0 -24.5 5.5t-21.5 8.5q-35 31 -54 70q-10 -29 -52 -75q-14 -16 -26 -16q-20 0 -44 12t-24 19q0 3 11 12q80 79 113 141q5 8 13 8q10 0 29 -10t21 -17z" />
    <glyph glyph-name="idieresis" unicode="&#xef;" horiz-adv-x="223" 
d="M101 508q23 0 37 -14t14 -35q0 -30 -20 -53t-47 -23q-21 0 -38.5 12t-17.5 35q0 32 21 55t51 23zM240 515q24 0 41 -14.5t17 -34.5q0 -29 -24.5 -54.5t-52.5 -25.5q-19 0 -36 14t-17 38q0 32 21 54.5t51 22.5zM81 330q26 0 56 -23t30 -41q0 -6 -8 -18t-9 -15
q-33 -64 -33 -149q0 -12 5.5 -21t12.5 -9q23 0 62.5 43t68.5 102q17 -14 17 -36q0 -26 -53.5 -98.5t-99.5 -72.5q-40 0 -71.5 22.5t-31.5 63.5q0 59 10 119.5t22.5 96.5t21.5 36z" />
    <glyph glyph-name="eth" unicode="&#xf0;" horiz-adv-x="350" 
d="M147 417q-16 0 -16 10q0 13 20 28q13 11 59 31q-30 56 -69 71q-26 10 -26 16q0 13 26.5 32.5t55.5 19.5q26 0 54 -27t51 -73q48 16 59 16q21 0 36 -23t15 -39q0 -8 -5 -10t-28 -5q-39 -7 -50 -9q17 -65 17 -126q0 -139 -59.5 -238t-143.5 -99q-53 0 -94.5 39.5
t-41.5 105.5q0 62 49.5 127t112.5 65q51 0 83 -42q0 5 0.5 16t0.5 17q0 55 -21 115q-80 -18 -85 -18zM137 58q32 0 59.5 37.5t42.5 100.5q-17 -3 -23 -3q-13 0 -13 11q0 2 3 10t3 11q0 47 -13 47q-40 0 -67.5 -55t-27.5 -103q0 -25 10 -40.5t26 -15.5z" />
    <glyph glyph-name="ntilde" unicode="&#xf1;" horiz-adv-x="388" 
d="M140 265q0 -8 -4.5 -28t-11 -48.5t-9.5 -42.5l5 -1q100 185 130 185q26 0 53 -23t27 -41q0 -8 -24 -80.5t-24 -101.5q0 -12 5.5 -21t12.5 -9q23 0 62 42.5t69 102.5q17 -14 17 -36q0 -26 -54 -98.5t-99 -72.5q-37 0 -73 22.5t-36 51.5q0 23 14 68.5t28 79.5l14 34l-5 3
q-43 -61 -76.5 -129t-49 -99t-29.5 -31q-25 0 -47 27t-22 57q0 21 18.5 96.5t18.5 91.5q0 19 -6 33t-6 19q0 14 21 14q18 0 49.5 -21.5t31.5 -43.5zM124 360q-14 0 -26.5 16.5t-12.5 38.5q0 19 26.5 47t51.5 28q15 0 50 -20.5t50 -20.5q23 0 39 23q4 6 6 11t2 7t1 2
q14 0 33.5 -18.5t19.5 -41.5q0 -14 -18 -34t-41 -20q-25 0 -63 26t-43 26q-37 0 -66 -54q-8 -16 -9 -16z" />
    <glyph glyph-name="ograve" unicode="&#xf2;" horiz-adv-x="332" 
d="M149 330q39 0 78 -25t46 -55q44 -31 44 -60q0 -68 -52.5 -133t-115.5 -65q-53 0 -97.5 37t-44.5 96q0 80 50 142.5t92 62.5zM237 188q0 13 -1 19q-6 -1 -17 -1q-22 0 -22 6q0 1 2.5 7.5t2.5 14.5l-4 19q-33 0 -68.5 -52t-35.5 -94q0 -62 47 -62q34 0 65 51.5t31 91.5z
M165 540q11 0 47 -17t36 -23q0 -2 -0.5 -8t-0.5 -12q0 -23 6 -63.5t6 -41.5q0 -15 -14 -15q-25 0 -64.5 59.5t-39.5 99.5q0 21 24 21z" />
    <glyph glyph-name="oacute" unicode="&#xf3;" horiz-adv-x="332" 
d="M149 330q39 0 78 -25t46 -55q44 -31 44 -60q0 -68 -52.5 -133t-115.5 -65q-53 0 -97.5 37t-44.5 96q0 80 50 142.5t92 62.5zM237 188q0 13 -1 19q-6 -1 -17 -1q-22 0 -22 6q0 1 2.5 7.5t2.5 14.5l-4 19q-33 0 -68.5 -52t-35.5 -94q0 -62 47 -62q34 0 65 51.5t31 91.5z
M234 547q36 0 63 -18.5t27 -32.5q0 -37 -59 -83t-88 -46q-11 0 -11 11q0 2 13 20t26.5 49t13.5 65q0 6 -0.5 13.5t-0.5 9.5q0 12 16 12z" />
    <glyph glyph-name="ocircumflex" unicode="&#xf4;" horiz-adv-x="332" 
d="M149 330q39 0 78 -25t46 -55q44 -31 44 -60q0 -68 -52.5 -133t-115.5 -65q-53 0 -97.5 37t-44.5 96q0 80 50 142.5t92 62.5zM237 188q0 13 -1 19q-6 -1 -17 -1q-22 0 -22 6q0 1 2.5 7.5t2.5 14.5l-4 19q-33 0 -68.5 -52t-35.5 -94q0 -62 47 -62q34 0 65 51.5t31 91.5z
M263 533q16 -48 34 -83.5t27 -49.5t9 -16q0 -9 -11 -9q-6 0 -24.5 5.5t-21.5 8.5q-35 31 -54 70q-10 -29 -52 -75q-14 -16 -26 -16q-20 0 -44 12t-24 19q0 3 11 12q80 79 113 141q5 8 13 8q10 0 29 -10t21 -17z" />
    <glyph glyph-name="otilde" unicode="&#xf5;" horiz-adv-x="332" 
d="M149 330q39 0 78 -25t46 -55q44 -31 44 -60q0 -68 -52.5 -133t-115.5 -65q-53 0 -97.5 37t-44.5 96q0 80 50 142.5t92 62.5zM237 188q0 13 -1 19q-6 -1 -17 -1q-22 0 -22 6q0 1 2.5 7.5t2.5 14.5l-4 19q-33 0 -68.5 -52t-35.5 -94q0 -62 47 -62q34 0 65 51.5t31 91.5z
M107 360q-14 0 -26.5 16.5t-12.5 38.5q0 19 26.5 47t51.5 28q15 0 50 -20.5t50 -20.5q23 0 39 23q4 6 6 11t2 7t1 2q14 0 33.5 -18.5t19.5 -41.5q0 -14 -18 -34t-41 -20q-25 0 -63 26t-43 26q-37 0 -66 -54q-8 -16 -9 -16z" />
    <glyph glyph-name="odieresis" unicode="&#xf6;" horiz-adv-x="332" 
d="M149 330q39 0 78 -25t46 -55q44 -31 44 -60q0 -68 -52.5 -133t-115.5 -65q-53 0 -97.5 37t-44.5 96q0 80 50 142.5t92 62.5zM237 188q0 13 -1 19q-6 -1 -17 -1q-22 0 -22 6q0 1 2.5 7.5t2.5 14.5l-4 19q-33 0 -68.5 -52t-35.5 -94q0 -62 47 -62q34 0 65 51.5t31 91.5z
M144 508q23 0 37 -14t14 -35q0 -30 -20 -53t-47 -23q-21 0 -38.5 12t-17.5 35q0 32 21 55t51 23zM293 515q24 0 41 -14.5t17 -34.5q0 -29 -24.5 -54.5t-52.5 -25.5q-19 0 -36 14t-17 38q0 32 21 54.5t51 22.5z" />
    <glyph glyph-name="divide" unicode="&#xf7;" horiz-adv-x="451" 
d="M84 211q-11 0 -22.5 25t-11.5 39q0 6 5 8q21 8 152.5 22.5t165.5 14.5q22 0 33.5 -32.5t11.5 -55.5q0 -8 -5.5 -10.5t-20.5 -2.5q-46 0 -175.5 -4t-132.5 -4zM228 180q19 0 31 -11t12 -30q0 -25 -20 -44t-45 -19q-19 0 -34.5 10.5t-15.5 31.5q0 24 22 43t50 19zM238 464
q27 0 45.5 -13t18.5 -34q0 -30 -22 -53t-51 -23q-21 0 -38 14t-17 39q0 27 20 48.5t44 21.5z" />
    <glyph glyph-name="oslash" unicode="&#xf8;" horiz-adv-x="332" 
d="M149 330q48 0 93 -36l32 36l7 7l6 6l5 5t5 4.5t5 3t5.5 2t5.5 0.5q9 0 24.5 -10t15.5 -24q0 -4 -2 -7t-4.5 -5t-7.5 -5.5t-8 -6.5q-22 -20 -53 -54q39 -31 39 -56q0 -68 -52.5 -133t-115.5 -65q-33 0 -67 16q-24 -32 -44 -62q-6 -9 -13 -9q-8 0 -8 14q0 13 13 39
q3 8 23 38q-46 39 -46 97q0 80 50 142.5t92 62.5zM237 188v13q-69 -78 -122 -149q10 -7 26 -7q34 0 65 51.5t31 91.5zM95 92q45 70 106 151l-3 10q-33 0 -68.5 -52t-35.5 -94q0 -10 1 -15z" />
    <glyph glyph-name="ugrave" unicode="&#xf9;" 
d="M85 330q26 0 55 -22t29 -40q0 -4 -14 -35q-13 -25 -22.5 -67.5t-9.5 -76.5t16 -34q30 0 71 47q1 64 25 147q17 59 39 59q25 0 47 -22.5t22 -41.5t-12 -41l-17 -30q-11 -44 -11 -87q0 -39 11 -39q22 0 60.5 45.5t69.5 106.5q16 -14 16 -36q0 -26 -53.5 -98.5t-98.5 -72.5
q-27 0 -52 16.5t-38 42.5q-46 -59 -102 -59q-40 0 -65.5 26t-25.5 80q0 58 11.5 114.5t25 87t23.5 30.5zM187 540q11 0 47 -17t36 -23q0 -2 -0.5 -8t-0.5 -12q0 -23 6 -63.5t6 -41.5q0 -15 -14 -15q-25 0 -64.5 59.5t-39.5 99.5q0 21 24 21z" />
    <glyph glyph-name="uacute" unicode="&#xfa;" 
d="M85 330q26 0 55 -22t29 -40q0 -4 -14 -35q-13 -25 -22.5 -67.5t-9.5 -76.5t16 -34q30 0 71 47q1 64 25 147q17 59 39 59q25 0 47 -22.5t22 -41.5t-12 -41l-17 -30q-11 -44 -11 -87q0 -39 11 -39q22 0 60.5 45.5t69.5 106.5q16 -14 16 -36q0 -26 -53.5 -98.5t-98.5 -72.5
q-27 0 -52 16.5t-38 42.5q-46 -59 -102 -59q-40 0 -65.5 26t-25.5 80q0 58 11.5 114.5t25 87t23.5 30.5zM241 547q36 0 63 -18.5t27 -32.5q0 -37 -59 -83t-88 -46q-11 0 -11 11q0 2 13.5 20t26.5 49t13 65q0 6 -0.5 13.5t-0.5 9.5q0 12 16 12z" />
    <glyph glyph-name="ucircumflex" unicode="&#xfb;" 
d="M85 330q26 0 55 -22t29 -40q0 -4 -14 -35q-13 -25 -22.5 -67.5t-9.5 -76.5t16 -34q30 0 71 47q1 64 25 147q17 59 39 59q25 0 47 -22.5t22 -41.5t-12 -41l-17 -30q-11 -44 -11 -87q0 -39 11 -39q22 0 60.5 45.5t69.5 106.5q16 -14 16 -36q0 -26 -53.5 -98.5t-98.5 -72.5
q-27 0 -52 16.5t-38 42.5q-46 -59 -102 -59q-40 0 -65.5 26t-25.5 80q0 58 11.5 114.5t25 87t23.5 30.5zM291 533q16 -48 34 -83.5t27 -49.5t9 -16q0 -9 -11 -9q-6 0 -24.5 5.5t-21.5 8.5q-35 31 -54 70q-10 -29 -52 -75q-14 -16 -26 -16q-20 0 -44 12t-24 19q0 3 11 12
q80 79 113 141q5 8 13 8q10 0 29 -10t21 -17z" />
    <glyph glyph-name="udieresis" unicode="&#xfc;" 
d="M85 330q26 0 55 -22t29 -40q0 -4 -14 -35q-13 -25 -22.5 -67.5t-9.5 -76.5t16 -34q30 0 71 47q1 64 25 147q17 59 39 59q25 0 47 -22.5t22 -41.5t-12 -41l-17 -30q-11 -44 -11 -87q0 -39 11 -39q22 0 60.5 45.5t69.5 106.5q16 -14 16 -36q0 -26 -53.5 -98.5t-98.5 -72.5
q-27 0 -52 16.5t-38 42.5q-46 -59 -102 -59q-40 0 -65.5 26t-25.5 80q0 58 11.5 114.5t25 87t23.5 30.5zM182 508q23 0 37 -14t14 -35q0 -30 -20 -53t-47 -23q-21 0 -38.5 12t-17.5 35q0 32 21 55t51 23zM331 515q24 0 41 -14.5t17 -34.5q0 -29 -24.5 -54.5t-52.5 -25.5
q-19 0 -36 14t-17 38q0 32 21 54.5t51 22.5z" />
    <glyph glyph-name="yacute" unicode="&#xfd;" horiz-adv-x="363" 
d="M85 330q26 0 55 -22t29 -40q0 -4 -14 -35q-13 -25 -22.5 -67.5t-9.5 -76.5t16 -34q39 0 93 72q0 93 13 141q6 24 13 32t20 8q25 0 46.5 -22.5t21.5 -41.5q0 -17 -11 -41q-3 -4 -14 -29q-4 -127 -20 -225q39 -24 39 -62q0 -13 -12 -13q-6 0 -19 2t-23 3
q-45 -188 -142 -188q-66 0 -122 40.5t-56 77.5q0 38 80 94t174 62q8 52 11 99q-53 -72 -115 -72q-40 0 -65.5 26t-25.5 80q0 58 11.5 114.5t25 87t23.5 30.5zM112 -236q53 0 88 113q-41 -6 -80 -23t-59.5 -33.5t-20.5 -25.5q0 -13 21 -22t51 -9zM252 547q36 0 63 -18.5
t27 -32.5q0 -37 -59 -83t-88 -46q-11 0 -11 11q0 2 13 20t26.5 49t13.5 65q0 6 -0.5 13.5t-0.5 9.5q0 12 16 12z" />
    <glyph glyph-name="thorn" unicode="&#xfe;" horiz-adv-x="350" 
d="M216 517l-7 -13q-7 -12 -12.5 -23.5t-16 -37t-20 -53.5t-21.5 -72.5t-24 -95.5q50 108 116 108q40 0 71.5 -35.5t31.5 -84.5q0 -76 -49.5 -147t-91.5 -71q-47 0 -89 48q-19 -86 -19 -158q0 -54 2.5 -90t5.5 -50.5t3 -17.5q0 -15 -21 -15q-14 0 -34.5 5.5t-42.5 24
t-22 46.5q0 106 57.5 428t73.5 367q14 38 33 38q25 0 59 -27t34 -45q0 -3 -1.5 -5l-6 -8t-9.5 -16zM227 256q-70 -35 -108 -159q27 -33 56 -33q22 0 44 51.5t22 96.5q0 44 -14 44z" />
    <glyph glyph-name="ydieresis" unicode="&#xff;" horiz-adv-x="363" 
d="M85 330q26 0 55 -22t29 -40q0 -4 -14 -35q-13 -25 -22.5 -67.5t-9.5 -76.5t16 -34q39 0 93 72q0 93 13 141q6 24 13 32t20 8q25 0 46.5 -22.5t21.5 -41.5q0 -17 -11 -41q-3 -4 -14 -29q-4 -127 -20 -225q39 -24 39 -62q0 -13 -12 -13q-6 0 -19 2t-23 3
q-45 -188 -142 -188q-66 0 -122 40.5t-56 77.5q0 38 80 94t174 62q8 52 11 99q-53 -72 -115 -72q-40 0 -65.5 26t-25.5 80q0 58 11.5 114.5t25 87t23.5 30.5zM112 -236q53 0 88 113q-41 -6 -80 -23t-59.5 -33.5t-20.5 -25.5q0 -13 21 -22t51 -9zM168 508q23 0 37 -14t14 -35
q0 -30 -20 -53t-47 -23q-21 0 -38.5 12t-17.5 35q0 32 21 55t51 23zM317 515q24 0 41 -14.5t17 -34.5q0 -29 -24.5 -54.5t-52.5 -25.5q-19 0 -36 14t-17 38q0 32 21 54.5t51 22.5z" />
    <glyph glyph-name="Amacron" unicode="&#x100;" horiz-adv-x="710" 
d="M671 -19q0 -9 -10 -16t-22 -7q-23 0 -59 13.5t-70.5 48t-34.5 80.5q0 86 -1 126q-55 -2 -130 -10q-122 -275 -264 -275q-34 0 -53.5 12.5t-19.5 26.5q4 0 10.5 1.5t29 14t47 33.5t63 66t77.5 105q-134 -22 -136 -22q-42 0 -42 26q0 20 220 65q61 107 100.5 216.5
t46.5 150.5q8 37 15 43t23 6q26 0 64 -21.5t49 -45.5q7 -15 11 -36.5t6.5 -53.5t3.5 -57.5t2 -74.5t2 -78q53 -3 89.5 -30.5t36.5 -46.5q0 -13 -24 -13q-9 0 -39 1t-45 1h-14q8 -149 20 -184q3 -9 7 -15q20 -33 34 -39q7 -3 7 -11zM374 288q68 12 98 16q-5 208 -15 253h-4
q-33 -147 -79 -269zM335 706q-12 0 -24.5 22.5t-12.5 36.5q0 7 5 9q22 9 147.5 21t165.5 12q24 0 36.5 -27t12.5 -50q0 -9 -6 -11.5t-22 -2.5q-51 0 -174.5 -5t-127.5 -5z" />
    <glyph glyph-name="amacron" unicode="&#x101;" horiz-adv-x="378" 
d="M287 240q0 -7 -5 -15q16 -3 28.5 -12.5t12.5 -20.5q0 -1 -14.5 -43t-14.5 -69q0 -23 9 -23q14 0 52 43t66 99q17 -14 17 -36q0 -26 -53.5 -98.5t-99.5 -72.5q-59 0 -72 80q-49 -80 -95 -80q-47 0 -79 38.5t-32 89.5q0 73 57 141.5t107 68.5q36 0 76 -35t40 -55zM188 219
l6 8q7 8 7 15q0 5 -6 12.5t-13 7.5q-18 0 -54.5 -59t-36.5 -109q0 -37 17 -37q23 0 58 47.5t49 85.5q-27 8 -27 29zM89 376q-11 0 -22.5 20.5t-11.5 33.5q0 6 5 8q21 8 109 19t121 11q22 0 33.5 -24.5t11.5 -45.5q0 -8 -5.5 -10.5t-20.5 -2.5q-46 0 -131.5 -4.5t-88.5 -4.5z
" />
    <glyph glyph-name="Abreve" unicode="&#x102;" horiz-adv-x="710" 
d="M671 -19q0 -9 -10 -16t-22 -7q-23 0 -59 13.5t-70.5 48t-34.5 80.5q0 86 -1 126q-55 -2 -130 -10q-122 -275 -264 -275q-34 0 -53.5 12.5t-19.5 26.5q4 0 10.5 1.5t29 14t47 33.5t63 66t77.5 105q-134 -22 -136 -22q-42 0 -42 26q0 20 220 65q61 107 100.5 216.5
t46.5 150.5q8 37 15 43t23 6q26 0 64 -21.5t49 -45.5q7 -15 11 -36.5t6.5 -53.5t3.5 -57.5t2 -74.5t2 -78q53 -3 89.5 -30.5t36.5 -46.5q0 -13 -24 -13q-9 0 -39 1t-45 1h-14q8 -149 20 -184q3 -9 7 -15q20 -33 34 -39q7 -3 7 -11zM374 288q68 12 98 16q-5 208 -15 253h-4
q-33 -147 -79 -269zM517 705q-57 0 -92 51.5t-35 99.5q0 10 13 10q7 0 23.5 -19.5t21.5 -32.5q7 -17 18.5 -29.5t21.5 -12.5q27 0 51.5 28t33.5 60q5 20 13 20q24 0 48 -23.5t24 -34.5q0 -45 -39 -81t-102 -36z" />
    <glyph glyph-name="abreve" unicode="&#x103;" horiz-adv-x="378" 
d="M287 240q0 -7 -5 -15q16 -3 28.5 -12.5t12.5 -20.5q0 -1 -14.5 -43t-14.5 -69q0 -23 9 -23q14 0 52 43t66 99q17 -14 17 -36q0 -26 -53.5 -98.5t-99.5 -72.5q-59 0 -72 80q-49 -80 -95 -80q-47 0 -79 38.5t-32 89.5q0 73 57 141.5t107 68.5q36 0 76 -35t40 -55zM188 219
l6 8q7 8 7 15q0 5 -6 12.5t-13 7.5q-18 0 -54.5 -59t-36.5 -109q0 -37 17 -37q23 0 58 47.5t49 85.5q-27 8 -27 29zM205 382q-46 0 -72 43t-26 87q0 9 11 9q5 0 16.5 -14t15.5 -25q12 -39 32 -39q26 0 43 21.5t25 51.5q4 18 10 18q19 0 38.5 -18t19.5 -27q0 -41 -31.5 -74
t-81.5 -33z" />
    <glyph glyph-name="Aogonek" unicode="&#x104;" horiz-adv-x="710" 
d="M496 -120q0 61 59 104q-80 43 -80 116q0 86 -1 126q-55 -2 -130 -10q-122 -275 -264 -275q-34 0 -53.5 12.5t-19.5 26.5q4 0 10.5 1.5t29 14t47 33.5t63 66t77.5 105q-134 -22 -136 -22q-42 0 -42 26q0 20 220 65q61 107 100.5 216.5t46.5 150.5q8 37 15 43t23 6
q26 0 64 -21.5t49 -45.5q7 -15 11 -36.5t6.5 -53.5t3.5 -57.5t2 -74.5t2 -78q53 -3 89.5 -30.5t36.5 -46.5q0 -13 -24 -13q-9 0 -39 1t-45 1h-14q8 -149 20 -184q3 -9 7 -15q10 -20 27 -34q18 -16 18 -20q0 -11 -14 -17q-53 -24 -79 -55t-26 -52q0 -17 21 -17q22 0 56 18.5
t41 33.5q15 -4 30 -28.5t15 -46.5t-29 -41t-64 -19q-38 0 -84 40.5t-46 86.5zM374 288q68 12 98 16q-5 208 -15 253h-4q-33 -147 -79 -269z" />
    <glyph glyph-name="aogonek" unicode="&#x105;" horiz-adv-x="378" 
d="M287 240q0 -7 -5 -15q16 -3 28.5 -12.5t12.5 -20.5q0 -1 -14.5 -43t-14.5 -69q0 -23 9 -23q14 0 52 43t66 99q17 -14 17 -36q0 -18 -34 -69.5t-73 -82.5q-16 -13 -41.5 -32t-38.5 -29t-27.5 -23t-20.5 -23t-6 -19q0 -11 11 -19t28 -8q22 0 42.5 10.5t27.5 24.5
q13 -3 20.5 -21.5t7.5 -32.5q0 -22 -24.5 -38t-59.5 -16q-37 0 -72.5 35t-35.5 81q0 33 24 57.5t74 51.5q-19 19 -27 62q-49 -80 -95 -80q-47 0 -79 38.5t-32 89.5q0 73 57 141.5t107 68.5q36 0 76 -35t40 -55zM188 219l6 8q7 8 7 15q0 5 -6 12.5t-13 7.5q-18 0 -54.5 -59
t-36.5 -109q0 -37 17 -37q23 0 58 47.5t49 85.5q-27 8 -27 29z" />
    <glyph glyph-name="Cacute" unicode="&#x106;" horiz-adv-x="783" 
d="M545 686q105 0 175 -65t70 -132q0 -58 -40 -99.5t-89 -41.5q-36 0 -67 24t-31 66q0 27 11.5 46.5t23 26t17.5 6.5q3 0 21 -12.5t30 -12.5q19 0 32 8.5t13 24.5q0 18 -43 40t-85 22q-109 0 -226 -68.5t-192 -166.5t-75 -180q0 -54 90 -85.5t195 -31.5q171 0 288.5 48
t178.5 127q9 -10 9 -26q0 -31 -42.5 -77t-109.5 -90t-166 -75.5t-198 -31.5q-77 0 -141.5 27t-104 70t-61 94t-21.5 102q0 83 38.5 159t98.5 130t132.5 94.5t142.5 60t126 19.5zM589 887q35 0 59 -27.5t24 -44.5q0 -36 -85 -75t-120 -39q-10 0 -20.5 9t-10.5 18
q40 24 79.5 65.5t55.5 75.5l2 5q2 6 3 7.5t4.5 3.5t8.5 2z" />
    <glyph glyph-name="cacute" unicode="&#x107;" horiz-adv-x="289" 
d="M134 -8q-64 0 -95 38t-31 88q0 69 48 140.5t109 71.5q43 0 73 -23t30 -55q0 -22 -23 -38t-48 -16q-8 0 -8 6q0 3 1.5 8.5t1.5 9.5q0 11 -4 19.5t-7 8.5q-23 0 -52.5 -45.5t-29.5 -92.5q0 -56 44 -56q43 0 101.5 42.5t87.5 100.5q17 -14 17 -36q0 -10 -17 -36.5t-44 -57
t-69 -54t-85 -23.5zM215 547q36 0 63 -18.5t27 -32.5q0 -37 -59 -83t-88 -46q-11 0 -11 11q0 2 13.5 20t26.5 49t13 65q0 6 -0.5 13.5t-0.5 9.5q0 12 16 12z" />
    <glyph glyph-name="Ccircumflex" unicode="&#x108;" horiz-adv-x="783" 
d="M545 686q105 0 175 -65t70 -132q0 -58 -40 -99.5t-89 -41.5q-36 0 -67 24t-31 66q0 27 11.5 46.5t23 26t17.5 6.5q3 0 21 -12.5t30 -12.5q19 0 32 8.5t13 24.5q0 18 -43 40t-85 22q-109 0 -226 -68.5t-192 -166.5t-75 -180q0 -54 90 -85.5t195 -31.5q171 0 288.5 48
t178.5 127q9 -10 9 -26q0 -31 -42.5 -77t-109.5 -90t-166 -75.5t-198 -31.5q-77 0 -141.5 27t-104 70t-61 94t-21.5 102q0 83 38.5 159t98.5 130t132.5 94.5t142.5 60t126 19.5zM583 862q18 -47 39 -80t32.5 -44.5t11.5 -12.5q0 -6 -4.5 -12.5t-11.5 -6.5t-27.5 5.5
t-24.5 8.5q-31 24 -57 70q-13 -28 -62 -75q-16 -16 -29 -16q-25 0 -52 12.5t-27 24.5q0 10 11 16q32 17 72 58t57 71q6 8 15 8q11 0 33 -10t24 -17z" />
    <glyph glyph-name="ccircumflex" unicode="&#x109;" horiz-adv-x="289" 
d="M134 -8q-64 0 -95 38t-31 88q0 69 48 140.5t109 71.5q43 0 73 -23t30 -55q0 -22 -23 -38t-48 -16q-8 0 -8 6q0 3 1.5 8.5t1.5 9.5q0 11 -4 19.5t-7 8.5q-23 0 -52.5 -45.5t-29.5 -92.5q0 -56 44 -56q43 0 101.5 42.5t87.5 100.5q17 -14 17 -36q0 -10 -17 -36.5t-44 -57
t-69 -54t-85 -23.5zM244 533q16 -48 34 -83.5t27 -49.5t9 -16q0 -9 -11 -9q-6 0 -24.5 5.5t-21.5 8.5q-35 31 -54 70q-10 -29 -52 -75q-14 -16 -26 -16q-20 0 -44 12t-24 19q0 3 11 12q80 79 113 141q5 8 13 8q10 0 29 -10t21 -17z" />
    <glyph glyph-name="Cdotaccent" unicode="&#x10a;" horiz-adv-x="783" 
d="M545 686q105 0 175 -65t70 -132q0 -58 -40 -99.5t-89 -41.5q-36 0 -67 24t-31 66q0 27 11.5 46.5t23 26t17.5 6.5q3 0 21 -12.5t30 -12.5q19 0 32 8.5t13 24.5q0 18 -43 40t-85 22q-109 0 -226 -68.5t-192 -166.5t-75 -180q0 -54 90 -85.5t195 -31.5q171 0 288.5 48
t178.5 127q9 -10 9 -26q0 -31 -42.5 -77t-109.5 -90t-166 -75.5t-198 -31.5q-77 0 -141.5 27t-104 70t-61 94t-21.5 102q0 83 38.5 159t98.5 130t132.5 94.5t142.5 60t126 19.5zM556 885q38 0 63 -22t25 -47q0 -37 -35 -64t-73 -27q-27 0 -50.5 16t-23.5 47q0 40 27.5 68.5
t66.5 28.5z" />
    <glyph glyph-name="cdotaccent" unicode="&#x10b;" horiz-adv-x="289" 
d="M134 -8q-64 0 -95 38t-31 88q0 69 48 140.5t109 71.5q43 0 73 -23t30 -55q0 -22 -23 -38t-48 -16q-8 0 -8 6q0 3 1.5 8.5t1.5 9.5q0 11 -4 19.5t-7 8.5q-23 0 -52.5 -45.5t-29.5 -92.5q0 -56 44 -56q43 0 101.5 42.5t87.5 100.5q17 -14 17 -36q0 -10 -17 -36.5t-44 -57
t-69 -54t-85 -23.5zM211 500q29 0 48 -14.5t19 -34.5q0 -31 -25 -56t-55 -25q-23 0 -42 13t-19 39q0 29 24.5 53.5t49.5 24.5z" />
    <glyph glyph-name="Ccaron" unicode="&#x10c;" horiz-adv-x="783" 
d="M545 686q105 0 175 -65t70 -132q0 -58 -40 -99.5t-89 -41.5q-36 0 -67 24t-31 66q0 27 11.5 46.5t23 26t17.5 6.5q3 0 21 -12.5t30 -12.5q19 0 32 8.5t13 24.5q0 18 -43 40t-85 22q-109 0 -226 -68.5t-192 -166.5t-75 -180q0 -54 90 -85.5t195 -31.5q171 0 288.5 48
t178.5 127q9 -10 9 -26q0 -31 -42.5 -77t-109.5 -90t-166 -75.5t-198 -31.5q-77 0 -141.5 27t-104 70t-61 94t-21.5 102q0 83 38.5 159t98.5 130t132.5 94.5t142.5 60t126 19.5zM481 726q-17 48 -35.5 81t-28.5 44t-10 12q0 6 4.5 12.5t11.5 6.5q6 0 22.5 -5t20.5 -9
q31 -24 57 -70q13 28 62 75q16 16 29 16q25 0 52 -12.5t27 -24.5q0 -10 -11 -16q-31 -16 -68 -55.5t-61 -73.5q-6 -8 -15 -8q-11 0 -33 10t-24 17z" />
    <glyph glyph-name="ccaron" unicode="&#x10d;" horiz-adv-x="289" 
d="M134 -8q-64 0 -95 38t-31 88q0 69 48 140.5t109 71.5q43 0 73 -23t30 -55q0 -22 -23 -38t-48 -16q-8 0 -8 6q0 3 1.5 8.5t1.5 9.5q0 11 -4 19.5t-7 8.5q-23 0 -52.5 -45.5t-29.5 -92.5q0 -56 44 -56q43 0 101.5 42.5t87.5 100.5q17 -14 17 -36q0 -10 -17 -36.5t-44 -57
t-69 -54t-85 -23.5zM153 395q-16 48 -34 83.5t-27 49.5t-9 16q0 9 11 9q6 0 24.5 -5.5t21.5 -8.5q35 -31 54 -70q22 26 55 62q14 16 26 16q20 0 41.5 -11t21.5 -19q0 -3 -11 -12q-60 -50 -122 -125q-8 -8 -13 -8q-9 0 -23 8t-16 15z" />
    <glyph glyph-name="Dcaron" unicode="&#x10e;" horiz-adv-x="997" 
d="M97 448q-29 0 -29 46q0 80 108 135.5t271 55.5q113 0 213 -30t169 -79t109 -113.5t40 -132.5q0 -53 -37 -119t-99 -126.5t-156 -101t-196 -40.5q-60 0 -132 28q-13 -41 -24 -41q-43 0 -94 48t-51 85q0 15 8 21t16 6q15 0 88 -25q14 105 14 248q0 122 -10 189q0 1 -0.5 4
t-0.5 5q0 25 26 25q19 0 57 -28.5t38 -52.5q0 -63 -15 -190.5t-34 -221.5q38 -7 68 -7q93 0 194 52.5t169 134t68 159.5q0 21 -14 44.5t-46.5 48.5t-80 45t-122 32.5t-163.5 12.5q-103 0 -212 -35.5t-140 -81.5zM492 726q-17 48 -35.5 81t-28.5 44t-10 12q0 6 4.5 12.5
t11.5 6.5q6 0 22.5 -5t20.5 -9q31 -24 57 -70q13 28 62 75q16 16 29 16q25 0 52 -12.5t27 -24.5q0 -10 -11 -16q-31 -16 -68 -55.5t-61 -73.5q-6 -8 -15 -8q-11 0 -33 10t-24 17z" />
    <glyph glyph-name="dcaron" unicode="&#x10f;" horiz-adv-x="438" 
d="M385 109q15 0 15 -26q0 -24 -25.5 -57.5t-56.5 -33.5q-34 0 -62 24t-44 59q-48 -83 -94 -83q-47 0 -79 38.5t-32 89.5q0 73 57 141.5t107 68.5q27 0 64 -26q46 314 87 314q27 0 53.5 -26t26.5 -53q0 -50 -29.5 -148t-66.5 -182q-12 -66 -12 -103q0 -60 26 -60q10 0 31 21
t34 42zM222 201q0 4 1 9q-21 52 -41 52q-19 0 -55 -61t-36 -107q0 -37 17 -37q19 0 50.5 36.5t51.5 76.5q8 17 12 31zM489 651q38 0 68 -14.5t30 -35.5q0 -28 -48.5 -107.5t-71.5 -79.5q-6 0 -14.5 3t-8.5 7q0 3 6 29.5t13.5 67.5t10.5 75q1 8 1.5 19t0.5 16t1.5 10.5t4 7.5
t7.5 2z" />
    <glyph glyph-name="Dcroat" unicode="&#x110;" horiz-adv-x="997" 
d="M97 448q-29 0 -29 46q0 80 108 135.5t271 55.5q113 0 213 -30t169 -79t109 -113.5t40 -132.5q0 -53 -37 -119t-99 -126.5t-156 -101t-196 -40.5q-60 0 -132 28q-13 -41 -24 -41q-43 0 -94 48t-51 85q0 15 8 21t16 6q15 0 88 -25q10 73 13 174q-78 -3 -104 -3
q-32 0 -32 25q0 10 15 21q22 16 122 37q0 117 -10 183q0 1 -0.5 4t-0.5 5q0 25 26 25q19 0 57 -28.5t38 -52.5q0 -33 -7 -117q100 17 133 17q29 0 44.5 -34.5t15.5 -60.5q0 -9 -7.5 -11.5t-26.5 -2.5q-44 0 -170 -4q-11 -94 -31 -199q38 -7 68 -7q93 0 194 52.5t169 134
t68 159.5q0 21 -14 44.5t-46.5 48.5t-80 45t-122 32.5t-163.5 12.5q-103 0 -212 -35.5t-140 -81.5z" />
    <glyph glyph-name="dcroat" unicode="&#x111;" horiz-adv-x="401" 
d="M171 330q27 0 64 -26q3 25 13 83q-15 -1 -35.5 -2t-30.5 -1.5t-14 -0.5q-15 0 -15 10q0 18 22 27q29 11 83 23q32 175 64 175q27 0 53.5 -26t26.5 -53q0 -20 -9 -69q15 3 25 3q14 0 25 -19t11 -46q0 -8 -5.5 -10.5t-20.5 -2.5q-34 0 -55 -1q-26 -91 -67 -185
q-10 -50 -10 -92q0 -65 20 -65q22 0 59.5 43t68.5 104q17 -14 17 -36q0 -26 -53.5 -98.5t-99.5 -72.5q-34 0 -59 23t-39 57q-48 -80 -92 -80q-47 0 -79 38.5t-32 89.5q0 73 57 141.5t107 68.5zM222 201q0 4 1 9q-21 52 -41 52q-19 0 -55 -61t-36 -107q0 -37 17 -37
q19 0 50.5 36.5t51.5 76.5q8 17 12 31z" />
    <glyph glyph-name="Emacron" unicode="&#x112;" horiz-adv-x="728" 
d="M552 685q78 0 135.5 -42t57.5 -106q0 -57 -39.5 -94.5t-82.5 -37.5q-42 0 -71 26.5t-29 49.5q0 14 14 14q50 0 94.5 20.5t44.5 50.5q0 13 -13.5 21.5t-35.5 8.5q-62 0 -149.5 -30.5t-150 -71.5t-62.5 -69q0 -31 46 -52q80 22 131 22q26 0 74.5 -26t48.5 -48
q0 -43 -96 -43q-33 0 -71 6q-77 -20 -135.5 -41.5t-89.5 -38.5t-50 -33.5t-24 -26t-5 -16.5q0 -6 1 -10t6.5 -11t15.5 -12.5t30.5 -12t49 -10.5t73 -6.5t99.5 -2.5q136 0 251.5 47t166.5 104q9 -10 9 -26q0 -24 -22.5 -57t-67 -68t-102 -64.5t-135 -49t-158.5 -19.5
q-83 0 -149.5 21t-110.5 70t-44 121q0 61 64 114t161 91q-59 44 -59 108q0 54 62 109t150.5 88t166.5 33zM364 706q-12 0 -24.5 22.5t-12.5 36.5q0 7 5 9q22 9 147.5 21t165.5 12q24 0 36.5 -27t12.5 -50q0 -9 -6 -11.5t-22 -2.5q-51 0 -174.5 -5t-127.5 -5z" />
    <glyph glyph-name="emacron" unicode="&#x113;" horiz-adv-x="288" 
d="M141 -8q-58 0 -96 37t-38 105q0 66 47.5 131t93.5 65q44 0 83 -30t39 -63q0 -50 -46.5 -88t-95.5 -38q-12 0 -34 4q5 -25 21 -43.5t40 -18.5q41 0 93.5 43t82.5 103q17 -14 17 -36q0 -10 -17 -36.5t-43.5 -57t-66.5 -54t-80 -23.5zM175 271q-17 0 -42.5 -37.5
t-36.5 -74.5q7 -2 21 -2q27 0 51 32.5t24 57.5q0 24 -17 24zM76 376q-11 0 -22.5 20.5t-11.5 33.5q0 6 5 8q21 8 109 19t121 11q22 0 33.5 -24.5t11.5 -45.5q0 -8 -5.5 -10.5t-20.5 -2.5q-46 0 -131.5 -4.5t-88.5 -4.5z" />
    <glyph glyph-name="Ebreve" unicode="&#x114;" horiz-adv-x="728" 
d="M552 685q78 0 135.5 -42t57.5 -106q0 -57 -39.5 -94.5t-82.5 -37.5q-42 0 -71 26.5t-29 49.5q0 14 14 14q50 0 94.5 20.5t44.5 50.5q0 13 -13.5 21.5t-35.5 8.5q-62 0 -149.5 -30.5t-150 -71.5t-62.5 -69q0 -31 46 -52q80 22 131 22q26 0 74.5 -26t48.5 -48
q0 -43 -96 -43q-33 0 -71 6q-77 -20 -135.5 -41.5t-89.5 -38.5t-50 -33.5t-24 -26t-5 -16.5q0 -6 1 -10t6.5 -11t15.5 -12.5t30.5 -12t49 -10.5t73 -6.5t99.5 -2.5q136 0 251.5 47t166.5 104q9 -10 9 -26q0 -24 -22.5 -57t-67 -68t-102 -64.5t-135 -49t-158.5 -19.5
q-83 0 -149.5 21t-110.5 70t-44 121q0 61 64 114t161 91q-59 44 -59 108q0 54 62 109t150.5 88t166.5 33zM536 705q-57 0 -92 51.5t-35 99.5q0 10 13 10q7 0 23.5 -19.5t21.5 -32.5q7 -17 18.5 -29.5t21.5 -12.5q27 0 51.5 28t33.5 60q5 20 13 20q24 0 48 -23.5t24 -34.5
q0 -45 -39 -81t-102 -36z" />
    <glyph glyph-name="ebreve" unicode="&#x115;" horiz-adv-x="288" 
d="M141 -8q-58 0 -96 37t-38 105q0 66 47.5 131t93.5 65q44 0 83 -30t39 -63q0 -50 -46.5 -88t-95.5 -38q-12 0 -34 4q5 -25 21 -43.5t40 -18.5q41 0 93.5 43t82.5 103q17 -14 17 -36q0 -10 -17 -36.5t-43.5 -57t-66.5 -54t-80 -23.5zM175 271q-17 0 -42.5 -37.5
t-36.5 -74.5q7 -2 21 -2q27 0 51 32.5t24 57.5q0 24 -17 24zM181 382q-46 0 -72 43t-26 87q0 9 11 9q5 0 16.5 -14t15.5 -25q12 -39 32 -39q26 0 43 21.5t25 51.5q4 18 10 18q19 0 38.5 -18t19.5 -27q0 -41 -31.5 -74t-81.5 -33z" />
    <glyph glyph-name="Edotaccent" unicode="&#x116;" horiz-adv-x="728" 
d="M552 685q78 0 135.5 -42t57.5 -106q0 -57 -39.5 -94.5t-82.5 -37.5q-42 0 -71 26.5t-29 49.5q0 14 14 14q50 0 94.5 20.5t44.5 50.5q0 13 -13.5 21.5t-35.5 8.5q-62 0 -149.5 -30.5t-150 -71.5t-62.5 -69q0 -31 46 -52q80 22 131 22q26 0 74.5 -26t48.5 -48
q0 -43 -96 -43q-33 0 -71 6q-77 -20 -135.5 -41.5t-89.5 -38.5t-50 -33.5t-24 -26t-5 -16.5q0 -6 1 -10t6.5 -11t15.5 -12.5t30.5 -12t49 -10.5t73 -6.5t99.5 -2.5q136 0 251.5 47t166.5 104q9 -10 9 -26q0 -24 -22.5 -57t-67 -68t-102 -64.5t-135 -49t-158.5 -19.5
q-83 0 -149.5 21t-110.5 70t-44 121q0 61 64 114t161 91q-59 44 -59 108q0 54 62 109t150.5 88t166.5 33zM540 885q38 0 63 -22t25 -47q0 -37 -35 -64t-73 -27q-27 0 -50.5 16t-23.5 47q0 40 27.5 68.5t66.5 28.5z" />
    <glyph glyph-name="edotaccent" unicode="&#x117;" horiz-adv-x="288" 
d="M141 -8q-58 0 -96 37t-38 105q0 66 47.5 131t93.5 65q44 0 83 -30t39 -63q0 -50 -46.5 -88t-95.5 -38q-12 0 -34 4q5 -25 21 -43.5t40 -18.5q41 0 93.5 43t82.5 103q17 -14 17 -36q0 -10 -17 -36.5t-43.5 -57t-66.5 -54t-80 -23.5zM175 271q-17 0 -42.5 -37.5
t-36.5 -74.5q7 -2 21 -2q27 0 51 32.5t24 57.5q0 24 -17 24zM195 500q29 0 48 -14.5t19 -34.5q0 -31 -25 -56t-55 -25q-23 0 -42 13t-19 39q0 29 24.5 53.5t49.5 24.5z" />
    <glyph glyph-name="Eogonek" unicode="&#x118;" horiz-adv-x="728" 
d="M552 685q78 0 135.5 -42t57.5 -106q0 -57 -39.5 -94.5t-82.5 -37.5q-42 0 -71 26.5t-29 49.5q0 14 14 14q50 0 94.5 20.5t44.5 50.5q0 13 -13.5 21.5t-35.5 8.5q-62 0 -149.5 -30.5t-150 -71.5t-62.5 -69q0 -31 46 -52q80 22 131 22q26 0 74.5 -26t48.5 -48
q0 -43 -96 -43q-33 0 -71 6q-77 -20 -135.5 -41.5t-89.5 -38.5t-50 -33.5t-24 -26t-5 -16.5q0 -6 1 -10t6.5 -11t15.5 -12.5t30.5 -12t49 -10.5t73 -6.5t99.5 -2.5q136 0 251.5 47t166.5 104q9 -10 9 -26q0 -56 -114 -148q-55 -44 -105 -106.5t-50 -80.5q0 -17 21 -17
q22 0 56 18.5t41 33.5q15 -4 30 -28.5t15 -46.5t-29 -41t-64 -19q-41 0 -90.5 34t-49.5 79q0 37 64 99q-103 -35 -210 -35q-83 0 -149.5 21t-110.5 70t-44 121q0 61 64 114t161 91q-59 44 -59 108q0 54 62 109t150.5 88t166.5 33z" />
    <glyph glyph-name="eogonek" unicode="&#x119;" horiz-adv-x="288" 
d="M141 -8q-58 0 -96 37t-38 105q0 66 47.5 131t93.5 65q44 0 83 -30t39 -63q0 -50 -46.5 -88t-95.5 -38q-12 0 -34 4q5 -25 21 -43.5t40 -18.5q41 0 93.5 43t82.5 103q17 -14 17 -36q0 -13 -28 -54t-65 -75q-32 -29 -72.5 -78t-40.5 -71q0 -11 11 -19t28 -8q22 0 42.5 10.5
t27.5 24.5q13 -3 20.5 -21.5t7.5 -32.5q0 -22 -24.5 -38t-59.5 -16q-37 0 -72.5 35t-35.5 81q0 30 60 92q-1 0 -3 -0.5t-3 -0.5zM175 271q-17 0 -42.5 -37.5t-36.5 -74.5q7 -2 21 -2q27 0 51 32.5t24 57.5q0 24 -17 24z" />
    <glyph glyph-name="Ecaron" unicode="&#x11a;" horiz-adv-x="728" 
d="M552 685q78 0 135.5 -42t57.5 -106q0 -57 -39.5 -94.5t-82.5 -37.5q-42 0 -71 26.5t-29 49.5q0 14 14 14q50 0 94.5 20.5t44.5 50.5q0 13 -13.5 21.5t-35.5 8.5q-62 0 -149.5 -30.5t-150 -71.5t-62.5 -69q0 -31 46 -52q80 22 131 22q26 0 74.5 -26t48.5 -48
q0 -43 -96 -43q-33 0 -71 6q-77 -20 -135.5 -41.5t-89.5 -38.5t-50 -33.5t-24 -26t-5 -16.5q0 -6 1 -10t6.5 -11t15.5 -12.5t30.5 -12t49 -10.5t73 -6.5t99.5 -2.5q136 0 251.5 47t166.5 104q9 -10 9 -26q0 -24 -22.5 -57t-67 -68t-102 -64.5t-135 -49t-158.5 -19.5
q-83 0 -149.5 21t-110.5 70t-44 121q0 61 64 114t161 91q-59 44 -59 108q0 54 62 109t150.5 88t166.5 33zM474 726q-17 48 -35.5 81t-28.5 44t-10 12q0 6 4.5 12.5t11.5 6.5q6 0 22.5 -5t20.5 -9q31 -24 57 -70q13 28 62 75q16 16 29 16q25 0 52 -12.5t27 -24.5
q0 -10 -11 -16q-31 -16 -68 -55.5t-61 -73.5q-6 -8 -15 -8q-11 0 -33 10t-24 17z" />
    <glyph glyph-name="ecaron" unicode="&#x11b;" horiz-adv-x="288" 
d="M141 -8q-58 0 -96 37t-38 105q0 66 47.5 131t93.5 65q44 0 83 -30t39 -63q0 -50 -46.5 -88t-95.5 -38q-12 0 -34 4q5 -25 21 -43.5t40 -18.5q41 0 93.5 43t82.5 103q17 -14 17 -36q0 -10 -17 -36.5t-43.5 -57t-66.5 -54t-80 -23.5zM175 271q-17 0 -42.5 -37.5
t-36.5 -74.5q7 -2 21 -2q27 0 51 32.5t24 57.5q0 24 -17 24zM147 395q-16 48 -34 83.5t-27 49.5t-9 16q0 9 11 9q6 0 24.5 -5.5t21.5 -8.5q35 -31 54 -70q22 26 55 62q14 16 26 16q20 0 41.5 -11t21.5 -19q0 -3 -11 -12q-60 -50 -122 -125q-8 -8 -13 -8q-9 0 -23 8t-16 15z
" />
    <glyph glyph-name="Gcircumflex" unicode="&#x11c;" horiz-adv-x="925" 
d="M270 231q0 22 232 68.5t304 46.5q56 0 94.5 -28.5t38.5 -48.5q0 -13 -52 -13q1 -3 1 -8q0 -42 -40 -96t-105.5 -104t-162 -84t-196.5 -34q-49 0 -95.5 6t-99.5 23.5t-92 46t-64.5 78.5t-25.5 115q0 60 35 123t91 115t126.5 99t142.5 79t138 51t113 19q88 0 161.5 -62.5
t73.5 -112.5q0 -45 -45.5 -86.5t-101.5 -41.5q-45 0 -72 25.5t-27 50.5q0 20 15 20q66 0 93.5 22.5t27.5 46.5q0 16 -15.5 25t-37.5 9q-98 0 -246.5 -68.5t-262 -166.5t-113.5 -172q0 -139 204 -139q77 0 148.5 18.5t120 45.5t86 57t55 52.5t17.5 31.5q0 12 -3 16
q-109 -4 -206 -17t-149.5 -23.5t-62.5 -10.5q-43 0 -43 26zM691 862q18 -47 39 -80t32.5 -44.5t11.5 -12.5q0 -6 -4.5 -12.5t-11.5 -6.5t-27.5 5.5t-24.5 8.5q-31 24 -57 70q-13 -28 -62 -75q-16 -16 -29 -16q-25 0 -52 12.5t-27 24.5q0 10 11 16q32 17 72 58t57 71
q6 8 15 8q11 0 33 -10t24 -17z" />
    <glyph glyph-name="gcircumflex" unicode="&#x11d;" horiz-adv-x="357" 
d="M210 -36q9 50 15 104q-45 -76 -89 -76q-48 0 -88.5 39.5t-40.5 88.5q0 75 45.5 142.5t93.5 67.5q22 0 48 -20t46 -48q12 25 23 25q15 0 37 -20.5t22 -35.5q0 -141 -25 -281q47 -27 47 -63q0 -13 -12 -13q-5 0 -19 2t-31 3q-49 -188 -138 -188q-66 0 -122 40.5t-56 77.5
t76 91.5t168 63.5zM108 57q27 0 64 44.5t49 97.5q-7 21 -26.5 37t-28.5 16q-8 0 -25.5 -22.5t-33.5 -60.5t-16 -71q0 -41 17 -41zM112 -236q50 0 79 112q-39 -7 -75.5 -24t-56 -32.5t-19.5 -24.5q0 -13 21 -22t51 -9zM265 533q16 -48 34 -83.5t27 -49.5t9 -16q0 -9 -11 -9
q-6 0 -24.5 5.5t-21.5 8.5q-35 31 -54 70q-10 -29 -52 -75q-14 -16 -26 -16q-20 0 -44 12t-24 19q0 3 11 12q80 79 113 141q5 8 13 8q10 0 29 -10t21 -17z" />
    <glyph glyph-name="Gbreve" unicode="&#x11e;" horiz-adv-x="925" 
d="M270 231q0 22 232 68.5t304 46.5q56 0 94.5 -28.5t38.5 -48.5q0 -13 -52 -13q1 -3 1 -8q0 -42 -40 -96t-105.5 -104t-162 -84t-196.5 -34q-49 0 -95.5 6t-99.5 23.5t-92 46t-64.5 78.5t-25.5 115q0 60 35 123t91 115t126.5 99t142.5 79t138 51t113 19q88 0 161.5 -62.5
t73.5 -112.5q0 -45 -45.5 -86.5t-101.5 -41.5q-45 0 -72 25.5t-27 50.5q0 20 15 20q66 0 93.5 22.5t27.5 46.5q0 16 -15.5 25t-37.5 9q-98 0 -246.5 -68.5t-262 -166.5t-113.5 -172q0 -139 204 -139q77 0 148.5 18.5t120 45.5t86 57t55 52.5t17.5 31.5q0 12 -3 16
q-109 -4 -206 -17t-149.5 -23.5t-62.5 -10.5q-43 0 -43 26zM643 705q-57 0 -92 51.5t-35 99.5q0 10 13 10q7 0 23.5 -19.5t21.5 -32.5q7 -17 18.5 -29.5t21.5 -12.5q27 0 51.5 28t33.5 60q5 20 13 20q24 0 48 -23.5t24 -34.5q0 -45 -39 -81t-102 -36z" />
    <glyph glyph-name="gbreve" unicode="&#x11f;" horiz-adv-x="357" 
d="M210 -36q9 50 15 104q-45 -76 -89 -76q-48 0 -88.5 39.5t-40.5 88.5q0 75 45.5 142.5t93.5 67.5q22 0 48 -20t46 -48q12 25 23 25q15 0 37 -20.5t22 -35.5q0 -141 -25 -281q47 -27 47 -63q0 -13 -12 -13q-5 0 -19 2t-31 3q-49 -188 -138 -188q-66 0 -122 40.5t-56 77.5
t76 91.5t168 63.5zM108 57q27 0 64 44.5t49 97.5q-7 21 -26.5 37t-28.5 16q-8 0 -25.5 -22.5t-33.5 -60.5t-16 -71q0 -41 17 -41zM112 -236q50 0 79 112q-39 -7 -75.5 -24t-56 -32.5t-19.5 -24.5q0 -13 21 -22t51 -9zM200 382q-46 0 -72 43t-26 87q0 9 11 9q5 0 16.5 -14
t15.5 -25q12 -39 32 -39q26 0 43 21.5t25 51.5q4 18 10 18q19 0 38.5 -18t19.5 -27q0 -41 -31.5 -74t-81.5 -33z" />
    <glyph glyph-name="Gdotaccent" unicode="&#x120;" horiz-adv-x="925" 
d="M270 231q0 22 232 68.5t304 46.5q56 0 94.5 -28.5t38.5 -48.5q0 -13 -52 -13q1 -3 1 -8q0 -42 -40 -96t-105.5 -104t-162 -84t-196.5 -34q-49 0 -95.5 6t-99.5 23.5t-92 46t-64.5 78.5t-25.5 115q0 60 35 123t91 115t126.5 99t142.5 79t138 51t113 19q88 0 161.5 -62.5
t73.5 -112.5q0 -45 -45.5 -86.5t-101.5 -41.5q-45 0 -72 25.5t-27 50.5q0 20 15 20q66 0 93.5 22.5t27.5 46.5q0 16 -15.5 25t-37.5 9q-98 0 -246.5 -68.5t-262 -166.5t-113.5 -172q0 -139 204 -139q77 0 148.5 18.5t120 45.5t86 57t55 52.5t17.5 31.5q0 12 -3 16
q-109 -4 -206 -17t-149.5 -23.5t-62.5 -10.5q-43 0 -43 26zM650 885q38 0 63 -22t25 -47q0 -37 -35 -64t-73 -27q-27 0 -50.5 16t-23.5 47q0 40 27.5 68.5t66.5 28.5z" />
    <glyph glyph-name="gdotaccent" unicode="&#x121;" horiz-adv-x="357" 
d="M210 -36q9 50 15 104q-45 -76 -89 -76q-48 0 -88.5 39.5t-40.5 88.5q0 75 45.5 142.5t93.5 67.5q22 0 48 -20t46 -48q12 25 23 25q15 0 37 -20.5t22 -35.5q0 -141 -25 -281q47 -27 47 -63q0 -13 -12 -13q-5 0 -19 2t-31 3q-49 -188 -138 -188q-66 0 -122 40.5t-56 77.5
t76 91.5t168 63.5zM108 57q27 0 64 44.5t49 97.5q-7 21 -26.5 37t-28.5 16q-8 0 -25.5 -22.5t-33.5 -60.5t-16 -71q0 -41 17 -41zM112 -236q50 0 79 112q-39 -7 -75.5 -24t-56 -32.5t-19.5 -24.5q0 -13 21 -22t51 -9zM212 500q29 0 48 -14.5t19 -34.5q0 -31 -25 -56t-55 -25
q-23 0 -42 13t-19 39q0 29 24.5 53.5t49.5 24.5z" />
    <glyph glyph-name="uni0122" unicode="&#x122;" horiz-adv-x="925" 
d="M328 -94q5 16 21 16q31 0 58.5 -18.5t27.5 -42.5q0 -43 -66.5 -85.5t-122.5 -42.5q-44 0 -44 22q0 3 9 9l24 16t31.5 25t33.5 41.5t28 59.5zM270 231q0 22 232 68.5t304 46.5q56 0 94.5 -28.5t38.5 -48.5q0 -13 -52 -13q1 -3 1 -8q0 -42 -40 -96t-105.5 -104t-162 -84
t-196.5 -34q-49 0 -95.5 6t-99.5 23.5t-92 46t-64.5 78.5t-25.5 115q0 60 35 123t91 115t126.5 99t142.5 79t138 51t113 19q88 0 161.5 -62.5t73.5 -112.5q0 -45 -45.5 -86.5t-101.5 -41.5q-45 0 -72 25.5t-27 50.5q0 20 15 20q66 0 93.5 22.5t27.5 46.5q0 16 -15.5 25
t-37.5 9q-98 0 -246.5 -68.5t-262 -166.5t-113.5 -172q0 -139 204 -139q77 0 148.5 18.5t120 45.5t86 57t55 52.5t17.5 31.5q0 12 -3 16q-109 -4 -206 -17t-149.5 -23.5t-62.5 -10.5q-43 0 -43 26z" />
    <glyph glyph-name="uni0123" unicode="&#x123;" horiz-adv-x="357" 
d="M210 -36q9 50 15 104q-45 -76 -89 -76q-48 0 -88.5 39.5t-40.5 88.5q0 75 45.5 142.5t93.5 67.5q22 0 48 -20t46 -48q12 25 23 25q15 0 37 -20.5t22 -35.5q0 -141 -25 -281q47 -27 47 -63q0 -13 -12 -13q-5 0 -19 2t-31 3q-49 -188 -138 -188q-66 0 -122 40.5t-56 77.5
t76 91.5t168 63.5zM108 57q27 0 64 44.5t49 97.5q-7 21 -26.5 37t-28.5 16q-8 0 -25.5 -22.5t-33.5 -60.5t-16 -71q0 -41 17 -41zM112 -236q50 0 79 112q-39 -7 -75.5 -24t-56 -32.5t-19.5 -24.5q0 -13 21 -22t51 -9zM215 381q-20 0 -44 18t-24 37q0 43 37 84t81 41
q6 0 11 -3.5t5 -8.5q0 -4 -8 -11.5t-18.5 -27.5t-15.5 -52q-2 -10 -3 -23t-1.5 -21.5t-2 -16.5t-6 -12t-11.5 -4z" />
    <glyph glyph-name="Hcircumflex" unicode="&#x124;" horiz-adv-x="750" 
d="M777 635q0 -9 -4.5 -13t-20.5 -17.5t-34 -36.5q-25 -30 -50.5 -96t-40.5 -154q45 0 82 -32.5t37 -56.5q0 -12 -12 -12q-2 0 -124 -2q-6 -61 -6 -130q0 -45 3 -75.5t6 -43.5t3 -15q0 -25 -35 -25q-12 0 -30.5 12.5t-31.5 28.5q-6 8 -14 23t-13 22q-81 116 -226 169
q-1 -25 -1 -80q0 -31 1.5 -55.5t3.5 -38.5t3.5 -22.5t3 -13t1.5 -5.5q0 -15 -27 -15q-35 0 -69 26t-34 52q0 4 0.5 22.5t1 53.5t0.5 64q-52 -6 -72 -6q-71 0 -71 33q0 28 40.5 43t104.5 15q9 362 16 390q6 25 12.5 33t22.5 8q39 0 77.5 -31t38.5 -57q0 -7 -10.5 -39.5
t-23 -113t-17.5 -198.5q124 35 251 58q17 196 55 294.5t87 98.5q33 0 61.5 -12.5t41.5 -26.5t13 -23zM508 97q2 76 4 114q-96 -4 -137 -8q63 -36 133 -106zM516 862q18 -47 39 -80t32.5 -44.5t11.5 -12.5q0 -6 -4.5 -12.5t-11.5 -6.5t-27.5 5.5t-24.5 8.5q-31 24 -57 70
q-13 -28 -62 -75q-16 -16 -29 -16q-25 0 -52 12.5t-27 24.5q0 10 11 16q32 17 72 58t57 71q6 8 15 8q11 0 33 -10t24 -17z" />
    <glyph glyph-name="hcircumflex" unicode="&#x125;" 
d="M111 114l4 -2q117 218 136 218q26 0 58.5 -23t32.5 -41q0 -8 -24 -80.5t-24 -101.5q0 -12 5.5 -21t12.5 -9q23 0 62 42.5t69 102.5q17 -14 17 -36q0 -26 -54 -98.5t-99 -72.5q-40 0 -74.5 23t-34.5 60q0 29 14 72.5t28 72.5l14 28l-5 3q-43 -61 -76.5 -129t-49 -99
t-29.5 -31q-25 0 -49.5 30.5t-24.5 54.5q0 40 33.5 227t61.5 265q1 2 3 8t3 8t3 7t3.5 7.5t3.5 6t4 5t4.5 3.5t5.5 3t6 1q27 0 58.5 -26t31.5 -44q0 -3 -3 -8t-10 -18.5t-14 -33.5q-32 -85 -62 -194.5t-41 -179.5zM236 797q16 -48 34 -83.5t27 -49.5t9 -16q0 -9 -11 -9
q-6 0 -24.5 5.5t-21.5 8.5q-35 31 -54 70q-10 -29 -52 -75q-14 -16 -26 -16q-20 0 -44 12t-24 19q0 3 11 12q80 79 113 141q5 8 13 8q10 0 29 -10t21 -17z" />
    <glyph glyph-name="Hbar" unicode="&#x126;" horiz-adv-x="750" 
d="M777 635q0 -9 -4.5 -13t-20.5 -17.5t-34 -36.5q-14 -18 -20 -29q30 3 48 3q20 0 41.5 -35t21.5 -53q0 -14 -23 -14q-53 0 -131 -5q-18 -56 -28 -117q45 0 82 -32.5t37 -56.5q0 -12 -12 -12q-2 0 -124 -2q-6 -61 -6 -130q0 -45 3 -75.5t6 -43.5t3 -15q0 -25 -35 -25
q-12 0 -30.5 12.5t-31.5 28.5q-6 8 -14 23t-13 22q-81 116 -226 169q-1 -25 -1 -80q0 -31 1.5 -55.5t3.5 -38.5t3.5 -22.5t3 -13t1.5 -5.5q0 -15 -27 -15q-35 0 -69 26t-34 52q0 4 0.5 22.5t1 53.5t0.5 64q-52 -6 -72 -6q-71 0 -71 33q0 28 40 43t104 15l4 121
q-86 -12 -89 -12q-19 0 -35 10.5t-16 22.5q0 14 16 21q27 13 126 35q7 177 11 192q6 25 12.5 33t22.5 8q39 0 77.5 -31t38.5 -57q0 -7 -4 -20t-11 -40t-13 -58q133 23 260 42q41 176 110 176q33 0 61.5 -12.5t41.5 -26.5t13 -23zM533 424q-134 -14 -255 -31q-8 -76 -10 -147
q124 35 251 58q7 79 14 120zM508 97q2 76 4 114q-96 -4 -137 -8q63 -36 133 -106z" />
    <glyph glyph-name="hbar" unicode="&#x127;" 
d="M111 114l4 -2q117 218 136 218q26 0 58.5 -23t32.5 -41q0 -8 -24 -80.5t-24 -101.5q0 -12 5.5 -21t12.5 -9q23 0 62 42.5t69 102.5q17 -14 17 -36q0 -26 -54 -98.5t-99 -72.5q-40 0 -74.5 23t-34.5 60q0 29 14 72.5t28 72.5l14 28l-5 3q-43 -61 -76.5 -129t-49 -99
t-29.5 -31q-25 0 -49.5 30.5t-24.5 54.5q0 21 15 117.5t34 190.5q-48 -2 -49 -2q-15 0 -15 10q0 18 22 27q16 6 52 15q18 83 36 134q1 2 3 8t3 8t3 7t3.5 7.5t3.5 6t4 5t4.5 3.5t5.5 3t6 1q27 0 58.5 -26t31.5 -44q0 -3 -3 -8t-10 -18.5t-14 -33.5l-9 -24q52 9 65 9
q14 0 25 -19t11 -46q0 -8 -5.5 -10.5t-20.5 -2.5q-44 0 -99 -3q-53 -169 -70 -278z" />
    <glyph glyph-name="Itilde" unicode="&#x128;" horiz-adv-x="629" 
d="M56 13q0 49 311 73q-37 27 -37 66q0 99 34 315q6 38 9 56q-109 -26 -183 -55q-11 -3 -17 -19q-1 -3 -1 -9t-1.5 -9t-5.5 -3q-32 0 -55 47.5t-23 114.5q0 28 106 50.5t213 32.5t161 10q44 0 88.5 -42t44.5 -60q-1 -10 -12 -14t-48 -4q-67 0 -158 -16q23 -21 23 -38
q0 -7 -10 -39q-27 -86 -50 -197t-28 -184q85 5 115 5q46 0 87.5 -19t41.5 -34q-1 -10 -12 -14t-48 -4q-90 0 -220.5 -30t-229.5 -65q-11 -4 -16.5 -10t-6 -11t-1.5 -8.5t-6 -3.5q-23 0 -44 34.5t-21 83.5zM331 690q-15 0 -24.5 20.5t-9.5 52.5q0 26 23.5 57.5t51.5 31.5
q18 0 61 -19.5t60 -19.5q18 0 35 16.5t20 43.5q20 0 48.5 -21.5t28.5 -52.5q0 -30 -27.5 -57t-55.5 -27q-29 0 -77 35.5t-54 35.5q-14 0 -34.5 -21.5t-34.5 -51.5q-9 -23 -11 -23z" />
    <glyph glyph-name="itilde" unicode="&#x129;" horiz-adv-x="223" 
d="M47 360q-14 0 -26.5 16.5t-12.5 38.5q0 19 26.5 47t51.5 28q15 0 36.5 -20.5t36.5 -20.5q23 0 39 23q4 6 6 11t2 7t1 2q14 0 33.5 -18.5t19.5 -41.5q0 -14 -18 -34t-41 -20q-25 0 -55.5 24t-35.5 24q-11 0 -27 -14.5t-27 -35.5q-8 -16 -9 -16zM81 330q26 0 56 -23t30 -41
q0 -6 -8 -18t-9 -15q-33 -64 -33 -149q0 -12 5.5 -21t12.5 -9q23 0 62.5 43t68.5 102q17 -14 17 -36q0 -26 -53.5 -98.5t-99.5 -72.5q-40 0 -71.5 22.5t-31.5 63.5q0 59 10 119.5t22.5 96.5t21.5 36z" />
    <glyph glyph-name="Imacron" unicode="&#x12a;" horiz-adv-x="629" 
d="M56 13q0 49 311 73q-37 27 -37 66q0 99 34 315q6 38 9 56q-109 -26 -183 -55q-11 -3 -17 -19q-1 -3 -1 -9t-1.5 -9t-5.5 -3q-32 0 -55 47.5t-23 114.5q0 28 106 50.5t213 32.5t161 10q44 0 88.5 -42t44.5 -60q-1 -10 -12 -14t-48 -4q-67 0 -158 -16q23 -21 23 -38
q0 -7 -10 -39q-27 -86 -50 -197t-28 -184q85 5 115 5q46 0 87.5 -19t41.5 -34q-1 -10 -12 -14t-48 -4q-90 0 -220.5 -30t-229.5 -65q-11 -4 -16.5 -10t-6 -11t-1.5 -8.5t-6 -3.5q-23 0 -44 34.5t-21 83.5zM300 706q-12 0 -24.5 22.5t-12.5 36.5q0 7 5 9q22 9 147.5 21
t165.5 12q24 0 36.5 -27t12.5 -50q0 -9 -6 -11.5t-22 -2.5q-51 0 -174.5 -5t-127.5 -5z" />
    <glyph glyph-name="imacron" unicode="&#x12b;" horiz-adv-x="223" 
d="M52 376q-11 0 -22.5 20.5t-11.5 33.5q0 6 5 8q22 9 95.5 19.5t104.5 10.5q22 0 33.5 -24.5t11.5 -45.5q0 -8 -5.5 -10.5t-20.5 -2.5q-46 0 -116.5 -4.5t-73.5 -4.5zM81 330q26 0 56 -23t30 -41q0 -6 -8 -18t-9 -15q-33 -64 -33 -149q0 -12 5.5 -21t12.5 -9q23 0 62.5 43
t68.5 102q17 -14 17 -36q0 -26 -53.5 -98.5t-99.5 -72.5q-40 0 -71.5 22.5t-31.5 63.5q0 59 10 119.5t22.5 96.5t21.5 36z" />
    <glyph glyph-name="Ibreve" unicode="&#x12c;" horiz-adv-x="629" 
d="M56 13q0 49 311 73q-37 27 -37 66q0 99 34 315q6 38 9 56q-109 -26 -183 -55q-11 -3 -17 -19q-1 -3 -1 -9t-1.5 -9t-5.5 -3q-32 0 -55 47.5t-23 114.5q0 28 106 50.5t213 32.5t161 10q44 0 88.5 -42t44.5 -60q-1 -10 -12 -14t-48 -4q-67 0 -158 -16q23 -21 23 -38
q0 -7 -10 -39q-27 -86 -50 -197t-28 -184q85 5 115 5q46 0 87.5 -19t41.5 -34q-1 -10 -12 -14t-48 -4q-90 0 -220.5 -30t-229.5 -65q-11 -4 -16.5 -10t-6 -11t-1.5 -8.5t-6 -3.5q-23 0 -44 34.5t-21 83.5zM441 705q-57 0 -92 51.5t-35 99.5q0 10 13 10q7 0 23.5 -19.5
t21.5 -32.5q7 -17 18.5 -29.5t21.5 -12.5q27 0 51.5 28t33.5 60q5 20 13 20q24 0 48 -23.5t24 -34.5q0 -45 -39 -81t-102 -36z" />
    <glyph glyph-name="ibreve" unicode="&#x12d;" horiz-adv-x="223" 
d="M81 330q26 0 56 -23t30 -41q0 -6 -8 -18t-9 -15q-33 -64 -33 -149q0 -12 5.5 -21t12.5 -9q23 0 62.5 43t68.5 102q17 -14 17 -36q0 -26 -53.5 -98.5t-99.5 -72.5q-40 0 -71.5 22.5t-31.5 63.5q0 59 10 119.5t22.5 96.5t21.5 36zM144 382q-46 0 -72 43t-26 87q0 9 11 9
q5 0 16.5 -14t15.5 -25q12 -39 32 -39q26 0 43 21.5t25 51.5q4 18 10 18q19 0 38.5 -18t19.5 -27q0 -41 -31.5 -74t-81.5 -33z" />
    <glyph glyph-name="Iogonek" unicode="&#x12e;" horiz-adv-x="629" 
d="M87 590q0 28 106 50.5t213 32.5t161 10q44 0 88.5 -42t44.5 -60q-1 -10 -12 -14t-48 -4q-67 0 -158 -16q23 -21 23 -38q0 -7 -10 -39q-27 -86 -50 -197t-28 -184q85 5 115 5q46 0 87.5 -19t41.5 -34q0 -7 -5 -10.5t-19 -8.5t-26 -13q-45 -31 -81 -84t-36 -72
q0 -17 21 -17q22 0 56 18.5t41 33.5q15 -4 30 -28.5t15 -46.5t-29 -41t-64 -19q-38 0 -87.5 43t-49.5 89q0 30 27.5 67.5t66.5 65.5q-173 -21 -370 -90q-11 -4 -16.5 -10t-6 -11t-1.5 -8.5t-6 -3.5q-23 0 -44 34.5t-21 83.5t311 73q-37 27 -37 66q0 99 34 315q6 38 9 56
q-109 -26 -183 -55q-11 -3 -17 -19q-1 -3 -1 -9t-1.5 -9t-5.5 -3q-32 0 -55 47.5t-23 114.5z" />
    <glyph glyph-name="iogonek" unicode="&#x12f;" horiz-adv-x="223" 
d="M81 330q26 0 56 -23t30 -41q0 -6 -8 -18t-9 -15q-33 -64 -33 -149q0 -12 5.5 -21t12.5 -9q23 0 62.5 43t68.5 102q17 -14 17 -36q0 -17 -36 -72.5t-73 -84.5q-43 -32 -73 -68t-30 -53q0 -11 11 -19t28 -8q22 0 42.5 10.5t27.5 24.5q13 -3 20.5 -21.5t7.5 -32.5
q0 -22 -24.5 -38t-59.5 -16q-37 0 -72.5 35t-35.5 81q0 26 19.5 47t61.5 48q-30 7 -50 28t-20 54q0 59 10 119.5t22.5 96.5t21.5 36zM136 504q27 0 57 -16t30 -35q0 -33 -32 -60.5t-65 -27.5q-24 0 -45 14t-21 42q0 31 24.5 57t51.5 26z" />
    <glyph glyph-name="Idotaccent" unicode="&#x130;" horiz-adv-x="629" 
d="M56 13q0 49 311 73q-37 27 -37 66q0 99 34 315q6 38 9 56q-109 -26 -183 -55q-11 -3 -17 -19q-1 -3 -1 -9t-1.5 -9t-5.5 -3q-32 0 -55 47.5t-23 114.5q0 28 106 50.5t213 32.5t161 10q44 0 88.5 -42t44.5 -60q-1 -10 -12 -14t-48 -4q-67 0 -158 -16q23 -21 23 -38
q0 -7 -10 -39q-27 -86 -50 -197t-28 -184q85 5 115 5q46 0 87.5 -19t41.5 -34q-1 -10 -12 -14t-48 -4q-90 0 -220.5 -30t-229.5 -65q-11 -4 -16.5 -10t-6 -11t-1.5 -8.5t-6 -3.5q-23 0 -44 34.5t-21 83.5zM474 885q38 0 63 -22t25 -47q0 -37 -35 -64t-73 -27q-27 0 -50.5 16
t-23.5 47q0 40 27.5 68.5t66.5 28.5z" />
    <glyph glyph-name="dotlessi" unicode="&#x131;" horiz-adv-x="223" 
d="M81 330q26 0 56 -23t30 -41q0 -6 -8 -18t-9 -15q-33 -64 -33 -149q0 -12 5.5 -21t12.5 -9q23 0 62.5 43t68.5 102q17 -14 17 -36q0 -26 -53.5 -98.5t-99.5 -72.5q-40 0 -71.5 22.5t-31.5 63.5q0 59 10 119.5t22.5 96.5t21.5 36z" />
    <glyph glyph-name="IJ" unicode="&#x132;" horiz-adv-x="937" 
d="M87 590q0 32 115.5 55.5t244 32.5t229.5 9q293 0 363 -21q25 -7 44 -27t19 -37q0 -4 -5 -6.5t-18 -4t-24 -1.5h-36q-30 0 -98 -2q45 -39 45 -71q0 -6 -1 -10q-69 -355 -173.5 -542.5t-237.5 -187.5q-67 0 -114.5 32.5t-47.5 78.5q0 59 69 137q-88 -9 -170.5 -36
t-139.5 -61q-17 -11 -20.5 -22t-9.5 -11q-23 0 -44 34.5t-21 83.5t311 73q-37 27 -37 66q0 99 34 315q5 40 10 62q-116 -25 -184 -61q-12 -6 -17 -19q-1 -3 -1 -9t-1.5 -9t-5.5 -3q-32 0 -55 47.5t-23 114.5zM532 -168q37 0 72 32.5t62.5 83t53 122t43.5 138.5t34.5 145.5
t25.5 129.5t17 102q-208 -10 -361 -36q26 -21 26 -40q0 -7 -10 -39q-27 -86 -50 -197t-28 -184q85 5 115 5h13q34 17 58 17q30 0 46.5 -17t16.5 -36q0 -41 -49 -41q-12 0 -38 2q-27 -29 -49.5 -77t-22.5 -80q0 -30 25 -30z" />
    <glyph glyph-name="ij" unicode="&#x133;" horiz-adv-x="416" 
d="M235 -36q19 75 28 147q-59 -119 -133 -119q-40 0 -71.5 22.5t-31.5 63.5q0 59 10 119.5t22.5 96.5t21.5 36q26 0 56 -23t30 -41q0 -6 -8 -18t-9 -15q-33 -64 -33 -149q0 -12 5.5 -21t12.5 -9q32 0 60.5 45.5t42.5 93.5t20 88q0 3 1 9l1.5 9t1 7.5t1.5 7t2.5 5.5t3.5 4.5
t5 3.5t6.5 2.5t8.5 0.5q21 0 54 -20t33 -48q0 -43 -10 -131.5t-30 -174.5q42 -13 63.5 -37.5t21.5 -41.5q0 -13 -12 -13q-2 0 -28.5 6.5t-66.5 8.5q-67 -204 -185 -204q-64 0 -121.5 53.5t-57.5 93.5q0 21 42 51.5t110 57t133 33.5zM346 504q28 0 58 -16t30 -35
q0 -33 -32.5 -60.5t-65.5 -27.5q-24 0 -45 14t-21 42q0 31 24.5 57t51.5 26zM136 504q27 0 57 -16t30 -35q0 -33 -32 -60.5t-65 -27.5q-24 0 -45 14t-21 42q0 31 24.5 57t51.5 26zM117 -236q50 0 92 111q-66 -9 -125.5 -31.5t-59.5 -35.5q0 -14 30 -29t63 -15z" />
    <glyph glyph-name="Jcircumflex" unicode="&#x134;" horiz-adv-x="521" 
d="M609 583q-6 -1 -38 -5l-48 -6q27 -31 27 -55q0 -6 -1 -10q-69 -355 -173.5 -542.5t-237.5 -187.5q-67 0 -114.5 32.5t-47.5 78.5q0 62 74 142.5t137 80.5q24 0 43.5 -18t19.5 -35q0 -2 -7 -4.5t-22 -8.5t-28 -16q-40 -29 -71 -75.5t-31 -91.5q0 -30 25 -30
q41 0 79.5 37.5t68.5 103.5t55 139.5t45 161.5t32.5 152.5t22.5 128.5q-173 -31 -259 -87q-13 -9 -17 -19q-1 -3 -1 -9t-1.5 -9t-5.5 -3q-32 0 -55 47.5t-23 114.5q0 39 186.5 62.5t298.5 23.5q39 0 69 -9t45 -22t22.5 -24t7.5 -19q0 -7 -12.5 -10t-45.5 -7q-4 0 -6.5 -0.5
t-6 -1t-6.5 -0.5zM548 862q18 -47 39 -80t32.5 -44.5t11.5 -12.5q0 -6 -4.5 -12.5t-11.5 -6.5t-27.5 5.5t-24.5 8.5q-31 24 -57 70q-13 -28 -62 -75q-16 -16 -29 -16q-25 0 -52 12.5t-27 24.5q0 10 11 16q32 17 72 58t57 71q6 8 15 8q11 0 33 -10t24 -17z" />
    <glyph glyph-name="jcircumflex" unicode="&#x135;" horiz-adv-x="179" 
d="M43 264q0 19 -11 33t-11 19q0 14 31 14q21 0 54 -20t33 -48q0 -43 -10 -131.5t-30 -174.5q42 -13 63.5 -37.5t21.5 -41.5q0 -13 -12 -13q-2 0 -28.5 6.5t-66.5 8.5q-67 -204 -185 -204q-64 0 -121.5 53.5t-57.5 93.5q0 21 42.5 52t111 57.5t133.5 32.5q19 80 31 168
t12 132zM-120 -236q50 0 93 111q-67 -9 -126.5 -31.5t-59.5 -35.5q0 -14 30 -29t63 -15zM148 533q16 -48 34 -83.5t27 -49.5t9 -16q0 -9 -11 -9q-6 0 -24.5 5.5t-21.5 8.5q-35 31 -54 70q-10 -29 -52 -75q-14 -16 -26 -16q-20 0 -44 12t-24 19q0 3 11 12q80 79 113 141
q5 8 13 8q10 0 29 -10t21 -17z" />
    <glyph glyph-name="uni0136" unicode="&#x136;" horiz-adv-x="643" 
d="M155 685q31 0 74.5 -24t43.5 -52q0 -4 -7.5 -9t-10.5 -20q-34 -141 -57 -300q41 55 85 109t111 129t127.5 121.5t98.5 46.5q20 0 56.5 -39t36.5 -68q0 -10 -11 -17t-26 -7q-6 0 -22 -5.5t-47.5 -23t-69 -44t-92 -74.5t-112.5 -109q41 -82 126 -165t130 -83q21 0 38 8
q7 -6 7 -19q0 -31 -30.5 -70.5t-58.5 -39.5q-40 0 -78 23.5t-66 57t-53.5 79.5t-40 80.5t-27.5 70.5q-55 -62 -99 -119q-7 -77 -7 -167q0 -13 -3.5 -19t-15.5 -6q-28 0 -69 24t-41 66q0 41 34 111q16 317 40 484q9 70 36 70zM263 -94q5 16 21 16q31 0 58.5 -18.5t27.5 -42.5
q0 -43 -66.5 -85.5t-122.5 -42.5q-44 0 -44 22q0 3 9 9l24 16t31.5 25t33.5 41.5t28 59.5z" />
    <glyph glyph-name="uni0137" unicode="&#x137;" horiz-adv-x="409" 
d="M110 114l4 -1q16 41 36.5 83t55.5 88t63 46q30 0 65 -30.5t35 -66.5q0 -43 -105 -92q41 -60 76 -60q24 0 53.5 30t58.5 88q17 -14 17 -36q0 -26 -53.5 -98.5t-99.5 -72.5q-53 0 -88.5 41t-46.5 89l-14 3q-11 -23 -21.5 -48t-16 -38.5t-11.5 -25.5t-11.5 -16.5t-12.5 -4.5
q-25 0 -49.5 30.5t-24.5 54.5q0 40 33.5 227t61.5 265q1 2 3 8t3 8t3 7t3.5 7.5t3.5 6t4 5t4.5 3.5t5.5 3t6 1q27 0 58.5 -26t31.5 -44q0 -3 -3 -8t-10 -18.5t-14 -33.5q-32 -86 -62.5 -195t-41.5 -179zM203 191q7 -3 19 -11q67 45 67 68q0 7 -6 14.5t-10 7.5q-21 0 -70 -79
zM167 -54q20 0 44 -18t24 -37q0 -43 -37 -84t-81 -41q-6 0 -11 4t-5 8t8 11.5t18.5 27.5t15.5 52q2 10 3 23t1.5 21.5t2 16.5t6 12t11.5 4z" />
    <glyph glyph-name="Lacute" unicode="&#x139;" horiz-adv-x="565" 
d="M503 1q-71 0 -173 -21.5t-165 -51.5v-7q-3 -45 -27 -45q-34 0 -64 27.5t-30 51.5q0 13 41 41q12 441 38 619q11 70 36 70q32 0 75.5 -24.5t43.5 -51.5q0 -4 -7.5 -9t-11.5 -20q-62 -256 -87 -536q168 82 284 82q21 0 60 -42t39 -70t-13 -28q-1 0 -13 7.5t-26 7.5z
M330 887q35 0 59 -27.5t24 -44.5q0 -36 -85 -75t-120 -39q-10 0 -20.5 9t-10.5 18q40 24 79.5 65.5t55.5 75.5l2 5q2 6 3 7.5t4.5 3.5t8.5 2z" />
    <glyph glyph-name="lacute" unicode="&#x13a;" horiz-adv-x="224" 
d="M28 113q0 59 29 216.5t58 239.5q1 2 3 8t3 8t3 7t3.5 7.5t3.5 6t4 5t4.5 3.5t5.5 3t6 1q27 0 58.5 -26t31.5 -44q0 -3 -3 -8t-10 -18.5t-14 -33.5q-34 -91 -60 -202.5t-26 -179.5q0 -28 5 -38t19 -10q13 0 50.5 42.5t64.5 98.5q17 -14 17 -36q0 -26 -53.5 -98.5
t-99.5 -72.5q-38 0 -70.5 41t-32.5 80zM295 835q35 0 59 -27.5t24 -44.5q0 -36 -85 -75t-120 -39q-10 0 -20.5 9t-10.5 18q40 24 79.5 65.5t55.5 75.5l2 5q2 6 3 7.5t4.5 3.5t8.5 2z" />
    <glyph glyph-name="uni013B" unicode="&#x13b;" horiz-adv-x="565" 
d="M503 1q-71 0 -173 -21.5t-165 -51.5v-7q-3 -45 -27 -45q-34 0 -64 27.5t-30 51.5q0 13 41 41q12 441 38 619q11 70 36 70q32 0 75.5 -24.5t43.5 -51.5q0 -4 -7.5 -9t-11.5 -20q-62 -256 -87 -536q168 82 284 82q21 0 60 -42t39 -70t-13 -28q-1 0 -13 7.5t-26 7.5z
M263 -94q5 16 21 16q31 0 58.5 -18.5t27.5 -42.5q0 -43 -66.5 -85.5t-122.5 -42.5q-44 0 -44 22q0 3 9 9l24 16t31.5 25t33.5 41.5t28 59.5z" />
    <glyph glyph-name="uni013C" unicode="&#x13c;" horiz-adv-x="224" 
d="M28 113q0 59 29 216.5t58 239.5q1 2 3 8t3 8t3 7t3.5 7.5t3.5 6t4 5t4.5 3.5t5.5 3t6 1q27 0 58.5 -26t31.5 -44q0 -3 -3 -8t-10 -18.5t-14 -33.5q-34 -91 -60 -202.5t-26 -179.5q0 -28 5 -38t19 -10q13 0 50.5 42.5t64.5 98.5q17 -14 17 -36q0 -26 -53.5 -98.5
t-99.5 -72.5q-38 0 -70.5 41t-32.5 80zM56 -54q20 0 44 -18t24 -37q0 -43 -37 -84t-81 -41q-6 0 -11 4t-5 8t8 11.5t18.5 27.5t15.5 52q2 10 3 23t1.5 21.5t2 16.5t6 12t11.5 4z" />
    <glyph glyph-name="Lcaron" unicode="&#x13d;" horiz-adv-x="565" 
d="M503 1q-71 0 -173 -21.5t-165 -51.5v-7q-3 -45 -27 -45q-34 0 -64 27.5t-30 51.5q0 13 41 41q12 441 38 619q11 70 36 70q32 0 75.5 -24.5t43.5 -51.5q0 -4 -7.5 -9t-11.5 -20q-62 -256 -87 -536q168 82 284 82q21 0 60 -42t39 -70t-13 -28q-1 0 -13 7.5t-26 7.5z
M383 685q43 0 77 -17t34 -40q0 -32 -55 -123t-81 -91q-7 0 -17 3.5t-10 8.5q0 3 7 33.5t16 77.5t12 86q1 7 1 16t0.5 14t1 11t1.5 9.5t2.5 6.5t4 4t6.5 1z" />
    <glyph glyph-name="lcaron" unicode="&#x13e;" horiz-adv-x="270" 
d="M28 113q0 59 29 216.5t58 239.5q1 2 3 8t3 8t3 7t3.5 7.5t3.5 6t4 5t4.5 3.5t5.5 3t6 1q27 0 58.5 -26t31.5 -44q0 -3 -3 -8t-10 -18.5t-14 -33.5q-34 -91 -60 -202.5t-26 -179.5q0 -52 21 -52q12 0 36 17.5t37 39.5q15 0 15 -22q0 -23 -32 -60t-74 -37q-38 0 -70.5 41
t-32.5 80zM321 651q38 0 68 -14.5t30 -35.5q0 -28 -48.5 -107.5t-71.5 -79.5q-6 0 -14.5 3t-8.5 7q0 3 6 29.5t13.5 67.5t10.5 75q1 8 1.5 19t0.5 16t1.5 10.5t4 7.5t7.5 2z" />
    <glyph glyph-name="Ldot" unicode="&#x13f;" horiz-adv-x="565" 
d="M503 1q-71 0 -173 -21.5t-165 -51.5v-7q-3 -45 -27 -45q-34 0 -64 27.5t-30 51.5q0 13 41 41q12 441 38 619q11 70 36 70q32 0 75.5 -24.5t43.5 -51.5q0 -4 -7.5 -9t-11.5 -20q-62 -256 -87 -536q168 82 284 82q21 0 60 -42t39 -70t-13 -28q-1 0 -13 7.5t-26 7.5z
M453 380q27 0 44.5 -16.5t17.5 -43.5q0 -35 -29 -62.5t-64 -27.5q-28 0 -50.5 15t-22.5 46q0 34 32 61.5t72 27.5z" />
    <glyph glyph-name="ldot" unicode="&#x140;" horiz-adv-x="361" 
d="M28 113q0 59 29 216.5t58 239.5q1 2 3 8t3 8t3 7t3.5 7.5t3.5 6t4 5t4.5 3.5t5.5 3t6 1q27 0 58.5 -26t31.5 -44q0 -3 -3 -8t-10 -18.5t-14 -33.5q-34 -91 -60 -202.5t-26 -179.5q0 -52 21 -52q12 0 36 17.5t37 39.5q15 0 15 -22q0 -23 -32 -60t-74 -37q-38 0 -70.5 41
t-32.5 80zM304 357q21 0 35 -13t14 -34q0 -28 -22.5 -49.5t-50.5 -21.5q-21 0 -39 12t-18 36q0 27 25 48.5t56 21.5z" />
    <glyph glyph-name="Lslash" unicode="&#x141;" horiz-adv-x="565" 
d="M503 1q-71 0 -173 -21.5t-165 -51.5v-7q-3 -45 -27 -45q-34 0 -64 27.5t-30 51.5q0 13 41 41q3 108 7 197q-16 -3 -27 -3q-32 0 -49.5 9t-17.5 20q0 5 3.5 7t19.5 8q2 1 3.5 1.5t3.5 1t4.5 1.5t4.5 2q40 16 59 25q14 261 27 350q11 70 36 70q32 0 75.5 -24.5t43.5 -51.5
q0 -4 -7.5 -9t-11.5 -20q-24 -92 -51 -259q61 36 88 60q16 16 19 27q1 2 1.5 6t1 6.5t3.5 2.5q17 0 29.5 -27t12.5 -64q0 -24 -50 -54t-120 -55q-15 -111 -21 -179q168 82 284 82q21 0 60 -42t39 -70t-13 -28q-1 0 -13 7.5t-26 7.5z" />
    <glyph glyph-name="lslash" unicode="&#x142;" horiz-adv-x="245" 
d="M255 300q0 -28 -115 -83q-12 -63 -12 -111q0 -60 26 -60q23 0 63.5 46t70.5 107q17 -14 17 -36q0 -26 -53.5 -98.5t-99.5 -72.5q-40 0 -79.5 43t-39.5 93q0 18 4 49q-21 -6 -32 -6q-18 0 -31 6t-13 15q0 7 23 16q20 8 60 26q33 228 71 335q1 2 3 8t3 8t3 7t3.5 7.5t3.5 6
t4 5t4.5 3.5t5.5 3t6 1q27 0 58.5 -26t31.5 -44q0 -3 -3 -8t-10 -18.5t-14 -33.5q-33 -87 -58 -191q31 19 55 41q6 6 10 11t5 7.5t2 3.5t3 1q24 0 24 -61z" />
    <glyph glyph-name="Nacute" unicode="&#x143;" horiz-adv-x="641" 
d="M395 93q0 61 41 254t46 226l-6 1q-150 -139 -222.5 -286t-72.5 -287q0 -18 2 -31.5t2 -15.5q0 -16 -23 -16q-41 0 -76.5 31t-35.5 82q0 54 29.5 235.5t33.5 252.5q4 62 8 69q6 10 26 10q27 0 64 -26.5t37 -53.5q0 -14 -7.5 -44.5t-22 -84t-23.5 -90.5l4 -2
q40 86 84.5 158.5t81 116.5t65.5 68.5t44 24.5q37 0 89.5 -31.5t52.5 -59.5q0 -66 -39.5 -234.5t-39.5 -254.5q0 -39 12.5 -70.5t33.5 -42.5q7 -3 7 -11q0 -9 -10 -16t-22 -7q-16 0 -41 7.5t-53.5 22t-48.5 42.5t-20 63zM507 887q35 0 59 -27.5t24 -44.5q0 -36 -85 -75
t-120 -39q-10 0 -20.5 9t-10.5 18q40 24 79.5 65.5t55.5 75.5l2 5q2 6 3 7.5t4.5 3.5t8.5 2z" />
    <glyph glyph-name="nacute" unicode="&#x144;" horiz-adv-x="388" 
d="M140 265q0 -8 -4.5 -28t-11 -48.5t-9.5 -42.5l5 -1q100 185 130 185q26 0 53 -23t27 -41q0 -8 -24 -80.5t-24 -101.5q0 -12 5.5 -21t12.5 -9q23 0 62 42.5t69 102.5q17 -14 17 -36q0 -26 -54 -98.5t-99 -72.5q-37 0 -73 22.5t-36 51.5q0 23 14 68.5t28 79.5l14 34l-5 3
q-43 -61 -76.5 -129t-49 -99t-29.5 -31q-25 0 -47 27t-22 57q0 21 18.5 96.5t18.5 91.5q0 19 -6 33t-6 19q0 14 21 14q18 0 49.5 -21.5t31.5 -43.5zM243 547q36 0 63 -18.5t27 -32.5q0 -37 -59 -83t-88 -46q-11 0 -11 11q0 2 13.5 20t26.5 49t13 65q0 6 -0.5 13.5t-0.5 9.5
q0 12 16 12z" />
    <glyph glyph-name="uni0145" unicode="&#x145;" horiz-adv-x="641" 
d="M395 93q0 61 41 254t46 226l-6 1q-150 -139 -222.5 -286t-72.5 -287q0 -18 2 -31.5t2 -15.5q0 -16 -23 -16q-41 0 -76.5 31t-35.5 82q0 54 29.5 235.5t33.5 252.5q4 62 8 69q6 10 26 10q27 0 64 -26.5t37 -53.5q0 -14 -7.5 -44.5t-22 -84t-23.5 -90.5l4 -2
q40 86 84.5 158.5t81 116.5t65.5 68.5t44 24.5q37 0 89.5 -31.5t52.5 -59.5q0 -66 -39.5 -234.5t-39.5 -254.5q0 -39 12.5 -70.5t33.5 -42.5q7 -3 7 -11q0 -9 -10 -16t-22 -7q-16 0 -41 7.5t-53.5 22t-48.5 42.5t-20 63zM239 -94q5 16 21 16q31 0 58.5 -18.5t27.5 -42.5
q0 -43 -66.5 -85.5t-122.5 -42.5q-44 0 -44 22q0 3 9 9l24 16t31.5 25t33.5 41.5t28 59.5z" />
    <glyph glyph-name="uni0146" unicode="&#x146;" horiz-adv-x="388" 
d="M140 265q0 -8 -4.5 -28t-11 -48.5t-9.5 -42.5l5 -1q100 185 130 185q26 0 53 -23t27 -41q0 -8 -24 -80.5t-24 -101.5q0 -12 5.5 -21t12.5 -9q23 0 62 42.5t69 102.5q17 -14 17 -36q0 -26 -54 -98.5t-99 -72.5q-37 0 -73 22.5t-36 51.5q0 23 14 68.5t28 79.5l14 34l-5 3
q-43 -61 -76.5 -129t-49 -99t-29.5 -31q-25 0 -47 27t-22 57q0 21 18.5 96.5t18.5 91.5q0 19 -6 33t-6 19q0 14 21 14q18 0 49.5 -21.5t31.5 -43.5zM120 -54q20 0 44 -18t24 -37q0 -43 -37 -84t-81 -41q-6 0 -11 4t-5 8t8 11.5t18.5 27.5t15.5 52q2 10 3 23t1.5 21.5t2 16.5
t6 12t11.5 4z" />
    <glyph glyph-name="Ncaron" unicode="&#x147;" horiz-adv-x="641" 
d="M395 93q0 61 41 254t46 226l-6 1q-150 -139 -222.5 -286t-72.5 -287q0 -18 2 -31.5t2 -15.5q0 -16 -23 -16q-41 0 -76.5 31t-35.5 82q0 54 29.5 235.5t33.5 252.5q4 62 8 69q6 10 26 10q27 0 64 -26.5t37 -53.5q0 -14 -7.5 -44.5t-22 -84t-23.5 -90.5l4 -2
q40 86 84.5 158.5t81 116.5t65.5 68.5t44 24.5q37 0 89.5 -31.5t52.5 -59.5q0 -66 -39.5 -234.5t-39.5 -254.5q0 -39 12.5 -70.5t33.5 -42.5q7 -3 7 -11q0 -9 -10 -16t-22 -7q-16 0 -41 7.5t-53.5 22t-48.5 42.5t-20 63zM371 726q-17 48 -35.5 81t-28.5 44t-10 12
q0 6 4.5 12.5t11.5 6.5q6 0 22.5 -5t20.5 -9q31 -24 57 -70q13 28 62 75q16 16 29 16q25 0 52 -12.5t27 -24.5q0 -10 -11 -16q-31 -16 -68 -55.5t-61 -73.5q-6 -8 -15 -8q-11 0 -33 10t-24 17z" />
    <glyph glyph-name="ncaron" unicode="&#x148;" horiz-adv-x="388" 
d="M140 265q0 -8 -4.5 -28t-11 -48.5t-9.5 -42.5l5 -1q100 185 130 185q26 0 53 -23t27 -41q0 -8 -24 -80.5t-24 -101.5q0 -12 5.5 -21t12.5 -9q23 0 62 42.5t69 102.5q17 -14 17 -36q0 -26 -54 -98.5t-99 -72.5q-37 0 -73 22.5t-36 51.5q0 23 14 68.5t28 79.5l14 34l-5 3
q-43 -61 -76.5 -129t-49 -99t-29.5 -31q-25 0 -47 27t-22 57q0 21 18.5 96.5t18.5 91.5q0 19 -6 33t-6 19q0 14 21 14q18 0 49.5 -21.5t31.5 -43.5zM177 395q-16 48 -34 83.5t-27 49.5t-9 16q0 9 11 9q6 0 24.5 -5.5t21.5 -8.5q35 -31 54 -70q22 26 55 62q14 16 26 16
q20 0 41.5 -11t21.5 -19q0 -3 -11 -12q-60 -50 -122 -125q-8 -8 -13 -8q-9 0 -23 8t-16 15z" />
    <glyph glyph-name="Omacron" unicode="&#x14c;" horiz-adv-x="833" 
d="M802 341q0 -66 -31 -137.5t-84.5 -133t-136 -101t-176.5 -39.5q-88 0 -156 28.5t-106.5 75t-57.5 100t-19 110.5q0 98 40.5 184.5t101 140.5t126 85t119.5 31q30 0 70 -33q40 -1 80.5 -11t82.5 -33.5t74 -58t52.5 -88.5t20.5 -120zM664 372q0 99 -43.5 162t-88.5 70
q1 -2 1 -6q0 -11 -15 -11q-143 0 -242.5 -111t-99.5 -256q0 -105 51.5 -163.5t127.5 -58.5q73 0 133.5 36t97.5 92t57.5 120t20.5 126zM320 706q-12 0 -24.5 22.5t-12.5 36.5q0 7 5 9q22 9 147.5 21t165.5 12q24 0 36.5 -27t12.5 -50q0 -9 -6 -11.5t-22 -2.5
q-51 0 -174.5 -5t-127.5 -5z" />
    <glyph glyph-name="omacron" unicode="&#x14d;" horiz-adv-x="332" 
d="M149 330q39 0 78 -25t46 -55q44 -31 44 -60q0 -68 -52.5 -133t-115.5 -65q-53 0 -97.5 37t-44.5 96q0 80 50 142.5t92 62.5zM237 188q0 13 -1 19q-6 -1 -17 -1q-22 0 -22 6q0 1 2.5 7.5t2.5 14.5l-4 19q-33 0 -68.5 -52t-35.5 -94q0 -62 47 -62q34 0 65 51.5t31 91.5z
M101 376q-11 0 -22.5 20.5t-11.5 33.5q0 6 5 8q21 8 109 19t121 11q22 0 33.5 -24.5t11.5 -45.5q0 -8 -5.5 -10.5t-20.5 -2.5q-46 0 -131.5 -4.5t-88.5 -4.5z" />
    <glyph glyph-name="Obreve" unicode="&#x14e;" horiz-adv-x="833" 
d="M802 341q0 -66 -31 -137.5t-84.5 -133t-136 -101t-176.5 -39.5q-88 0 -156 28.5t-106.5 75t-57.5 100t-19 110.5q0 98 40.5 184.5t101 140.5t126 85t119.5 31q30 0 70 -33q40 -1 80.5 -11t82.5 -33.5t74 -58t52.5 -88.5t20.5 -120zM664 372q0 99 -43.5 162t-88.5 70
q1 -2 1 -6q0 -11 -15 -11q-143 0 -242.5 -111t-99.5 -256q0 -105 51.5 -163.5t127.5 -58.5q73 0 133.5 36t97.5 92t57.5 120t20.5 126zM521 705q-57 0 -92 51.5t-35 99.5q0 10 13 10q7 0 23.5 -19.5t21.5 -32.5q7 -17 18.5 -29.5t21.5 -12.5q27 0 51.5 28t33.5 60
q5 20 13 20q24 0 48 -23.5t24 -34.5q0 -45 -39 -81t-102 -36z" />
    <glyph glyph-name="obreve" unicode="&#x14f;" horiz-adv-x="332" 
d="M149 330q39 0 78 -25t46 -55q44 -31 44 -60q0 -68 -52.5 -133t-115.5 -65q-53 0 -97.5 37t-44.5 96q0 80 50 142.5t92 62.5zM237 188q0 13 -1 19q-6 -1 -17 -1q-22 0 -22 6q0 1 2.5 7.5t2.5 14.5l-4 19q-33 0 -68.5 -52t-35.5 -94q0 -62 47 -62q34 0 65 51.5t31 91.5z
M200 382q-46 0 -72 43t-26 87q0 9 11 9q5 0 16.5 -14t15.5 -25q12 -39 32 -39q26 0 43 21.5t25 51.5q4 18 10 18q19 0 38.5 -18t19.5 -27q0 -41 -31.5 -74t-81.5 -33z" />
    <glyph glyph-name="Ohungarumlaut" unicode="&#x150;" horiz-adv-x="833" 
d="M802 341q0 -66 -31 -137.5t-84.5 -133t-136 -101t-176.5 -39.5q-88 0 -156 28.5t-106.5 75t-57.5 100t-19 110.5q0 98 40.5 184.5t101 140.5t126 85t119.5 31q30 0 70 -33q40 -1 80.5 -11t82.5 -33.5t74 -58t52.5 -88.5t20.5 -120zM664 372q0 99 -43.5 162t-88.5 70
q1 -2 1 -6q0 -11 -15 -11q-143 0 -242.5 -111t-99.5 -256q0 -105 51.5 -163.5t127.5 -58.5q73 0 133.5 36t97.5 92t57.5 120t20.5 126zM467 898q38 0 68 -15t30 -35q0 -27 -48.5 -90.5t-71.5 -63.5q-6 0 -17 7.5t-11 11.5q0 3 4.5 23t12 52.5t11.5 59.5q7 42 12 47q5 3 10 3
zM633 898q38 0 69 -19t31 -45q0 -25 -60 -78.5t-85 -53.5q-6 0 -17 7.5t-11 11.5q0 3 9 21.5t23 50.5t24 62q3 11 4.5 21t2 13.5t2.5 6t8 2.5z" />
    <glyph glyph-name="ohungarumlaut" unicode="&#x151;" horiz-adv-x="332" 
d="M149 330q39 0 78 -25t46 -55q44 -31 44 -60q0 -68 -52.5 -133t-115.5 -65q-53 0 -97.5 37t-44.5 96q0 80 50 142.5t92 62.5zM237 188q0 13 -1 19q-6 -1 -17 -1q-22 0 -22 6q0 1 2.5 7.5t2.5 14.5l-4 19q-33 0 -68.5 -52t-35.5 -94q0 -62 47 -62q34 0 65 51.5t31 91.5z
M167 555q24 0 49.5 -18.5t25.5 -31.5q0 -27 -46 -82.5t-70 -55.5q-11 0 -11 11q0 3 6 21.5t15 50.5t14 62q1 7 2 15l1.5 12t1 7.5t2 5t4 2.5t6.5 1zM309 555q24 0 48.5 -25t24.5 -39q0 -25 -56 -70.5t-81 -45.5q-11 0 -11 11q0 3 9.5 19.5t24 46.5t24.5 60q3 11 4.5 21
t2 13.5t2.5 6t8 2.5z" />
    <glyph glyph-name="OE" unicode="&#x152;" horiz-adv-x="1265" 
d="M1089 685q78 0 135.5 -42t57.5 -106q0 -57 -39.5 -94.5t-82.5 -37.5q-42 0 -71 26.5t-29 49.5q0 14 14 14q50 0 94.5 20.5t44.5 50.5q0 13 -13.5 21.5t-35.5 8.5q-62 0 -149.5 -30.5t-150 -71.5t-62.5 -69q0 -31 46 -52q80 22 131 22q26 0 74.5 -26t48.5 -48
q0 -43 -96 -43q-34 0 -71 6q-77 -20 -135.5 -41.5t-89.5 -38.5t-50 -33.5t-24 -26t-5 -16.5q0 -6 1 -10t6.5 -11t15.5 -12.5t30.5 -12t49 -10.5t73 -6.5t99.5 -2.5q136 0 251.5 47t166.5 104q9 -10 9 -26q0 -24 -22.5 -57t-67 -68t-102 -64.5t-135 -49t-158.5 -19.5
q-158 0 -242 71q-106 -71 -232 -71q-88 0 -156 28.5t-106.5 75t-57.5 100t-19 110.5q0 98 40.5 184.5t101 140.5t126 85t119.5 31q30 0 70 -33q67 -2 136 -31t114 -88q50 62 153.5 107t193.5 45zM671 372q0 99 -46.5 162t-92.5 70q1 -2 1 -6q0 -11 -15 -11
q-144 0 -251.5 -115t-107.5 -259q0 -105 60 -160t136 -55q113 0 198 85q-9 27 -9 59q0 82 119 153q8 42 8 77z" />
    <glyph glyph-name="oe" unicode="&#x153;" horiz-adv-x="520" 
d="M373 -8q-83 0 -117 65q-45 -65 -107 -65q-53 0 -97.5 37t-44.5 96q0 80 50 142.5t92 62.5q40 0 80 -26.5t44 -58.5q23 37 52 61t55 24q44 0 83 -30t39 -63q0 -50 -46.5 -88t-95.5 -38q-12 0 -34 4q5 -25 21 -43.5t40 -18.5q41 0 93.5 43t82.5 103q17 -14 17 -36
q0 -10 -17 -36.5t-43.5 -57t-66.5 -54t-80 -23.5zM211 226q0 16 2 19l-15 8q-33 0 -69 -53t-36 -96q0 -62 47 -62q28 0 59 36.5t41 75.5q-29 32 -29 72zM407 271q-17 0 -42.5 -37.5t-36.5 -74.5q7 -2 21 -2q27 0 51 32.5t24 57.5q0 24 -17 24z" />
    <glyph glyph-name="Racute" unicode="&#x154;" horiz-adv-x="674" 
d="M220 233q0 34 17 57.5t40 23.5q15 0 32 -9q70 16 142.5 60.5t114.5 88.5t42 66q0 4 -6 10t-21 13.5t-35 13.5t-52.5 10.5t-69.5 4.5q-103 0 -204 -48q22 -12 38 -34.5t16 -39.5q0 -12 -16 -42q-37 -71 -61.5 -200t-24.5 -225q0 -17 -3.5 -23.5t-18.5 -6.5
q-18 0 -41.5 48.5t-23.5 103.5q0 74 24 195t35 150l15 40q-30 -22 -49 -42q-29 0 -29 46q0 79 111 134.5t268 55.5q100 0 170 -54.5t70 -137.5q0 -59 -59 -118.5t-136 -98.5t-152 -58q51 -64 128.5 -115t118.5 -51q21 0 38 8q7 -6 7 -19q0 -31 -30.5 -70.5t-58.5 -39.5
q-40 0 -79 21t-68 50.5t-57 70t-44.5 71.5t-31.5 63q-18 1 -37 9.5t-19 17.5zM501 887q35 0 59 -27.5t24 -44.5q0 -36 -85 -75t-120 -39q-10 0 -20.5 9t-10.5 18q40 24 79.5 65.5t55.5 75.5l2 5q2 6 3 7.5t4.5 3.5t8.5 2z" />
    <glyph glyph-name="racute" unicode="&#x155;" horiz-adv-x="282" 
d="M194 54q23 0 62 42.5t69 102.5q17 -14 17 -36q0 -15 -22 -54t-65.5 -78t-87.5 -39q-27 0 -52 22t-25 51q0 25 12 71q-12 3 -25.5 9t-30.5 17t-28 30.5t-11 43.5q0 26 23 72t41 46q17 0 29.5 -20t12.5 -39q0 -16 -23 -82l32 -8q27 69 45 69q14 0 43.5 -23.5t29.5 -36.5
q0 -17 -23 -38q-36 -68 -36 -108q0 -14 13 -14zM219 547q36 0 63 -18.5t27 -32.5q0 -37 -59 -83t-88 -46q-11 0 -11 11q0 2 13.5 20t26.5 49t13 65q0 6 -0.5 13.5t-0.5 9.5q0 12 16 12z" />
    <glyph glyph-name="uni0156" unicode="&#x156;" horiz-adv-x="674" 
d="M220 233q0 34 17 57.5t40 23.5q15 0 32 -9q70 16 142.5 60.5t114.5 88.5t42 66q0 4 -6 10t-21 13.5t-35 13.5t-52.5 10.5t-69.5 4.5q-103 0 -204 -48q22 -12 38 -34.5t16 -39.5q0 -12 -16 -42q-37 -71 -61.5 -200t-24.5 -225q0 -17 -3.5 -23.5t-18.5 -6.5
q-18 0 -41.5 48.5t-23.5 103.5q0 74 24 195t35 150l15 40q-30 -22 -49 -42q-29 0 -29 46q0 79 111 134.5t268 55.5q100 0 170 -54.5t70 -137.5q0 -59 -59 -118.5t-136 -98.5t-152 -58q51 -64 128.5 -115t118.5 -51q21 0 38 8q7 -6 7 -19q0 -31 -30.5 -70.5t-58.5 -39.5
q-40 0 -79 21t-68 50.5t-57 70t-44.5 71.5t-31.5 63q-18 1 -37 9.5t-19 17.5zM247 -94q5 16 21 16q31 0 58.5 -18.5t27.5 -42.5q0 -43 -66.5 -85.5t-122.5 -42.5q-44 0 -44 22q0 3 9 9l24 16t31.5 25t33.5 41.5t28 59.5z" />
    <glyph glyph-name="uni0157" unicode="&#x157;" horiz-adv-x="282" 
d="M194 54q23 0 62 42.5t69 102.5q17 -14 17 -36q0 -15 -22 -54t-65.5 -78t-87.5 -39q-27 0 -52 22t-25 51q0 25 12 71q-12 3 -25.5 9t-30.5 17t-28 30.5t-11 43.5q0 26 23 72t41 46q17 0 29.5 -20t12.5 -39q0 -16 -23 -82l32 -8q27 69 45 69q14 0 43.5 -23.5t29.5 -36.5
q0 -17 -23 -38q-36 -68 -36 -108q0 -14 13 -14zM107 -54q20 0 44 -18t24 -37q0 -43 -37 -84t-81 -41q-6 0 -11 4t-5 8t8 11.5t18.5 27.5t15.5 52q2 10 3 23t1.5 21.5t2 16.5t6 12t11.5 4z" />
    <glyph glyph-name="Rcaron" unicode="&#x158;" horiz-adv-x="674" 
d="M220 233q0 34 17 57.5t40 23.5q15 0 32 -9q70 16 142.5 60.5t114.5 88.5t42 66q0 4 -6 10t-21 13.5t-35 13.5t-52.5 10.5t-69.5 4.5q-103 0 -204 -48q22 -12 38 -34.5t16 -39.5q0 -12 -16 -42q-37 -71 -61.5 -200t-24.5 -225q0 -17 -3.5 -23.5t-18.5 -6.5
q-18 0 -41.5 48.5t-23.5 103.5q0 74 24 195t35 150l15 40q-30 -22 -49 -42q-29 0 -29 46q0 79 111 134.5t268 55.5q100 0 170 -54.5t70 -137.5q0 -59 -59 -118.5t-136 -98.5t-152 -58q51 -64 128.5 -115t118.5 -51q21 0 38 8q7 -6 7 -19q0 -31 -30.5 -70.5t-58.5 -39.5
q-40 0 -79 21t-68 50.5t-57 70t-44.5 71.5t-31.5 63q-18 1 -37 9.5t-19 17.5zM392 726q-17 48 -35.5 81t-28.5 44t-10 12q0 6 4.5 12.5t11.5 6.5q6 0 22.5 -5t20.5 -9q31 -24 57 -70q13 28 62 75q16 16 29 16q25 0 52 -12.5t27 -24.5q0 -10 -11 -16q-31 -16 -68 -55.5
t-61 -73.5q-6 -8 -15 -8q-11 0 -33 10t-24 17z" />
    <glyph glyph-name="rcaron" unicode="&#x159;" horiz-adv-x="282" 
d="M194 54q23 0 62 42.5t69 102.5q17 -14 17 -36q0 -15 -22 -54t-65.5 -78t-87.5 -39q-27 0 -52 22t-25 51q0 25 12 71q-12 3 -25.5 9t-30.5 17t-28 30.5t-11 43.5q0 26 23 72t41 46q17 0 29.5 -20t12.5 -39q0 -16 -23 -82l32 -8q27 69 45 69q14 0 43.5 -23.5t29.5 -36.5
q0 -17 -23 -38q-36 -68 -36 -108q0 -14 13 -14zM153 395q-16 48 -34 83.5t-27 49.5t-9 16q0 9 11 9q6 0 24.5 -5.5t21.5 -8.5q35 -31 54 -70q22 26 55 62q14 16 26 16q20 0 41.5 -11t21.5 -19q0 -3 -11 -12q-60 -50 -122 -125q-8 -8 -13 -8q-9 0 -23 8t-16 15z" />
    <glyph glyph-name="Sacute" unicode="&#x15a;" horiz-adv-x="683" 
d="M165 146l-17 -19q-18 -19 -18 -39q0 -29 42.5 -47t109.5 -18q106 0 171 29.5t65 77.5q0 31 -46 60.5t-112 54.5t-132 52.5t-112 67t-46 85.5q0 97 131.5 166t316.5 69q111 0 165.5 -33.5t54.5 -90.5q0 -51 -52 -88.5t-99 -37.5q-44 0 -44 20q0 4 12.5 15.5t12.5 20.5
q0 15 -21.5 24.5t-58.5 9.5q-134 0 -222.5 -28t-88.5 -68q0 -29 48.5 -57t117.5 -53.5t138.5 -53.5t118 -68.5t48.5 -87.5q0 -76 -83 -121t-215 -45q-125 0 -218.5 50t-93.5 115q0 33 22 54t49 21q26 0 41 -12.5t15 -24.5zM519 887q35 0 59 -27.5t24 -44.5q0 -36 -85 -75
t-120 -39q-10 0 -20.5 9t-10.5 18q40 24 79.5 65.5t55.5 75.5l2 5q2 6 3 7.5t4.5 3.5t8.5 2z" />
    <glyph glyph-name="sacute" unicode="&#x15b;" horiz-adv-x="285" 
d="M198 334q40 0 60 -23.5t20 -56.5q0 -21 -10.5 -33.5t-23.5 -12.5q-8 0 -8 10q0 7 -8 12t-19 5q-20 0 -57.5 -19.5t-37.5 -47.5q0 -8 22 -18.5t49 -20t49 -25.5t22 -33q0 -32 -36 -55.5t-90 -23.5q-55 0 -83.5 17.5t-28.5 41.5q0 23 19 35.5t31 12.5q11 0 11 -10
q0 -37 54 -37q38 0 38 22q0 11 -40 25.5t-80 37.5t-40 53q0 53 70 98.5t117 45.5zM206 547q36 0 63 -18.5t27 -32.5q0 -37 -59 -83t-88 -46q-11 0 -11 11q0 2 13 20t26.5 49t13.5 65q0 6 -0.5 13.5t-0.5 9.5q0 12 16 12z" />
    <glyph glyph-name="Scircumflex" unicode="&#x15c;" horiz-adv-x="683" 
d="M165 146l-17 -19q-18 -19 -18 -39q0 -29 42.5 -47t109.5 -18q106 0 171 29.5t65 77.5q0 31 -46 60.5t-112 54.5t-132 52.5t-112 67t-46 85.5q0 97 131.5 166t316.5 69q111 0 165.5 -33.5t54.5 -90.5q0 -51 -52 -88.5t-99 -37.5q-44 0 -44 20q0 4 12.5 15.5t12.5 20.5
q0 15 -21.5 24.5t-58.5 9.5q-134 0 -222.5 -28t-88.5 -68q0 -29 48.5 -57t117.5 -53.5t138.5 -53.5t118 -68.5t48.5 -87.5q0 -76 -83 -121t-215 -45q-125 0 -218.5 50t-93.5 115q0 33 22 54t49 21q26 0 41 -12.5t15 -24.5zM524 862q18 -47 39 -80t32.5 -44.5t11.5 -12.5
q0 -6 -4.5 -12.5t-11.5 -6.5t-27.5 5.5t-24.5 8.5q-31 24 -57 70q-13 -28 -62 -75q-16 -16 -29 -16q-25 0 -52 12.5t-27 24.5q0 10 11 16q32 17 72 58t57 71q6 8 15 8q11 0 33 -10t24 -17z" />
    <glyph glyph-name="scircumflex" unicode="&#x15d;" horiz-adv-x="285" 
d="M198 334q40 0 60 -23.5t20 -56.5q0 -21 -10.5 -33.5t-23.5 -12.5q-8 0 -8 10q0 7 -8 12t-19 5q-20 0 -57.5 -19.5t-37.5 -47.5q0 -8 22 -18.5t49 -20t49 -25.5t22 -33q0 -32 -36 -55.5t-90 -23.5q-55 0 -83.5 17.5t-28.5 41.5q0 23 19 35.5t31 12.5q11 0 11 -10
q0 -37 54 -37q38 0 38 22q0 11 -40 25.5t-80 37.5t-40 53q0 53 70 98.5t117 45.5zM235 533q16 -48 34 -83.5t27 -49.5t9 -16q0 -9 -11 -9q-6 0 -24.5 5.5t-21.5 8.5q-35 31 -54 70q-10 -29 -52 -75q-14 -16 -26 -16q-20 0 -44 12t-24 19q0 3 11 12q80 79 113 141q5 8 13 8
q10 0 29 -10t21 -17z" />
    <glyph glyph-name="Scedilla" unicode="&#x15e;" horiz-adv-x="683" 
d="M246 -114q0 29 64 59q-113 8 -192.5 56t-79.5 107q0 33 22 54t49 21q26 0 41 -12.5t15 -24.5l-17 -19q-18 -19 -18 -39q0 -29 42.5 -47t109.5 -18q106 0 171 29.5t65 77.5q0 31 -46 60.5t-112 54.5t-132 52.5t-112 67t-46 85.5q0 97 131.5 166t316.5 69
q111 0 165.5 -33.5t54.5 -90.5q0 -51 -52 -88.5t-99 -37.5q-44 0 -44 20q0 4 12.5 15.5t12.5 20.5q0 15 -21.5 24.5t-58.5 9.5q-134 0 -222.5 -28t-88.5 -68q0 -29 48.5 -57t117.5 -53.5t138.5 -53.5t118 -68.5t48.5 -87.5q0 -119 -215 -166q-29 -6 -67.5 -25.5t-38.5 -27.5
q37 -7 63.5 -28t26.5 -44q0 -40 -61.5 -80.5t-116.5 -40.5q-26 0 -44 12t-18 29q0 4 28.5 18t61 36t41.5 43q0 4 -31 21.5t-31 29.5z" />
    <glyph glyph-name="scedilla" unicode="&#x15f;" horiz-adv-x="285" 
d="M48 -59q0 27 50 53q-39 5 -59.5 21t-20.5 36q0 23 19 35.5t31 12.5q11 0 11 -10q0 -37 54 -37q38 0 38 22q0 11 -40 25.5t-80 37.5t-40 53q0 53 70 98.5t117 45.5q40 0 60 -23.5t20 -56.5q0 -21 -10.5 -33.5t-23.5 -12.5q-8 0 -8 10q0 7 -8 12t-19 5q-20 0 -57.5 -19.5
t-37.5 -47.5q0 -8 22 -18.5t49 -20t49 -25.5t22 -33q0 -25 -22 -45.5t-59 -28.5q-21 -10 -42.5 -28.5t-21.5 -26.5q3 -1 14.5 -3t16 -3.5t14 -5.5t14 -8.5t8 -13.5t3.5 -20q0 -40 -48 -85.5t-90 -45.5q-6 0 -10.5 6t-4.5 14q0 3 13 18.5t27 43.5t17 60q0 4 -18.5 17.5
t-18.5 24.5z" />
    <glyph glyph-name="Scaron" unicode="&#x160;" horiz-adv-x="683" 
d="M165 146l-17 -19q-18 -19 -18 -39q0 -29 42.5 -47t109.5 -18q106 0 171 29.5t65 77.5q0 31 -46 60.5t-112 54.5t-132 52.5t-112 67t-46 85.5q0 97 131.5 166t316.5 69q111 0 165.5 -33.5t54.5 -90.5q0 -51 -52 -88.5t-99 -37.5q-44 0 -44 20q0 4 12.5 15.5t12.5 20.5
q0 15 -21.5 24.5t-58.5 9.5q-134 0 -222.5 -28t-88.5 -68q0 -29 48.5 -57t117.5 -53.5t138.5 -53.5t118 -68.5t48.5 -87.5q0 -76 -83 -121t-215 -45q-125 0 -218.5 50t-93.5 115q0 33 22 54t49 21q26 0 41 -12.5t15 -24.5zM330 726q-17 48 -35.5 81t-28.5 44t-10 12
q0 6 4.5 12.5t11.5 6.5q6 0 22.5 -5t20.5 -9q31 -24 57 -70q13 28 62 75q16 16 29 16q25 0 52 -12.5t27 -24.5q0 -10 -11 -16q-31 -16 -68 -55.5t-61 -73.5q-6 -8 -15 -8q-11 0 -33 10t-24 17z" />
    <glyph glyph-name="scaron" unicode="&#x161;" horiz-adv-x="285" 
d="M198 334q40 0 60 -23.5t20 -56.5q0 -21 -10.5 -33.5t-23.5 -12.5q-8 0 -8 10q0 7 -8 12t-19 5q-20 0 -57.5 -19.5t-37.5 -47.5q0 -8 22 -18.5t49 -20t49 -25.5t22 -33q0 -32 -36 -55.5t-90 -23.5q-55 0 -83.5 17.5t-28.5 41.5q0 23 19 35.5t31 12.5q11 0 11 -10
q0 -37 54 -37q38 0 38 22q0 11 -40 25.5t-80 37.5t-40 53q0 53 70 98.5t117 45.5zM143 395q-16 48 -34 83.5t-27 49.5t-9 16q0 9 11 9q6 0 24.5 -5.5t21.5 -8.5q35 -31 54 -70q22 26 55 62q14 16 26 16q20 0 41.5 -11t21.5 -19q0 -3 -11 -12q-60 -50 -122 -125q-8 -8 -13 -8
q-9 0 -23 8t-16 15z" />
    <glyph glyph-name="uni0162" unicode="&#x162;" horiz-adv-x="562" 
d="M181 -114q0 24 45.5 49.5t83.5 28.5q-23 32 -23 72q0 184 38 431q5 38 9 56q-109 -26 -183 -55q-11 -3 -17 -19q-1 -3 -1 -9t-1.5 -9t-5.5 -3q-26 0 -52 49.5t-26 112.5q0 28 106 50.5t213 32.5t161 10q44 0 88.5 -42t44.5 -60q-1 -10 -12 -14t-48 -4q-67 0 -158 -16
q23 -21 23 -38q0 -7 -10 -39q-67 -213 -86 -514q-1 -13 -4.5 -18.5t-14.5 -5.5q-5 0 -16 7q-27 -11 -50 -26.5t-23 -22.5q38 -7 64 -28t26 -44q0 -40 -61.5 -80.5t-116.5 -40.5q-26 0 -44 12t-18 29q0 4 28.5 18t61 36t41.5 43q0 4 -31 21.5t-31 29.5z" />
    <glyph glyph-name="uni0163" unicode="&#x163;" horiz-adv-x="240" 
d="M42 -59q0 16 19 32.5t46 27.5q-30 13 -50.5 38.5t-20.5 58.5q0 81 12 175q-40 -5 -48 -5q-16 0 -16 10q0 17 20 28l53 21q18 105 45 179q14 38 33 38q26 0 58.5 -23.5t32.5 -41.5q0 -7 -10 -21q-18 -24 -43 -93q30 8 42 8q21 0 36 -23t15 -39q0 -11 -17 -14q-4 0 -14 -1
l-11 -1l-73 -8q-24 -99 -24 -191q0 -21 8 -31.5t17 -10.5q23 0 62 42.5t69 102.5q17 -14 17 -36t-45.5 -88t-89.5 -80q-21 -12 -40.5 -29t-19.5 -24q3 -1 14.5 -3t16 -3.5t14 -5.5t14 -8.5t8 -13.5t3.5 -20q0 -40 -48 -85.5t-90 -45.5q-6 0 -10.5 6t-4.5 14q0 3 13 18.5
t27 43.5t17 60q0 4 -18.5 17.5t-18.5 24.5z" />
    <glyph glyph-name="Tcaron" unicode="&#x164;" horiz-adv-x="562" 
d="M48 590q0 28 106 50.5t213 32.5t161 10q44 0 88.5 -42t44.5 -60q-1 -10 -12 -14t-48 -4q-67 0 -158 -16q23 -21 23 -38q0 -7 -10 -39q-67 -213 -86 -514q-1 -13 -4.5 -18.5t-14.5 -5.5q-17 0 -40.5 30.5t-23.5 73.5q0 184 38 431q5 38 9 56q-109 -26 -183 -55
q-11 -3 -17 -19q-1 -3 -1 -9t-1.5 -9t-5.5 -3q-26 0 -52 49.5t-26 112.5zM379 726q-17 48 -35.5 81t-28.5 44t-10 12q0 6 4.5 12.5t11.5 6.5q6 0 22.5 -5t20.5 -9q31 -24 57 -70q13 28 62 75q16 16 29 16q25 0 52 -12.5t27 -24.5q0 -10 -11 -16q-31 -16 -68 -55.5t-61 -73.5
q-6 -8 -15 -8q-11 0 -33 10t-24 17z" />
    <glyph glyph-name="tcaron" unicode="&#x165;" horiz-adv-x="260" 
d="M0 268q-16 0 -16 10q0 17 20 28l53 21q18 105 45 179q14 38 33 38q26 0 58.5 -23.5t32.5 -41.5q0 -7 -10 -21q-18 -24 -43 -93q30 8 42 8q21 0 36 -23t15 -39q0 -11 -17 -14q-4 0 -14 -1l-11 -1l-73 -8q-24 -99 -24 -191q0 -21 8 -31.5t17 -10.5q14 0 41 22t40 48
q18 -3 18 -25t-36.5 -64.5t-67.5 -42.5q-38 0 -74.5 31t-36.5 75q0 81 12 175q-40 -5 -48 -5zM311 651q38 0 68 -14.5t30 -35.5q0 -28 -48.5 -107.5t-71.5 -79.5q-6 0 -14.5 3t-8.5 7q0 3 6 29.5t13.5 67.5t10.5 75q1 8 1.5 19t0.5 16t1.5 10.5t4 7.5t7.5 2z" />
    </font>
</defs>
</svg>
